M48
;Layer_Color=9474304
;FILE_FORMAT=4:4
METRIC,LZ
;TYPE=PLATED
T1F00S00C0.2540
T2F00S00C0.7112
T3F00S00C0.8500
T4F00S00C1.0160
T5F00S00C1.0200
T6F00S00C1.1000
T7F00S00C1.1500
T8F00S00C1.2000
;TYPE=NON_PLATED
T9F00S00C1.2500
T10F00S00C2.5500
%
T01
X00226314Y00492506
T02
X00829254Y00542492
X00711192Y00543524
X00651978Y0054307
X00278584Y00468174
T03
X0027188Y0008569
X0034808
X00341914Y00150878
Y00227078
X00162387Y00251426
Y00327626
X00434293Y00162575
X00510493
T04
X004139Y005123
Y005377
X004393
X004647
Y005123
X004393
X004901
Y005377
X005155
Y005123
X005409
Y005377
X005663
Y005123
X003885
X003631
X003377
X003123
X002869
X002615
X002361
X002107
X001853
X001599
X001345
X001091
X000837
Y005377
X001091
X001345
X001599
X001853
X002107
X002361
X002615
X002869
X003123
X003377
X003631
X003885
T05
X0009685Y00025587
X0012225
X0014765
X00191355
X00216755
X00242155
X00285859Y00025982
X00311259
X00336659
X00047353Y00240388
Y00265788
Y00291188
Y00316588
T06
X00050046Y00114872
Y00164872
X00067612Y00355975
Y00381375
X00024588Y00382223
Y00356823
X00131189Y00354421
Y00379821
X00404791Y00052871
X00454791
X00131189Y00405221
Y00430621
X00067612Y00432175
Y00406775
X00024588Y00407623
Y00433023
T07
X00139289Y0009455
Y0018455
T08
X00187808Y00122132
Y00147532
Y00172932
X00384907Y00163885
Y00189285
Y00214685
T09
X00068952Y00265788
T10
X00035Y00035
X00615
Y00525
X00035
M30
