G04*
G04 #@! TF.GenerationSoftware,Altium Limited,Altium Designer,22.7.1 (60)*
G04*
G04 Layer_Color=8388736*
%FSLAX44Y44*%
%MOMM*%
G71*
G04*
G04 #@! TF.SameCoordinates,D299D1DB-FC93-4E7D-A29F-8AC0059F7039*
G04*
G04*
G04 #@! TF.FilePolarity,Negative*
G04*
G01*
G75*
G04:AMPARAMS|DCode=16|XSize=2.1mm|YSize=2.1mm|CornerRadius=0.55mm|HoleSize=0mm|Usage=FLASHONLY|Rotation=0.000|XOffset=0mm|YOffset=0mm|HoleType=Round|Shape=RoundedRectangle|*
%AMROUNDEDRECTD16*
21,1,2.1000,1.0000,0,0,0.0*
21,1,1.0000,2.1000,0,0,0.0*
1,1,1.1000,0.5000,-0.5000*
1,1,1.1000,-0.5000,-0.5000*
1,1,1.1000,-0.5000,0.5000*
1,1,1.1000,0.5000,0.5000*
%
%ADD16ROUNDEDRECTD16*%
%ADD17C,1.7500*%
%ADD18R,1.7500X1.7500*%
%ADD19C,1.8500*%
%ADD20R,1.8500X1.8500*%
%ADD21C,1.7000*%
%ADD22R,1.7000X1.7000*%
%ADD23C,1.5000*%
%ADD24C,1.5240*%
%ADD25C,1.6500*%
%ADD26R,1.7000X1.7000*%
%ADD27C,1.2500*%
%ADD28C,1.5700*%
%ADD29R,1.5700X1.5700*%
%ADD30R,1.6500X1.6500*%
%ADD31C,5.1000*%
%ADD32C,0.6080*%
%ADD33C,1.3700*%
D16*
X682516Y542733D02*
D03*
X646044Y76373D02*
D03*
X646104Y485123D02*
D03*
X796653Y542029D02*
D03*
X834898Y484210D02*
D03*
X833583Y76707D02*
D03*
D17*
X139289Y94550D02*
D03*
D18*
Y184550D02*
D03*
D19*
X187808Y122132D02*
D03*
Y147532D02*
D03*
X384907Y163885D02*
D03*
Y189285D02*
D03*
D20*
X187808Y172932D02*
D03*
X384907Y214685D02*
D03*
D21*
X131189Y354421D02*
D03*
Y379821D02*
D03*
Y405221D02*
D03*
X24588Y382223D02*
D03*
X67612Y381375D02*
D03*
X50046Y164872D02*
D03*
X454791Y52871D02*
D03*
X67612Y355975D02*
D03*
Y406775D02*
D03*
X24588Y356823D02*
D03*
Y407623D02*
D03*
D22*
X131189Y430621D02*
D03*
X50046Y114872D02*
D03*
X67612Y432175D02*
D03*
X24588Y433023D02*
D03*
D23*
X341914Y227078D02*
D03*
Y150878D02*
D03*
X510493Y162575D02*
D03*
X434293D02*
D03*
X348080Y85690D02*
D03*
X162387Y327626D02*
D03*
Y251426D02*
D03*
X271880Y85690D02*
D03*
D24*
X159900Y512300D02*
D03*
X134500D02*
D03*
X464700Y537700D02*
D03*
X83700Y512300D02*
D03*
Y537700D02*
D03*
X109100Y512300D02*
D03*
Y537700D02*
D03*
X134500D02*
D03*
X159900D02*
D03*
X185300Y512300D02*
D03*
Y537700D02*
D03*
X210700Y512300D02*
D03*
Y537700D02*
D03*
X236100Y512300D02*
D03*
Y537700D02*
D03*
X261500Y512300D02*
D03*
Y537700D02*
D03*
X286900Y512300D02*
D03*
Y537700D02*
D03*
X312300Y512300D02*
D03*
Y537700D02*
D03*
X337700Y512300D02*
D03*
Y537700D02*
D03*
X363100Y512300D02*
D03*
Y537700D02*
D03*
X388500Y512300D02*
D03*
Y537700D02*
D03*
X413900Y512300D02*
D03*
Y537700D02*
D03*
X439300Y512300D02*
D03*
Y537700D02*
D03*
X464700Y512300D02*
D03*
X490100D02*
D03*
Y537700D02*
D03*
X515500Y512300D02*
D03*
Y537700D02*
D03*
X540900Y512300D02*
D03*
Y537700D02*
D03*
X566300Y512300D02*
D03*
Y537700D02*
D03*
D25*
X122250Y25587D02*
D03*
X216755D02*
D03*
X311259Y25982D02*
D03*
X285859D02*
D03*
X191355Y25587D02*
D03*
X96850D02*
D03*
D26*
X404791Y52871D02*
D03*
D27*
X68952Y265788D02*
D03*
D28*
X47353Y240388D02*
D03*
Y265788D02*
D03*
Y291188D02*
D03*
D29*
Y316588D02*
D03*
D30*
X336659Y25982D02*
D03*
X242155Y25587D02*
D03*
X147650D02*
D03*
D31*
X35000Y525000D02*
D03*
X615000Y35000D02*
D03*
X35000D02*
D03*
X615000Y525000D02*
D03*
D32*
X226314Y492506D02*
D03*
D33*
X711192Y543524D02*
D03*
X651978Y543070D02*
D03*
X829254Y542492D02*
D03*
X278584Y468174D02*
D03*
M02*
