G04*
G04 #@! TF.GenerationSoftware,Altium Limited,Altium Designer,22.7.1 (60)*
G04*
G04 Layer_Color=65535*
%FSLAX44Y44*%
%MOMM*%
G71*
G04*
G04 #@! TF.SameCoordinates,D299D1DB-FC93-4E7D-A29F-8AC0059F7039*
G04*
G04*
G04 #@! TF.FilePolarity,Positive*
G04*
G01*
G75*
%ADD10C,0.2500*%
%ADD11C,0.2000*%
%ADD12C,0.2540*%
%ADD13C,0.1524*%
%ADD14R,2.3600X0.6660*%
D10*
X196108Y202532D02*
G03*
X196108Y202532I-1250J0D01*
G01*
X393207Y244285D02*
G03*
X393207Y244285I-1250J0D01*
G01*
X48552Y336238D02*
G03*
X48552Y336238I-1250J0D01*
G01*
X3796Y114872D02*
G03*
X3796Y114872I-1250J0D01*
G01*
X406041Y100371D02*
G03*
X406041Y100371I-1250J0D01*
G01*
X357109Y25982D02*
G03*
X357109Y25982I-1250J0D01*
G01*
X262605Y25587D02*
G03*
X262605Y25587I-1250J0D01*
G01*
X168100D02*
G03*
X168100Y25587I-1250J0D01*
G01*
D11*
X127489Y162725D02*
X151089D01*
X127489Y116375D02*
Y162725D01*
Y116375D02*
X151089D01*
Y162725D01*
X172107Y102532D02*
Y192532D01*
Y102532D02*
X217607Y95532D01*
X172107Y192532D02*
X217607Y199532D01*
Y95532D02*
Y199532D01*
X117740Y340221D02*
X144640D01*
Y444821D01*
X117740D02*
X144640D01*
X117740Y340221D02*
Y444821D01*
X334295Y214378D02*
X341914D01*
X334295Y163578D02*
Y214378D01*
Y163578D02*
X349534D01*
Y214378D01*
X341914D02*
X349534D01*
X341914Y161292D02*
Y163578D01*
Y214378D02*
Y216664D01*
X369207Y144285D02*
Y234285D01*
Y144285D02*
X414707Y137285D01*
X369207Y234285D02*
X414707Y241285D01*
Y137285D02*
Y241285D01*
X497793Y162575D02*
Y170195D01*
X446993D02*
X497793D01*
X446993Y154955D02*
Y170195D01*
Y154955D02*
X497793D01*
Y162575D01*
X444707D02*
X446993D01*
X497793D02*
X500079D01*
X13352Y226488D02*
X73752D01*
Y330488D01*
X13352D02*
X73752D01*
X13352Y226488D02*
Y330488D01*
X9046Y83872D02*
X91046D01*
X9046D02*
Y189872D01*
X91046D01*
Y83872D02*
Y189872D01*
X154767Y314926D02*
X162387D01*
X154767Y264126D02*
Y314926D01*
Y264126D02*
X170007D01*
Y314926D01*
X162387D02*
X170007D01*
X162387Y261840D02*
Y264126D01*
Y314926D02*
Y317212D01*
X373791Y11870D02*
Y93871D01*
X479791D01*
Y11870D02*
Y93871D01*
X373791Y11870D02*
X479791D01*
X273159Y13532D02*
X349359D01*
X273159Y38432D02*
X349359D01*
Y13532D02*
Y38432D01*
X273159Y13532D02*
Y38432D01*
X178655Y13137D02*
X254855D01*
X178655Y38037D02*
X254855D01*
Y13137D02*
Y38037D01*
X178655Y13137D02*
Y38037D01*
X84150Y13137D02*
X160350D01*
X84150Y38037D02*
X160350D01*
Y13137D02*
Y38037D01*
X84150Y13137D02*
Y38037D01*
X335380Y85690D02*
Y93310D01*
X284580D02*
X335380D01*
X284580Y78070D02*
Y93310D01*
Y78070D02*
X335380D01*
Y85690D01*
X282294D02*
X284580D01*
X335380D02*
X337666D01*
X54162Y341775D02*
X81062D01*
Y446375D01*
X54162D02*
X81062D01*
X54162Y341775D02*
Y446375D01*
X11138Y342624D02*
X38038D01*
Y447223D01*
X11138D02*
X38038D01*
X11138Y342624D02*
Y447223D01*
D12*
X655990Y83857D02*
X827440D01*
X655990Y478827D02*
X827440D01*
Y83857D02*
Y478827D01*
X655990Y83857D02*
Y478827D01*
X635338Y63920D02*
X846158D01*
X635338Y495720D02*
X846158D01*
Y63920D02*
Y495720D01*
X635338Y63920D02*
Y495720D01*
X128778Y216911D02*
Y201676D01*
X136396D01*
X138935Y204215D01*
Y214372D01*
X136396Y216911D01*
X128778D01*
X144013Y201676D02*
X149091D01*
X146552D01*
Y216911D01*
X144013Y214372D01*
X182877Y215137D02*
Y225294D01*
X180338Y227833D01*
X175259D01*
X172720Y225294D01*
Y215137D01*
X175259Y212598D01*
X180338D01*
X177798Y217676D02*
X182877Y212598D01*
X180338D02*
X182877Y215137D01*
X187955Y212598D02*
X193033D01*
X190494D01*
Y227833D01*
X187955Y225294D01*
X118110Y469895D02*
X123188D01*
X120649D01*
Y454660D01*
X118110D01*
X123188D01*
X130806D02*
X135884D01*
X133345D01*
Y469895D01*
X130806Y467356D01*
X335788Y242316D02*
Y257551D01*
X343405D01*
X345945Y255012D01*
Y249933D01*
X343405Y247394D01*
X335788D01*
X340866D02*
X345945Y242316D01*
X351023D02*
X356101D01*
X353562D01*
Y257551D01*
X351023Y255012D01*
X379981Y257047D02*
Y267204D01*
X377441Y269743D01*
X372363D01*
X369824Y267204D01*
Y257047D01*
X372363Y254508D01*
X377441D01*
X374902Y259586D02*
X379981Y254508D01*
X377441D02*
X379981Y257047D01*
X395216Y254508D02*
X385059D01*
X395216Y264665D01*
Y267204D01*
X392677Y269743D01*
X387598D01*
X385059Y267204D01*
X429260Y178816D02*
Y194051D01*
X436878D01*
X439417Y191512D01*
Y186434D01*
X436878Y183894D01*
X429260D01*
X434338D02*
X439417Y178816D01*
X454652D02*
X444495D01*
X454652Y188973D01*
Y191512D01*
X452113Y194051D01*
X447034D01*
X444495Y191512D01*
X661286Y523363D02*
X671442D01*
X807908Y529058D02*
X818064D01*
X812986Y534137D02*
Y523980D01*
X809964Y467777D02*
X820121D01*
X815042Y472856D02*
Y462699D01*
X736184Y167654D02*
X751419D01*
Y175272D01*
X748880Y177811D01*
X746341D01*
X743802Y175272D01*
Y167654D01*
Y175272D01*
X741262Y177811D01*
X738723D01*
X736184Y175272D01*
Y167654D01*
X751419Y185428D02*
Y190507D01*
X748880Y193046D01*
X743802D01*
X741262Y190507D01*
Y185428D01*
X743802Y182889D01*
X748880D01*
X751419Y185428D01*
Y200663D02*
Y205742D01*
X748880Y208281D01*
X743802D01*
X741262Y205742D01*
Y200663D01*
X743802Y198124D01*
X748880D01*
X751419Y200663D01*
Y213359D02*
Y220977D01*
X748880Y223516D01*
X746341Y220977D01*
Y215898D01*
X743802Y213359D01*
X741262Y215898D01*
Y223516D01*
X738723Y231133D02*
X741262D01*
Y228594D01*
Y233673D01*
Y231133D01*
X748880D01*
X751419Y233673D01*
X738723Y266682D02*
X736184Y264143D01*
Y259065D01*
X738723Y256525D01*
X748880D01*
X751419Y259065D01*
Y264143D01*
X748880Y266682D01*
X751419Y274300D02*
Y279378D01*
X748880Y281917D01*
X743802D01*
X741262Y279378D01*
Y274300D01*
X743802Y271760D01*
X748880D01*
X751419Y274300D01*
Y286996D02*
X741262D01*
Y294613D01*
X743802Y297152D01*
X751419D01*
X741262Y302230D02*
X751419Y307309D01*
X741262Y312387D01*
X751419Y325083D02*
Y320005D01*
X748880Y317466D01*
X743802D01*
X741262Y320005D01*
Y325083D01*
X743802Y327622D01*
X746341D01*
Y317466D01*
X741262Y332701D02*
X751419D01*
X746341D01*
X743802Y335240D01*
X741262Y337779D01*
Y340318D01*
X738723Y350475D02*
X741262D01*
Y347936D01*
Y353014D01*
Y350475D01*
X748880D01*
X751419Y353014D01*
Y368249D02*
Y363171D01*
X748880Y360632D01*
X743802D01*
X741262Y363171D01*
Y368249D01*
X743802Y370788D01*
X746341D01*
Y360632D01*
X741262Y375867D02*
X751419D01*
X746341D01*
X743802Y378406D01*
X741262Y380945D01*
Y383484D01*
X94463Y361228D02*
X93296Y362394D01*
X90964D01*
X89797Y361228D01*
Y356563D01*
X90964Y355397D01*
X93296D01*
X94463Y356563D01*
Y358896D01*
X92130D01*
X96795Y355397D02*
Y362394D01*
X101460Y355397D01*
Y362394D01*
X103793D02*
Y355397D01*
X107292D01*
X108458Y356563D01*
Y361228D01*
X107292Y362394D01*
X103793D01*
X95086Y389293D02*
X93920Y390459D01*
X91587D01*
X90421Y389293D01*
Y388127D01*
X91587Y386960D01*
X93920D01*
X95086Y385794D01*
Y384628D01*
X93920Y383462D01*
X91587D01*
X90421Y384628D01*
X102084Y389293D02*
X100918Y390459D01*
X98585D01*
X97419Y389293D01*
Y384628D01*
X98585Y383462D01*
X100918D01*
X102084Y384628D01*
X104417Y390459D02*
Y383462D01*
X109082D01*
X95398Y413616D02*
X94232Y414782D01*
X91899D01*
X90733Y413616D01*
Y412450D01*
X91899Y411283D01*
X94232D01*
X95398Y410117D01*
Y408951D01*
X94232Y407784D01*
X91899D01*
X90733Y408951D01*
X97731Y414782D02*
Y407784D01*
X101230D01*
X102396Y408951D01*
Y413616D01*
X101230Y414782D01*
X97731D01*
X104728Y407784D02*
Y412450D01*
X107061Y414782D01*
X109394Y412450D01*
Y407784D01*
Y411283D01*
X104728D01*
X90733Y438793D02*
Y434128D01*
X93066Y431795D01*
X95398Y434128D01*
Y438793D01*
X102396Y437627D02*
X101230Y438793D01*
X98897D01*
X97731Y437627D01*
Y432962D01*
X98897Y431795D01*
X101230D01*
X102396Y432962D01*
X109394Y437627D02*
X108227Y438793D01*
X105895D01*
X104728Y437627D01*
Y432962D01*
X105895Y431795D01*
X108227D01*
X109394Y432962D01*
X400070Y430236D02*
Y445471D01*
X407687D01*
X410226Y442932D01*
Y437854D01*
X407687Y435315D01*
X400070D01*
X422922Y430236D02*
X417844D01*
X415305Y432775D01*
Y437854D01*
X417844Y440393D01*
X422922D01*
X425461Y437854D01*
Y435315D01*
X415305D01*
X430540Y440393D02*
Y430236D01*
Y435315D01*
X433079Y437854D01*
X435618Y440393D01*
X438157D01*
X448314Y430236D02*
Y442932D01*
Y437854D01*
X445775D01*
X450853D01*
X448314D01*
Y442932D01*
X450853Y445471D01*
X466088Y430236D02*
X461010D01*
X458471Y432775D01*
Y437854D01*
X461010Y440393D01*
X466088D01*
X468627Y437854D01*
Y435315D01*
X458471D01*
X483862Y440393D02*
X476245D01*
X473706Y437854D01*
Y432775D01*
X476245Y430236D01*
X483862D01*
X491480Y442932D02*
Y440393D01*
X488941D01*
X494019D01*
X491480D01*
Y432775D01*
X494019Y430236D01*
X516872D02*
Y445471D01*
X524489D01*
X527029Y442932D01*
Y437854D01*
X524489Y435315D01*
X516872D01*
X534646Y430236D02*
X539724D01*
X542264Y432775D01*
Y437854D01*
X539724Y440393D01*
X534646D01*
X532107Y437854D01*
Y432775D01*
X534646Y430236D01*
X547342Y440393D02*
Y432775D01*
X549881Y430236D01*
X557499D01*
Y440393D01*
X562577D02*
Y430236D01*
Y435315D01*
X565116Y437854D01*
X567655Y440393D01*
X570195D01*
X593047Y445471D02*
Y435315D01*
X598125Y430236D01*
X603204Y435315D01*
Y445471D01*
X608282Y430236D02*
X613361D01*
X610821D01*
Y445471D01*
X608282Y442932D01*
X662401Y92464D02*
X672558D01*
X662020Y469649D02*
X672177D01*
X690298Y515246D02*
X680141D01*
Y507628D01*
X685219Y510168D01*
X687758D01*
X690298Y507628D01*
Y502550D01*
X687758Y500011D01*
X682680D01*
X680141Y502550D01*
X695376Y515246D02*
Y505089D01*
X700454Y500011D01*
X705533Y505089D01*
Y515246D01*
X725846D02*
X730925D01*
X728385D01*
Y500011D01*
X725846D01*
X730925D01*
X738542D02*
Y515246D01*
X748699Y500011D01*
Y515246D01*
X753777Y500011D02*
Y515246D01*
X761395D01*
X763934Y512707D01*
Y507628D01*
X761395Y505089D01*
X753777D01*
X769012Y515246D02*
Y502550D01*
X771551Y500011D01*
X776630D01*
X779169Y502550D01*
Y515246D01*
X784247D02*
X794404D01*
X789326D01*
Y500011D01*
X2540Y213863D02*
Y203706D01*
X7618Y198628D01*
X12697Y203706D01*
Y213863D01*
X17775Y198628D02*
Y208785D01*
X22853Y213863D01*
X27932Y208785D01*
Y198628D01*
Y206245D01*
X17775D01*
X33010Y213863D02*
Y198628D01*
X43167D01*
X48245Y213863D02*
Y203706D01*
X53324Y198628D01*
X58402Y203706D01*
Y213863D01*
X73637D02*
X63480D01*
Y198628D01*
X73637D01*
X63480Y206245D02*
X68559D01*
X274574Y62479D02*
X284731D01*
X279652D01*
Y47244D01*
X299966Y62479D02*
X289809D01*
Y47244D01*
X299966D01*
X289809Y54861D02*
X294887D01*
X305044Y47244D02*
Y62479D01*
X310123Y57401D01*
X315201Y62479D01*
Y47244D01*
X320279D02*
Y62479D01*
X327897D01*
X330436Y59940D01*
Y54861D01*
X327897Y52322D01*
X320279D01*
X335514Y59940D02*
X338054Y62479D01*
X343132D01*
X345671Y59940D01*
Y57401D01*
X343132Y54861D01*
X340593D01*
X343132D01*
X345671Y52322D01*
Y49783D01*
X343132Y47244D01*
X338054D01*
X335514Y49783D01*
X179832Y62225D02*
X189989D01*
X184910D01*
Y46990D01*
X205224Y62225D02*
X195067D01*
Y46990D01*
X205224D01*
X195067Y54608D02*
X200145D01*
X210302Y46990D02*
Y62225D01*
X215380Y57147D01*
X220459Y62225D01*
Y46990D01*
X225537D02*
Y62225D01*
X233155D01*
X235694Y59686D01*
Y54608D01*
X233155Y52068D01*
X225537D01*
X250929Y46990D02*
X240772D01*
X250929Y57147D01*
Y59686D01*
X248390Y62225D01*
X243312D01*
X240772Y59686D01*
X85344Y62225D02*
X95501D01*
X90422D01*
Y46990D01*
X110736Y62225D02*
X100579D01*
Y46990D01*
X110736D01*
X100579Y54608D02*
X105657D01*
X115814Y46990D02*
Y62225D01*
X120892Y57147D01*
X125971Y62225D01*
Y46990D01*
X131049D02*
Y62225D01*
X138667D01*
X141206Y59686D01*
Y54608D01*
X138667Y52068D01*
X131049D01*
X146284Y46990D02*
X151363D01*
X148823D01*
Y62225D01*
X146284Y59686D01*
X266954Y101854D02*
Y117089D01*
X274571D01*
X277111Y114550D01*
Y109472D01*
X274571Y106932D01*
X266954D01*
X272032D02*
X277111Y101854D01*
X292346Y117089D02*
X282189D01*
Y109472D01*
X287267Y112011D01*
X289807D01*
X292346Y109472D01*
Y104393D01*
X289807Y101854D01*
X284728D01*
X282189Y104393D01*
X156210Y342646D02*
Y357881D01*
X163827D01*
X166367Y355342D01*
Y350263D01*
X163827Y347724D01*
X156210D01*
X161288D02*
X166367Y342646D01*
X179063D02*
Y357881D01*
X171445Y350263D01*
X181602D01*
X83867Y335053D02*
X99102D01*
Y327436D01*
X96563Y324897D01*
X91484D01*
X88945Y327436D01*
Y335053D01*
X83867Y319818D02*
X99102D01*
Y312201D01*
X96563Y309662D01*
X91484D01*
X88945Y312201D01*
Y319818D01*
Y314740D02*
X83867Y309662D01*
X99102Y296966D02*
Y302044D01*
X96563Y304583D01*
X86406D01*
X83867Y302044D01*
Y296966D01*
X86406Y294426D01*
X96563D01*
X99102Y296966D01*
Y289348D02*
X83867Y279191D01*
X99102D02*
X83867Y289348D01*
X99102Y274113D02*
Y269035D01*
Y271574D01*
X83867D01*
Y274113D01*
Y269035D01*
Y261417D02*
X99102D01*
X94024Y256339D01*
X99102Y251260D01*
X83867D01*
X99102Y246182D02*
Y241104D01*
Y243643D01*
X83867D01*
Y246182D01*
Y241104D01*
X99102Y233486D02*
Y223329D01*
Y228408D01*
X83867D01*
X99102Y218251D02*
X96563D01*
X91484Y213173D01*
X96563Y208094D01*
X99102D01*
X91484Y213173D02*
X83867D01*
X375158Y125725D02*
Y110490D01*
Y118108D01*
X385315D01*
Y125725D01*
Y110490D01*
X400550Y125725D02*
X390393D01*
Y110490D01*
X400550D01*
X390393Y118108D02*
X395471D01*
X405628Y110490D02*
Y120647D01*
X410706Y125725D01*
X415785Y120647D01*
Y110490D01*
Y118108D01*
X405628D01*
X420863Y125725D02*
X431020D01*
X425942D01*
Y110490D01*
X54483Y463878D02*
X57816D01*
X56150D01*
Y453881D01*
X54483D01*
X57816D01*
X69479D02*
X62814D01*
X69479Y460546D01*
Y462212D01*
X67812Y463878D01*
X64480D01*
X62814Y462212D01*
X79475D02*
X77809Y463878D01*
X74477D01*
X72811Y462212D01*
Y455547D01*
X74477Y453881D01*
X77809D01*
X79475Y455547D01*
X89472Y453881D02*
X82808D01*
X89472Y460546D01*
Y462212D01*
X87806Y463878D01*
X84474D01*
X82808Y462212D01*
X11430Y467197D02*
X14762D01*
X13096D01*
Y457200D01*
X11430D01*
X14762D01*
X26425D02*
X19761D01*
X26425Y463865D01*
Y465531D01*
X24759Y467197D01*
X21427D01*
X19761Y465531D01*
X36422D02*
X34756Y467197D01*
X31424D01*
X29757Y465531D01*
Y458866D01*
X31424Y457200D01*
X34756D01*
X36422Y458866D01*
X39754Y457200D02*
X43087D01*
X41420D01*
Y467197D01*
X39754Y465531D01*
X290436Y492289D02*
X288770Y493955D01*
X285438D01*
X283772Y492289D01*
Y485625D01*
X285438Y483958D01*
X288770D01*
X290436Y485625D01*
Y488957D01*
X287104D01*
X293769Y483958D02*
Y493955D01*
X298767D01*
X300433Y492289D01*
Y488957D01*
X298767Y487291D01*
X293769D01*
X303765Y493955D02*
X307097D01*
X305431D01*
Y483958D01*
X303765D01*
X307097D01*
X317094Y493955D02*
X313762D01*
X312096Y492289D01*
Y485625D01*
X313762Y483958D01*
X317094D01*
X318760Y485625D01*
Y492289D01*
X317094Y493955D01*
D13*
X68460Y498711D02*
X581540D01*
Y551289D01*
X68460D02*
X581540D01*
X68460Y498711D02*
Y551289D01*
D14*
X139286Y119711D02*
D03*
M02*
