G04*
G04 #@! TF.GenerationSoftware,Altium Limited,Altium Designer,22.7.1 (60)*
G04*
G04 Layer_Color=8388736*
%FSLAX44Y44*%
%MOMM*%
G71*
G04*
G04 #@! TF.SameCoordinates,D299D1DB-FC93-4E7D-A29F-8AC0059F7039*
G04*
G04*
G04 #@! TF.FilePolarity,Positive*
G04*
G01*
G75*
%ADD11C,0.2000*%
G36*
X204755Y146144D02*
X203969D01*
Y151146D01*
X203964Y151141D01*
X203955Y151132D01*
X203941Y151118D01*
X203918Y151100D01*
X203890Y151077D01*
X203853Y151044D01*
X203812Y151012D01*
X203770Y150975D01*
X203715Y150938D01*
X203659Y150892D01*
X203599Y150850D01*
X203535Y150799D01*
X203461Y150753D01*
X203387Y150702D01*
X203220Y150601D01*
X203216Y150596D01*
X203202Y150587D01*
X203174Y150573D01*
X203142Y150559D01*
X203105Y150536D01*
X203058Y150508D01*
X203003Y150480D01*
X202947Y150448D01*
X202818Y150383D01*
X202679Y150318D01*
X202536Y150254D01*
X202397Y150198D01*
Y150956D01*
X202407Y150961D01*
X202425Y150970D01*
X202462Y150989D01*
X202508Y151012D01*
X202564Y151040D01*
X202633Y151077D01*
X202707Y151118D01*
X202786Y151165D01*
X202873Y151220D01*
X202966Y151275D01*
X203160Y151405D01*
X203359Y151548D01*
X203548Y151705D01*
X203553Y151710D01*
X203571Y151724D01*
X203595Y151747D01*
X203627Y151779D01*
X203669Y151821D01*
X203715Y151867D01*
X203766Y151923D01*
X203821Y151978D01*
X203877Y152043D01*
X203937Y152112D01*
X204052Y152255D01*
X204159Y152408D01*
X204205Y152487D01*
X204246Y152565D01*
X204755D01*
Y146144D01*
D02*
G37*
G36*
X198006Y152648D02*
X198066D01*
X198144Y152639D01*
X198237Y152630D01*
X198339Y152616D01*
X198449Y152602D01*
X198570Y152579D01*
X198699Y152551D01*
X198833Y152514D01*
X198967Y152477D01*
X199106Y152427D01*
X199244Y152371D01*
X199383Y152306D01*
X199517Y152232D01*
X199527Y152228D01*
X199550Y152214D01*
X199587Y152191D01*
X199633Y152154D01*
X199693Y152112D01*
X199762Y152061D01*
X199836Y151997D01*
X199919Y151927D01*
X200007Y151849D01*
X200095Y151761D01*
X200188Y151664D01*
X200275Y151557D01*
X200363Y151442D01*
X200451Y151322D01*
X200530Y151192D01*
X200604Y151053D01*
X200608Y151044D01*
X200622Y151021D01*
X200641Y150980D01*
X200664Y150920D01*
X200692Y150850D01*
X200724Y150762D01*
X200756Y150665D01*
X200793Y150554D01*
X200826Y150434D01*
X200858Y150305D01*
X200890Y150161D01*
X200918Y150013D01*
X200946Y149856D01*
X200964Y149694D01*
X200973Y149523D01*
X200978Y149348D01*
Y149339D01*
Y149311D01*
Y149269D01*
X200973Y149214D01*
X200969Y149144D01*
X200964Y149066D01*
X200960Y148973D01*
X200950Y148872D01*
X200937Y148765D01*
X200918Y148654D01*
X200900Y148534D01*
X200876Y148414D01*
X200849Y148289D01*
X200816Y148169D01*
X200779Y148044D01*
X200738Y147924D01*
X200733Y147915D01*
X200728Y147896D01*
X200715Y147864D01*
X200692Y147818D01*
X200668Y147762D01*
X200636Y147702D01*
X200599Y147628D01*
X200557Y147554D01*
X200507Y147471D01*
X200456Y147383D01*
X200396Y147291D01*
X200331Y147198D01*
X200262Y147106D01*
X200183Y147013D01*
X200100Y146921D01*
X200012Y146833D01*
X200016Y146828D01*
X200040Y146814D01*
X200067Y146796D01*
X200114Y146768D01*
X200165Y146731D01*
X200225Y146694D01*
X200294Y146653D01*
X200368Y146606D01*
X200451Y146560D01*
X200534Y146509D01*
X200719Y146408D01*
X200909Y146315D01*
X201006Y146274D01*
X201098Y146237D01*
X200849Y145649D01*
X200839Y145654D01*
X200816Y145663D01*
X200779Y145677D01*
X200728Y145696D01*
X200668Y145723D01*
X200594Y145756D01*
X200511Y145797D01*
X200419Y145839D01*
X200317Y145894D01*
X200211Y145950D01*
X200095Y146015D01*
X199980Y146084D01*
X199855Y146163D01*
X199730Y146246D01*
X199605Y146334D01*
X199476Y146431D01*
X199466Y146426D01*
X199443Y146412D01*
X199406Y146394D01*
X199351Y146371D01*
X199286Y146338D01*
X199203Y146306D01*
X199115Y146269D01*
X199013Y146237D01*
X198902Y146200D01*
X198778Y146163D01*
X198648Y146130D01*
X198514Y146098D01*
X198366Y146075D01*
X198218Y146056D01*
X198066Y146042D01*
X197904Y146038D01*
X197867D01*
X197821Y146042D01*
X197756D01*
X197682Y146052D01*
X197590Y146061D01*
X197493Y146075D01*
X197381Y146089D01*
X197261Y146112D01*
X197136Y146139D01*
X197007Y146172D01*
X196873Y146214D01*
X196734Y146260D01*
X196600Y146315D01*
X196462Y146380D01*
X196327Y146454D01*
X196318Y146459D01*
X196295Y146472D01*
X196258Y146500D01*
X196212Y146532D01*
X196152Y146574D01*
X196082Y146625D01*
X196009Y146690D01*
X195925Y146759D01*
X195837Y146838D01*
X195750Y146925D01*
X195662Y147022D01*
X195569Y147129D01*
X195482Y147244D01*
X195394Y147365D01*
X195310Y147494D01*
X195237Y147633D01*
X195232Y147642D01*
X195223Y147665D01*
X195200Y147711D01*
X195177Y147767D01*
X195149Y147836D01*
X195116Y147924D01*
X195084Y148021D01*
X195047Y148132D01*
X195010Y148252D01*
X194978Y148382D01*
X194945Y148525D01*
X194918Y148673D01*
X194895Y148830D01*
X194876Y148996D01*
X194862Y149167D01*
X194858Y149343D01*
Y149348D01*
Y149352D01*
Y149366D01*
Y149385D01*
Y149408D01*
X194862Y149436D01*
Y149505D01*
X194871Y149584D01*
X194876Y149681D01*
X194890Y149791D01*
X194904Y149912D01*
X194927Y150041D01*
X194950Y150180D01*
X194982Y150318D01*
X195019Y150466D01*
X195065Y150614D01*
X195116Y150767D01*
X195172Y150915D01*
X195241Y151063D01*
X195246Y151072D01*
X195260Y151095D01*
X195283Y151137D01*
X195310Y151192D01*
X195352Y151257D01*
X195398Y151331D01*
X195459Y151414D01*
X195523Y151502D01*
X195597Y151594D01*
X195676Y151692D01*
X195764Y151793D01*
X195865Y151890D01*
X195967Y151987D01*
X196082Y152080D01*
X196203Y152168D01*
X196332Y152246D01*
X196341Y152251D01*
X196364Y152265D01*
X196402Y152283D01*
X196457Y152311D01*
X196526Y152339D01*
X196605Y152376D01*
X196693Y152413D01*
X196799Y152450D01*
X196910Y152487D01*
X197030Y152524D01*
X197164Y152561D01*
X197303Y152588D01*
X197446Y152616D01*
X197599Y152634D01*
X197756Y152648D01*
X197918Y152653D01*
X197959D01*
X198006Y152648D01*
D02*
G37*
G36*
X401105Y194314D02*
X401170Y194309D01*
X401249Y194305D01*
X401337Y194291D01*
X401438Y194277D01*
X401545Y194254D01*
X401660Y194226D01*
X401776Y194193D01*
X401900Y194152D01*
X402021Y194101D01*
X402141Y194041D01*
X402257Y193976D01*
X402367Y193898D01*
X402474Y193805D01*
X402478Y193801D01*
X402497Y193782D01*
X402525Y193754D01*
X402557Y193713D01*
X402599Y193666D01*
X402645Y193606D01*
X402696Y193537D01*
X402747Y193458D01*
X402793Y193371D01*
X402844Y193274D01*
X402890Y193167D01*
X402931Y193056D01*
X402964Y192936D01*
X402991Y192811D01*
X403010Y192677D01*
X403015Y192539D01*
Y192534D01*
Y192520D01*
Y192502D01*
Y192474D01*
X403010Y192437D01*
X403005Y192400D01*
X403001Y192354D01*
X402996Y192303D01*
X402978Y192187D01*
X402950Y192058D01*
X402908Y191924D01*
X402857Y191785D01*
Y191780D01*
X402848Y191766D01*
X402839Y191748D01*
X402825Y191720D01*
X402811Y191688D01*
X402788Y191646D01*
X402765Y191600D01*
X402733Y191549D01*
X402700Y191494D01*
X402663Y191434D01*
X402571Y191300D01*
X402520Y191230D01*
X402464Y191156D01*
X402400Y191082D01*
X402335Y191004D01*
X402330Y190999D01*
X402317Y190985D01*
X402298Y190962D01*
X402266Y190930D01*
X402224Y190888D01*
X402173Y190837D01*
X402118Y190777D01*
X402048Y190708D01*
X401970Y190634D01*
X401877Y190551D01*
X401780Y190458D01*
X401669Y190357D01*
X401549Y190250D01*
X401420Y190135D01*
X401276Y190010D01*
X401124Y189880D01*
X401115Y189876D01*
X401091Y189853D01*
X401059Y189825D01*
X401013Y189783D01*
X400953Y189737D01*
X400893Y189682D01*
X400823Y189622D01*
X400749Y189557D01*
X400592Y189423D01*
X400518Y189353D01*
X400444Y189289D01*
X400375Y189224D01*
X400315Y189168D01*
X400259Y189118D01*
X400218Y189072D01*
X400209Y189062D01*
X400186Y189035D01*
X400149Y188993D01*
X400102Y188942D01*
X400051Y188877D01*
X399996Y188808D01*
X399940Y188729D01*
X399890Y188651D01*
X403024D01*
Y187897D01*
X398799D01*
Y187902D01*
Y187911D01*
Y187925D01*
Y187943D01*
Y187971D01*
X398803Y187999D01*
X398808Y188073D01*
X398817Y188151D01*
X398831Y188244D01*
X398854Y188341D01*
X398886Y188438D01*
Y188443D01*
X398896Y188457D01*
X398905Y188480D01*
X398919Y188512D01*
X398933Y188554D01*
X398956Y188600D01*
X398983Y188651D01*
X399011Y188706D01*
X399044Y188771D01*
X399085Y188836D01*
X399173Y188979D01*
X399279Y189132D01*
X399404Y189289D01*
X399409Y189293D01*
X399423Y189307D01*
X399441Y189330D01*
X399469Y189363D01*
X399506Y189404D01*
X399552Y189450D01*
X399603Y189506D01*
X399668Y189566D01*
X399737Y189635D01*
X399811Y189709D01*
X399894Y189788D01*
X399987Y189876D01*
X400088Y189964D01*
X400195Y190056D01*
X400310Y190153D01*
X400430Y190255D01*
X400435Y190259D01*
X400444Y190264D01*
X400458Y190278D01*
X400477Y190292D01*
X400500Y190315D01*
X400527Y190338D01*
X400597Y190398D01*
X400685Y190467D01*
X400777Y190555D01*
X400883Y190648D01*
X400994Y190749D01*
X401115Y190856D01*
X401230Y190967D01*
X401350Y191078D01*
X401461Y191193D01*
X401572Y191304D01*
X401669Y191411D01*
X401762Y191517D01*
X401836Y191614D01*
X401840Y191619D01*
X401850Y191637D01*
X401868Y191665D01*
X401896Y191697D01*
X401924Y191743D01*
X401951Y191794D01*
X401988Y191854D01*
X402021Y191919D01*
X402053Y191988D01*
X402090Y192062D01*
X402150Y192224D01*
X402173Y192307D01*
X402192Y192391D01*
X402201Y192474D01*
X402206Y192557D01*
Y192562D01*
Y192580D01*
Y192603D01*
X402201Y192636D01*
X402196Y192677D01*
X402187Y192724D01*
X402178Y192774D01*
X402164Y192830D01*
X402146Y192890D01*
X402122Y192955D01*
X402095Y193019D01*
X402062Y193084D01*
X402025Y193153D01*
X401979Y193218D01*
X401928Y193283D01*
X401868Y193343D01*
X401864Y193347D01*
X401854Y193357D01*
X401836Y193371D01*
X401808Y193394D01*
X401776Y193417D01*
X401734Y193445D01*
X401688Y193477D01*
X401637Y193505D01*
X401577Y193537D01*
X401512Y193565D01*
X401438Y193593D01*
X401364Y193616D01*
X401281Y193639D01*
X401193Y193653D01*
X401101Y193662D01*
X401004Y193666D01*
X400948D01*
X400911Y193662D01*
X400860Y193657D01*
X400805Y193648D01*
X400745Y193639D01*
X400676Y193625D01*
X400606Y193606D01*
X400532Y193583D01*
X400458Y193556D01*
X400380Y193523D01*
X400306Y193482D01*
X400232Y193435D01*
X400158Y193384D01*
X400093Y193324D01*
X400088Y193320D01*
X400079Y193311D01*
X400061Y193287D01*
X400042Y193264D01*
X400014Y193227D01*
X399987Y193186D01*
X399954Y193135D01*
X399927Y193079D01*
X399894Y193019D01*
X399862Y192945D01*
X399834Y192871D01*
X399806Y192788D01*
X399788Y192696D01*
X399769Y192599D01*
X399760Y192497D01*
X399756Y192386D01*
X398946Y192469D01*
Y192474D01*
Y192479D01*
X398951Y192492D01*
Y192511D01*
X398956Y192557D01*
X398970Y192617D01*
X398983Y192691D01*
X399002Y192779D01*
X399025Y192876D01*
X399053Y192978D01*
X399090Y193089D01*
X399132Y193200D01*
X399182Y193315D01*
X399242Y193431D01*
X399307Y193542D01*
X399386Y193648D01*
X399469Y193750D01*
X399566Y193842D01*
X399571Y193847D01*
X399589Y193861D01*
X399622Y193888D01*
X399663Y193916D01*
X399719Y193953D01*
X399783Y193995D01*
X399862Y194036D01*
X399950Y194083D01*
X400051Y194124D01*
X400158Y194166D01*
X400278Y194207D01*
X400407Y194244D01*
X400546Y194277D01*
X400694Y194300D01*
X400851Y194314D01*
X401018Y194318D01*
X401059D01*
X401105Y194314D01*
D02*
G37*
G36*
X395105Y194401D02*
X395165D01*
X395244Y194392D01*
X395336Y194383D01*
X395438Y194369D01*
X395549Y194355D01*
X395669Y194332D01*
X395798Y194305D01*
X395933Y194268D01*
X396067Y194230D01*
X396205Y194180D01*
X396344Y194124D01*
X396483Y194060D01*
X396617Y193986D01*
X396626Y193981D01*
X396649Y193967D01*
X396686Y193944D01*
X396732Y193907D01*
X396792Y193865D01*
X396862Y193814D01*
X396936Y193750D01*
X397019Y193680D01*
X397107Y193602D01*
X397195Y193514D01*
X397287Y193417D01*
X397375Y193311D01*
X397463Y193195D01*
X397551Y193075D01*
X397629Y192945D01*
X397703Y192807D01*
X397708Y192797D01*
X397721Y192774D01*
X397740Y192733D01*
X397763Y192673D01*
X397791Y192603D01*
X397823Y192515D01*
X397856Y192418D01*
X397892Y192307D01*
X397925Y192187D01*
X397957Y192058D01*
X397990Y191915D01*
X398017Y191766D01*
X398045Y191609D01*
X398064Y191448D01*
X398073Y191276D01*
X398078Y191101D01*
Y191092D01*
Y191064D01*
Y191022D01*
X398073Y190967D01*
X398068Y190898D01*
X398064Y190819D01*
X398059Y190726D01*
X398050Y190625D01*
X398036Y190518D01*
X398017Y190407D01*
X397999Y190287D01*
X397976Y190167D01*
X397948Y190042D01*
X397916Y189922D01*
X397879Y189797D01*
X397837Y189677D01*
X397832Y189668D01*
X397828Y189649D01*
X397814Y189617D01*
X397791Y189571D01*
X397768Y189515D01*
X397735Y189455D01*
X397698Y189381D01*
X397657Y189307D01*
X397606Y189224D01*
X397555Y189136D01*
X397495Y189044D01*
X397430Y188951D01*
X397361Y188859D01*
X397282Y188766D01*
X397199Y188674D01*
X397111Y188586D01*
X397116Y188581D01*
X397139Y188568D01*
X397167Y188549D01*
X397213Y188521D01*
X397264Y188484D01*
X397324Y188447D01*
X397393Y188406D01*
X397467Y188360D01*
X397551Y188313D01*
X397634Y188263D01*
X397819Y188161D01*
X398008Y188068D01*
X398105Y188027D01*
X398198Y187990D01*
X397948Y187403D01*
X397939Y187407D01*
X397916Y187416D01*
X397879Y187430D01*
X397828Y187449D01*
X397768Y187477D01*
X397694Y187509D01*
X397611Y187551D01*
X397518Y187592D01*
X397416Y187648D01*
X397310Y187703D01*
X397195Y187768D01*
X397079Y187837D01*
X396954Y187916D01*
X396829Y187999D01*
X396704Y188087D01*
X396575Y188184D01*
X396566Y188179D01*
X396543Y188165D01*
X396506Y188147D01*
X396450Y188124D01*
X396385Y188091D01*
X396302Y188059D01*
X396214Y188022D01*
X396113Y187990D01*
X396002Y187953D01*
X395877Y187916D01*
X395748Y187883D01*
X395614Y187851D01*
X395466Y187828D01*
X395318Y187809D01*
X395165Y187796D01*
X395003Y187791D01*
X394966D01*
X394920Y187796D01*
X394855D01*
X394781Y187805D01*
X394689Y187814D01*
X394592Y187828D01*
X394481Y187842D01*
X394361Y187865D01*
X394236Y187893D01*
X394106Y187925D01*
X393972Y187967D01*
X393834Y188013D01*
X393700Y188068D01*
X393561Y188133D01*
X393427Y188207D01*
X393418Y188212D01*
X393395Y188225D01*
X393358Y188253D01*
X393311Y188286D01*
X393251Y188327D01*
X393182Y188378D01*
X393108Y188443D01*
X393025Y188512D01*
X392937Y188591D01*
X392849Y188678D01*
X392761Y188776D01*
X392669Y188882D01*
X392581Y188997D01*
X392493Y189118D01*
X392410Y189247D01*
X392336Y189386D01*
X392331Y189395D01*
X392322Y189418D01*
X392299Y189464D01*
X392276Y189520D01*
X392248Y189589D01*
X392216Y189677D01*
X392183Y189774D01*
X392146Y189885D01*
X392109Y190005D01*
X392077Y190135D01*
X392045Y190278D01*
X392017Y190426D01*
X391994Y190583D01*
X391975Y190749D01*
X391962Y190921D01*
X391957Y191096D01*
Y191101D01*
Y191105D01*
Y191119D01*
Y191138D01*
Y191161D01*
X391962Y191189D01*
Y191258D01*
X391971Y191337D01*
X391975Y191434D01*
X391989Y191545D01*
X392003Y191665D01*
X392026Y191794D01*
X392049Y191933D01*
X392082Y192072D01*
X392119Y192220D01*
X392165Y192367D01*
X392216Y192520D01*
X392271Y192668D01*
X392341Y192816D01*
X392345Y192825D01*
X392359Y192848D01*
X392382Y192890D01*
X392410Y192945D01*
X392452Y193010D01*
X392498Y193084D01*
X392558Y193167D01*
X392623Y193255D01*
X392696Y193347D01*
X392775Y193445D01*
X392863Y193546D01*
X392965Y193643D01*
X393066Y193741D01*
X393182Y193833D01*
X393302Y193921D01*
X393432Y193999D01*
X393441Y194004D01*
X393464Y194018D01*
X393501Y194036D01*
X393556Y194064D01*
X393626Y194092D01*
X393704Y194129D01*
X393792Y194166D01*
X393899Y194203D01*
X394009Y194240D01*
X394130Y194277D01*
X394264Y194314D01*
X394402Y194341D01*
X394546Y194369D01*
X394698Y194388D01*
X394855Y194401D01*
X395017Y194406D01*
X395059D01*
X395105Y194401D01*
D02*
G37*
G36*
X41462Y324323D02*
X44171D01*
Y323477D01*
X41462D01*
X37773Y321013D01*
Y322044D01*
X39706Y323301D01*
X39710Y323306D01*
X39729Y323315D01*
X39761Y323338D01*
X39798Y323361D01*
X39849Y323394D01*
X39904Y323431D01*
X39969Y323472D01*
X40043Y323519D01*
X40122Y323565D01*
X40205Y323616D01*
X40297Y323671D01*
X40390Y323727D01*
X40584Y323842D01*
X40783Y323953D01*
X40778Y323958D01*
X40760Y323967D01*
X40732Y323981D01*
X40695Y324004D01*
X40649Y324032D01*
X40593Y324069D01*
X40528Y324106D01*
X40455Y324152D01*
X40376Y324198D01*
X40293Y324254D01*
X40200Y324309D01*
X40099Y324369D01*
X39997Y324434D01*
X39886Y324503D01*
X39659Y324651D01*
X37773Y325890D01*
Y326875D01*
X41462Y324323D01*
D02*
G37*
G36*
X38527Y318692D02*
X44171D01*
Y317846D01*
X38527D01*
Y315738D01*
X37773D01*
Y320810D01*
X38527D01*
Y318692D01*
D02*
G37*
G36*
X44171Y313880D02*
X37773D01*
Y314726D01*
X44171D01*
Y313880D01*
D02*
G37*
G36*
Y311559D02*
X38818D01*
X44171Y309696D01*
Y308929D01*
X38726Y307085D01*
X44171D01*
Y306266D01*
X37773D01*
Y307537D01*
X42304Y309054D01*
X42313Y309058D01*
X42331Y309063D01*
X42364Y309072D01*
X42405Y309086D01*
X42461Y309105D01*
X42521Y309123D01*
X42586Y309146D01*
X42660Y309169D01*
X42812Y309220D01*
X42969Y309271D01*
X43048Y309294D01*
X43122Y309317D01*
X43187Y309340D01*
X43251Y309359D01*
X43247D01*
X43233Y309363D01*
X43214Y309373D01*
X43187Y309382D01*
X43150Y309391D01*
X43103Y309405D01*
X43053Y309424D01*
X42992Y309442D01*
X42923Y309465D01*
X42849Y309493D01*
X42766Y309521D01*
X42674Y309548D01*
X42572Y309585D01*
X42465Y309618D01*
X42350Y309659D01*
X42225Y309701D01*
X37773Y311236D01*
Y312378D01*
X44171D01*
Y311559D01*
D02*
G37*
G36*
Y303955D02*
X37773D01*
Y304801D01*
X44171D01*
Y303955D01*
D02*
G37*
G36*
Y302018D02*
X41892Y300405D01*
X41883Y300400D01*
X41860Y300381D01*
X41818Y300354D01*
X41772Y300321D01*
X41712Y300280D01*
X41647Y300238D01*
X41504Y300141D01*
X41508D01*
X41518Y300132D01*
X41536Y300123D01*
X41555Y300109D01*
X41615Y300072D01*
X41680Y300026D01*
X41758Y299975D01*
X41832Y299928D01*
X41901Y299882D01*
X41957Y299841D01*
X44171Y298218D01*
Y297201D01*
X40857Y299674D01*
X37773Y297492D01*
Y298505D01*
X39410Y299669D01*
X39414Y299674D01*
X39433Y299683D01*
X39461Y299706D01*
X39493Y299730D01*
X39535Y299757D01*
X39585Y299794D01*
X39641Y299831D01*
X39696Y299873D01*
X39826Y299956D01*
X39955Y300039D01*
X40080Y300118D01*
X40140Y300155D01*
X40196Y300183D01*
X40191Y300187D01*
X40182Y300192D01*
X40163Y300206D01*
X40136Y300220D01*
X40108Y300243D01*
X40071Y300266D01*
X40025Y300294D01*
X39978Y300326D01*
X39872Y300400D01*
X39752Y300483D01*
X39618Y300580D01*
X39479Y300686D01*
X37773Y301967D01*
Y302892D01*
X40815Y300673D01*
X44171Y303067D01*
Y302018D01*
D02*
G37*
G36*
X41079Y296757D02*
X41148D01*
X41231Y296748D01*
X41328Y296743D01*
X41444Y296729D01*
X41564Y296711D01*
X41698Y296692D01*
X41837Y296665D01*
X41980Y296632D01*
X42128Y296595D01*
X42281Y296549D01*
X42428Y296498D01*
X42576Y296438D01*
X42724Y296369D01*
X42734Y296364D01*
X42757Y296350D01*
X42798Y296327D01*
X42849Y296295D01*
X42914Y296258D01*
X42988Y296207D01*
X43071Y296147D01*
X43159Y296082D01*
X43251Y296008D01*
X43344Y295925D01*
X43441Y295833D01*
X43538Y295735D01*
X43630Y295625D01*
X43723Y295509D01*
X43806Y295384D01*
X43885Y295255D01*
X43889Y295245D01*
X43903Y295222D01*
X43922Y295181D01*
X43945Y295130D01*
X43977Y295061D01*
X44009Y294982D01*
X44046Y294894D01*
X44079Y294792D01*
X44116Y294677D01*
X44153Y294557D01*
X44185Y294432D01*
X44218Y294293D01*
X44241Y294154D01*
X44259Y294007D01*
X44273Y293854D01*
X44278Y293701D01*
Y293660D01*
X44273Y293614D01*
X44268Y293549D01*
X44264Y293470D01*
X44254Y293378D01*
X44241Y293272D01*
X44222Y293161D01*
X44199Y293036D01*
X44171Y292906D01*
X44134Y292772D01*
X44093Y292638D01*
X44046Y292500D01*
X43986Y292356D01*
X43922Y292218D01*
X43843Y292083D01*
X43838Y292074D01*
X43825Y292051D01*
X43797Y292014D01*
X43765Y291968D01*
X43718Y291908D01*
X43667Y291838D01*
X43603Y291765D01*
X43533Y291681D01*
X43450Y291598D01*
X43362Y291506D01*
X43265Y291418D01*
X43159Y291330D01*
X43043Y291242D01*
X42923Y291159D01*
X42794Y291080D01*
X42655Y291006D01*
X42646Y291002D01*
X42623Y290993D01*
X42581Y290974D01*
X42521Y290951D01*
X42452Y290923D01*
X42368Y290891D01*
X42276Y290858D01*
X42170Y290826D01*
X42054Y290789D01*
X41929Y290757D01*
X41800Y290724D01*
X41661Y290697D01*
X41513Y290674D01*
X41365Y290655D01*
X41213Y290646D01*
X41055Y290641D01*
X41051D01*
X41037D01*
X41014D01*
X40986D01*
X40949Y290646D01*
X40903D01*
X40852Y290650D01*
X40792Y290655D01*
X40727Y290660D01*
X40658Y290669D01*
X40584Y290678D01*
X40505Y290687D01*
X40334Y290715D01*
X40149Y290748D01*
X39951Y290794D01*
X39747Y290849D01*
X39539Y290919D01*
X39331Y291002D01*
X39128Y291099D01*
X38929Y291214D01*
X38832Y291279D01*
X38740Y291344D01*
X38652Y291418D01*
X38564Y291496D01*
X38559Y291501D01*
X38555Y291506D01*
X38541Y291520D01*
X38527Y291538D01*
X38504Y291556D01*
X38481Y291584D01*
X38421Y291654D01*
X38356Y291737D01*
X38277Y291838D01*
X38199Y291959D01*
X38111Y292093D01*
X38028Y292245D01*
X37949Y292412D01*
X37870Y292592D01*
X37801Y292786D01*
X37746Y292999D01*
X37699Y293221D01*
X37685Y293336D01*
X37672Y293456D01*
X37667Y293577D01*
X37662Y293701D01*
Y293743D01*
X37667Y293789D01*
Y293849D01*
X37676Y293928D01*
X37685Y294021D01*
X37699Y294122D01*
X37713Y294233D01*
X37736Y294353D01*
X37764Y294483D01*
X37801Y294617D01*
X37843Y294751D01*
X37889Y294890D01*
X37949Y295028D01*
X38014Y295167D01*
X38088Y295301D01*
X38092Y295310D01*
X38106Y295333D01*
X38129Y295370D01*
X38166Y295417D01*
X38208Y295477D01*
X38259Y295546D01*
X38323Y295620D01*
X38393Y295703D01*
X38471Y295791D01*
X38559Y295879D01*
X38656Y295971D01*
X38763Y296059D01*
X38878Y296147D01*
X38998Y296235D01*
X39128Y296313D01*
X39267Y296387D01*
X39276Y296392D01*
X39299Y296406D01*
X39340Y296424D01*
X39400Y296447D01*
X39470Y296475D01*
X39558Y296507D01*
X39655Y296540D01*
X39766Y296577D01*
X39886Y296609D01*
X40020Y296642D01*
X40159Y296674D01*
X40311Y296702D01*
X40468Y296729D01*
X40635Y296748D01*
X40806Y296757D01*
X40981Y296762D01*
X40986D01*
X40991D01*
X41005D01*
X41023D01*
X41046D01*
X41079Y296757D01*
D02*
G37*
G36*
X44171Y289028D02*
X42840Y288182D01*
X42835Y288177D01*
X42817Y288163D01*
X42784Y288145D01*
X42747Y288122D01*
X42697Y288089D01*
X42641Y288052D01*
X42581Y288011D01*
X42516Y287969D01*
X42373Y287872D01*
X42225Y287770D01*
X42086Y287669D01*
X42022Y287618D01*
X41962Y287572D01*
X41957Y287567D01*
X41948Y287562D01*
X41934Y287549D01*
X41911Y287530D01*
X41855Y287484D01*
X41790Y287428D01*
X41721Y287359D01*
X41647Y287290D01*
X41582Y287216D01*
X41532Y287142D01*
X41527Y287132D01*
X41513Y287109D01*
X41490Y287072D01*
X41467Y287022D01*
X41439Y286966D01*
X41407Y286901D01*
X41384Y286832D01*
X41361Y286758D01*
Y286753D01*
X41356Y286730D01*
X41351Y286693D01*
X41342Y286647D01*
X41337Y286582D01*
X41333Y286499D01*
X41328Y286402D01*
Y285306D01*
X44171D01*
Y284461D01*
X37773D01*
Y287377D01*
X37778Y287433D01*
Y287507D01*
X37783Y287590D01*
X37787Y287678D01*
X37796Y287780D01*
X37806Y287881D01*
X37815Y287988D01*
X37847Y288205D01*
X37866Y288307D01*
X37889Y288408D01*
X37917Y288505D01*
X37949Y288593D01*
Y288598D01*
X37958Y288612D01*
X37968Y288635D01*
X37981Y288667D01*
X38000Y288704D01*
X38028Y288746D01*
X38055Y288797D01*
X38088Y288848D01*
X38129Y288903D01*
X38171Y288963D01*
X38222Y289023D01*
X38277Y289083D01*
X38342Y289139D01*
X38407Y289199D01*
X38481Y289254D01*
X38559Y289305D01*
X38564Y289310D01*
X38578Y289319D01*
X38601Y289328D01*
X38633Y289347D01*
X38675Y289365D01*
X38726Y289388D01*
X38781Y289416D01*
X38841Y289439D01*
X38911Y289462D01*
X38984Y289490D01*
X39063Y289513D01*
X39146Y289532D01*
X39234Y289550D01*
X39327Y289564D01*
X39424Y289569D01*
X39521Y289573D01*
X39530D01*
X39548D01*
X39585Y289569D01*
X39636D01*
X39692Y289559D01*
X39761Y289550D01*
X39835Y289536D01*
X39918Y289518D01*
X40006Y289495D01*
X40099Y289467D01*
X40196Y289430D01*
X40293Y289388D01*
X40390Y289338D01*
X40482Y289277D01*
X40579Y289208D01*
X40667Y289130D01*
X40672Y289125D01*
X40686Y289111D01*
X40709Y289083D01*
X40741Y289046D01*
X40778Y289000D01*
X40820Y288940D01*
X40866Y288875D01*
X40917Y288797D01*
X40968Y288704D01*
X41019Y288607D01*
X41065Y288492D01*
X41116Y288371D01*
X41157Y288237D01*
X41199Y288094D01*
X41231Y287937D01*
X41259Y287770D01*
Y287775D01*
X41268Y287784D01*
X41273Y287803D01*
X41287Y287826D01*
X41301Y287854D01*
X41319Y287886D01*
X41361Y287960D01*
X41407Y288043D01*
X41462Y288126D01*
X41518Y288205D01*
X41578Y288279D01*
X41582Y288284D01*
X41592Y288297D01*
X41615Y288316D01*
X41638Y288344D01*
X41675Y288376D01*
X41712Y288413D01*
X41758Y288459D01*
X41814Y288505D01*
X41874Y288556D01*
X41938Y288612D01*
X42008Y288672D01*
X42082Y288732D01*
X42165Y288792D01*
X42248Y288857D01*
X42433Y288982D01*
X44171Y290086D01*
Y289028D01*
D02*
G37*
G36*
X39706Y283365D02*
X39761Y283360D01*
X39835Y283356D01*
X39914Y283342D01*
X40006Y283328D01*
X40103Y283305D01*
X40209Y283277D01*
X40321Y283240D01*
X40436Y283199D01*
X40552Y283148D01*
X40667Y283088D01*
X40783Y283018D01*
X40898Y282940D01*
X41005Y282847D01*
X41009Y282843D01*
X41028Y282824D01*
X41055Y282792D01*
X41093Y282745D01*
X41134Y282685D01*
X41185Y282611D01*
X41236Y282524D01*
X41287Y282417D01*
X41337Y282297D01*
X41388Y282163D01*
X41439Y282006D01*
X41481Y281839D01*
X41518Y281650D01*
X41532Y281548D01*
X41546Y281442D01*
X41555Y281331D01*
X41564Y281215D01*
X41569Y281095D01*
Y279334D01*
X44171D01*
Y278488D01*
X37773D01*
Y281054D01*
X37778Y281118D01*
Y281183D01*
X37783Y281257D01*
X37787Y281414D01*
X37801Y281576D01*
X37815Y281733D01*
X37829Y281807D01*
X37838Y281872D01*
Y281876D01*
X37843Y281895D01*
X37847Y281918D01*
X37852Y281950D01*
X37861Y281992D01*
X37875Y282038D01*
X37889Y282089D01*
X37903Y282149D01*
X37944Y282274D01*
X38000Y282403D01*
X38060Y282537D01*
X38138Y282662D01*
X38143Y282667D01*
X38148Y282676D01*
X38162Y282695D01*
X38180Y282713D01*
X38199Y282741D01*
X38226Y282773D01*
X38259Y282810D01*
X38296Y282847D01*
X38337Y282884D01*
X38384Y282926D01*
X38490Y283014D01*
X38615Y283097D01*
X38753Y283175D01*
X38758Y283180D01*
X38772Y283185D01*
X38795Y283194D01*
X38823Y283208D01*
X38860Y283222D01*
X38906Y283235D01*
X38957Y283254D01*
X39012Y283272D01*
X39072Y283291D01*
X39142Y283309D01*
X39211Y283323D01*
X39290Y283337D01*
X39451Y283360D01*
X39627Y283370D01*
X39636D01*
X39664D01*
X39706Y283365D01*
D02*
G37*
%LPC*%
G36*
X197922Y151923D02*
X197881D01*
X197830Y151918D01*
X197765Y151913D01*
X197687Y151904D01*
X197590Y151890D01*
X197488Y151867D01*
X197372Y151844D01*
X197252Y151807D01*
X197127Y151765D01*
X196993Y151715D01*
X196864Y151650D01*
X196730Y151576D01*
X196600Y151488D01*
X196476Y151391D01*
X196355Y151275D01*
X196351Y151266D01*
X196327Y151243D01*
X196300Y151206D01*
X196258Y151155D01*
X196212Y151086D01*
X196157Y151003D01*
X196101Y150906D01*
X196046Y150790D01*
X195986Y150661D01*
X195930Y150517D01*
X195875Y150360D01*
X195828Y150189D01*
X195787Y150000D01*
X195759Y149796D01*
X195741Y149579D01*
X195731Y149343D01*
Y149339D01*
Y149329D01*
Y149311D01*
Y149288D01*
X195736Y149260D01*
Y149223D01*
Y149181D01*
X195741Y149140D01*
X195745Y149089D01*
X195750Y149033D01*
X195764Y148913D01*
X195782Y148779D01*
X195810Y148636D01*
X195842Y148483D01*
X195884Y148326D01*
X195930Y148169D01*
X195990Y148007D01*
X196059Y147855D01*
X196143Y147702D01*
X196240Y147559D01*
X196346Y147429D01*
X196355Y147420D01*
X196374Y147402D01*
X196411Y147369D01*
X196457Y147328D01*
X196517Y147277D01*
X196591Y147217D01*
X196679Y147156D01*
X196776Y147096D01*
X196882Y147036D01*
X197003Y146976D01*
X197132Y146916D01*
X197271Y146870D01*
X197423Y146824D01*
X197580Y146791D01*
X197747Y146773D01*
X197922Y146764D01*
X197969D01*
X198001Y146768D01*
X198043D01*
X198089Y146773D01*
X198144Y146777D01*
X198200Y146787D01*
X198265Y146791D01*
X198334Y146805D01*
X198477Y146833D01*
X198625Y146875D01*
X198778Y146930D01*
X198773Y146935D01*
X198759Y146939D01*
X198741Y146953D01*
X198708Y146972D01*
X198671Y146995D01*
X198630Y147018D01*
X198579Y147046D01*
X198528Y147073D01*
X198468Y147101D01*
X198399Y147133D01*
X198260Y147193D01*
X198103Y147249D01*
X197941Y147295D01*
X198149Y147915D01*
X198158D01*
X198181Y147905D01*
X198218Y147892D01*
X198269Y147878D01*
X198334Y147855D01*
X198403Y147827D01*
X198486Y147795D01*
X198574Y147762D01*
X198667Y147720D01*
X198764Y147674D01*
X198866Y147623D01*
X198967Y147568D01*
X199069Y147508D01*
X199166Y147443D01*
X199263Y147374D01*
X199356Y147300D01*
X199365Y147309D01*
X199388Y147332D01*
X199425Y147374D01*
X199471Y147429D01*
X199531Y147499D01*
X199591Y147586D01*
X199661Y147693D01*
X199730Y147808D01*
X199799Y147947D01*
X199869Y148100D01*
X199929Y148266D01*
X199989Y148451D01*
X200035Y148650D01*
X200072Y148862D01*
X200095Y149094D01*
X200104Y149343D01*
Y149352D01*
Y149375D01*
Y149417D01*
X200100Y149473D01*
X200095Y149542D01*
X200091Y149621D01*
X200081Y149708D01*
X200072Y149805D01*
X200058Y149907D01*
X200040Y150013D01*
X200016Y150129D01*
X199993Y150245D01*
X199961Y150360D01*
X199924Y150476D01*
X199883Y150587D01*
X199836Y150698D01*
X199832Y150702D01*
X199822Y150725D01*
X199809Y150753D01*
X199785Y150795D01*
X199758Y150841D01*
X199725Y150901D01*
X199688Y150961D01*
X199642Y151030D01*
X199591Y151100D01*
X199531Y151174D01*
X199471Y151248D01*
X199402Y151322D01*
X199323Y151396D01*
X199244Y151470D01*
X199157Y151534D01*
X199064Y151599D01*
X199060Y151604D01*
X199041Y151613D01*
X199013Y151627D01*
X198976Y151650D01*
X198926Y151673D01*
X198870Y151701D01*
X198805Y151733D01*
X198731Y151761D01*
X198648Y151793D01*
X198560Y151821D01*
X198468Y151849D01*
X198366Y151872D01*
X198265Y151895D01*
X198154Y151909D01*
X198038Y151918D01*
X197922Y151923D01*
D02*
G37*
G36*
X395022Y193676D02*
X394980D01*
X394929Y193671D01*
X394865Y193666D01*
X394786Y193657D01*
X394689Y193643D01*
X394587Y193620D01*
X394472Y193597D01*
X394352Y193560D01*
X394227Y193519D01*
X394093Y193468D01*
X393963Y193403D01*
X393829Y193329D01*
X393700Y193241D01*
X393575Y193144D01*
X393455Y193029D01*
X393450Y193019D01*
X393427Y192996D01*
X393399Y192959D01*
X393358Y192908D01*
X393311Y192839D01*
X393256Y192756D01*
X393200Y192659D01*
X393145Y192543D01*
X393085Y192414D01*
X393029Y192270D01*
X392974Y192113D01*
X392928Y191942D01*
X392886Y191753D01*
X392858Y191549D01*
X392840Y191332D01*
X392831Y191096D01*
Y191092D01*
Y191082D01*
Y191064D01*
Y191041D01*
X392835Y191013D01*
Y190976D01*
Y190934D01*
X392840Y190893D01*
X392845Y190842D01*
X392849Y190786D01*
X392863Y190666D01*
X392881Y190532D01*
X392909Y190389D01*
X392942Y190236D01*
X392983Y190079D01*
X393029Y189922D01*
X393089Y189760D01*
X393159Y189608D01*
X393242Y189455D01*
X393339Y189312D01*
X393445Y189182D01*
X393455Y189173D01*
X393473Y189155D01*
X393510Y189122D01*
X393556Y189081D01*
X393616Y189030D01*
X393690Y188970D01*
X393778Y188910D01*
X393875Y188850D01*
X393982Y188790D01*
X394102Y188729D01*
X394231Y188669D01*
X394370Y188623D01*
X394523Y188577D01*
X394680Y188545D01*
X394846Y188526D01*
X395022Y188517D01*
X395068D01*
X395100Y188521D01*
X395142D01*
X395188Y188526D01*
X395244Y188531D01*
X395299Y188540D01*
X395364Y188545D01*
X395433Y188558D01*
X395577Y188586D01*
X395724Y188628D01*
X395877Y188683D01*
X395872Y188688D01*
X395858Y188692D01*
X395840Y188706D01*
X395808Y188725D01*
X395771Y188748D01*
X395729Y188771D01*
X395678Y188799D01*
X395627Y188826D01*
X395567Y188854D01*
X395498Y188887D01*
X395359Y188947D01*
X395202Y189002D01*
X395040Y189048D01*
X395248Y189668D01*
X395258D01*
X395281Y189659D01*
X395318Y189645D01*
X395368Y189631D01*
X395433Y189608D01*
X395503Y189580D01*
X395586Y189548D01*
X395674Y189515D01*
X395766Y189474D01*
X395863Y189427D01*
X395965Y189377D01*
X396067Y189321D01*
X396168Y189261D01*
X396265Y189196D01*
X396362Y189127D01*
X396455Y189053D01*
X396464Y189062D01*
X396487Y189085D01*
X396524Y189127D01*
X396570Y189182D01*
X396631Y189252D01*
X396691Y189340D01*
X396760Y189446D01*
X396829Y189562D01*
X396899Y189700D01*
X396968Y189853D01*
X397028Y190019D01*
X397088Y190204D01*
X397134Y190403D01*
X397171Y190616D01*
X397195Y190847D01*
X397204Y191096D01*
Y191105D01*
Y191129D01*
Y191170D01*
X397199Y191226D01*
X397195Y191295D01*
X397190Y191374D01*
X397181Y191461D01*
X397171Y191558D01*
X397158Y191660D01*
X397139Y191766D01*
X397116Y191882D01*
X397093Y191998D01*
X397060Y192113D01*
X397024Y192229D01*
X396982Y192340D01*
X396936Y192451D01*
X396931Y192455D01*
X396922Y192479D01*
X396908Y192506D01*
X396885Y192548D01*
X396857Y192594D01*
X396825Y192654D01*
X396788Y192714D01*
X396741Y192784D01*
X396691Y192853D01*
X396631Y192927D01*
X396570Y193001D01*
X396501Y193075D01*
X396423Y193149D01*
X396344Y193223D01*
X396256Y193287D01*
X396164Y193352D01*
X396159Y193357D01*
X396141Y193366D01*
X396113Y193380D01*
X396076Y193403D01*
X396025Y193426D01*
X395970Y193454D01*
X395905Y193486D01*
X395831Y193514D01*
X395748Y193546D01*
X395660Y193574D01*
X395567Y193602D01*
X395466Y193625D01*
X395364Y193648D01*
X395253Y193662D01*
X395137Y193671D01*
X395022Y193676D01*
D02*
G37*
G36*
X40977Y295888D02*
X40968D01*
X40944D01*
X40903D01*
X40848Y295884D01*
X40778Y295879D01*
X40700Y295874D01*
X40612Y295865D01*
X40515Y295856D01*
X40413Y295842D01*
X40302Y295823D01*
X40191Y295800D01*
X40075Y295777D01*
X39960Y295745D01*
X39844Y295708D01*
X39729Y295666D01*
X39618Y295620D01*
X39613Y295615D01*
X39590Y295606D01*
X39562Y295592D01*
X39521Y295569D01*
X39474Y295541D01*
X39414Y295509D01*
X39354Y295472D01*
X39285Y295426D01*
X39216Y295375D01*
X39142Y295315D01*
X39068Y295255D01*
X38994Y295185D01*
X38920Y295107D01*
X38846Y295028D01*
X38781Y294940D01*
X38716Y294848D01*
X38712Y294843D01*
X38702Y294825D01*
X38689Y294797D01*
X38665Y294760D01*
X38642Y294709D01*
X38615Y294654D01*
X38582Y294589D01*
X38555Y294515D01*
X38522Y294432D01*
X38495Y294344D01*
X38467Y294252D01*
X38444Y294150D01*
X38421Y294048D01*
X38407Y293937D01*
X38397Y293822D01*
X38393Y293706D01*
Y293664D01*
X38397Y293618D01*
X38402Y293558D01*
X38411Y293480D01*
X38425Y293387D01*
X38444Y293285D01*
X38471Y293179D01*
X38504Y293059D01*
X38545Y292934D01*
X38596Y292809D01*
X38652Y292675D01*
X38726Y292546D01*
X38809Y292416D01*
X38901Y292287D01*
X39012Y292162D01*
X39021Y292153D01*
X39040Y292134D01*
X39077Y292102D01*
X39132Y292060D01*
X39197Y292014D01*
X39285Y291959D01*
X39382Y291899D01*
X39498Y291838D01*
X39632Y291778D01*
X39784Y291718D01*
X39955Y291667D01*
X40140Y291617D01*
X40344Y291575D01*
X40455Y291556D01*
X40566Y291543D01*
X40686Y291529D01*
X40810Y291524D01*
X40935Y291515D01*
X41069D01*
X41074D01*
X41083D01*
X41097D01*
X41120D01*
X41148Y291520D01*
X41180D01*
X41217D01*
X41259Y291524D01*
X41356Y291533D01*
X41472Y291547D01*
X41596Y291566D01*
X41730Y291593D01*
X41874Y291626D01*
X42022Y291667D01*
X42174Y291718D01*
X42327Y291778D01*
X42475Y291848D01*
X42623Y291931D01*
X42761Y292023D01*
X42891Y292134D01*
X42900Y292144D01*
X42919Y292162D01*
X42951Y292199D01*
X42992Y292245D01*
X43043Y292310D01*
X43099Y292379D01*
X43159Y292467D01*
X43219Y292564D01*
X43284Y292671D01*
X43344Y292791D01*
X43399Y292920D01*
X43450Y293059D01*
X43492Y293202D01*
X43524Y293359D01*
X43543Y293526D01*
X43552Y293697D01*
Y293738D01*
X43547Y293762D01*
Y293789D01*
X43543Y293854D01*
X43533Y293937D01*
X43515Y294030D01*
X43496Y294136D01*
X43469Y294252D01*
X43432Y294372D01*
X43390Y294501D01*
X43334Y294631D01*
X43270Y294760D01*
X43191Y294894D01*
X43103Y295024D01*
X42997Y295148D01*
X42881Y295269D01*
X42872Y295278D01*
X42849Y295296D01*
X42812Y295324D01*
X42757Y295366D01*
X42687Y295412D01*
X42604Y295463D01*
X42507Y295523D01*
X42392Y295578D01*
X42262Y295638D01*
X42123Y295694D01*
X41966Y295745D01*
X41795Y295791D01*
X41610Y295833D01*
X41411Y295860D01*
X41203Y295884D01*
X40977Y295888D01*
D02*
G37*
G36*
X39521Y288700D02*
X39516D01*
X39502D01*
X39479D01*
X39447Y288695D01*
X39405Y288690D01*
X39364Y288681D01*
X39313Y288672D01*
X39257Y288658D01*
X39202Y288640D01*
X39142Y288616D01*
X39077Y288593D01*
X39017Y288561D01*
X38952Y288519D01*
X38892Y288478D01*
X38832Y288427D01*
X38777Y288367D01*
X38772Y288362D01*
X38763Y288353D01*
X38749Y288330D01*
X38730Y288307D01*
X38707Y288270D01*
X38684Y288223D01*
X38656Y288173D01*
X38628Y288113D01*
X38601Y288048D01*
X38573Y287969D01*
X38550Y287881D01*
X38527Y287789D01*
X38508Y287687D01*
X38495Y287576D01*
X38485Y287456D01*
X38481Y287327D01*
Y285306D01*
X40593D01*
Y287220D01*
X40589Y287267D01*
Y287327D01*
X40584Y287387D01*
X40579Y287456D01*
X40566Y287599D01*
X40542Y287752D01*
X40515Y287900D01*
X40496Y287965D01*
X40478Y288029D01*
Y288034D01*
X40473Y288043D01*
X40464Y288062D01*
X40455Y288085D01*
X40441Y288113D01*
X40427Y288140D01*
X40385Y288214D01*
X40330Y288297D01*
X40265Y288381D01*
X40186Y288459D01*
X40094Y288529D01*
X40089D01*
X40080Y288538D01*
X40066Y288542D01*
X40048Y288556D01*
X40025Y288570D01*
X39992Y288584D01*
X39923Y288616D01*
X39840Y288644D01*
X39743Y288672D01*
X39636Y288690D01*
X39521Y288700D01*
D02*
G37*
G36*
X39650Y282496D02*
X39646D01*
X39632D01*
X39613D01*
X39581Y282491D01*
X39548D01*
X39507Y282487D01*
X39461Y282477D01*
X39414Y282473D01*
X39308Y282445D01*
X39193Y282408D01*
X39077Y282362D01*
X39021Y282329D01*
X38966Y282292D01*
X38961D01*
X38952Y282283D01*
X38938Y282269D01*
X38920Y282255D01*
X38869Y282209D01*
X38809Y282149D01*
X38749Y282071D01*
X38684Y281983D01*
X38628Y281876D01*
X38587Y281756D01*
Y281752D01*
X38582Y281747D01*
Y281733D01*
X38578Y281715D01*
X38573Y281691D01*
X38568Y281659D01*
X38564Y281622D01*
X38555Y281576D01*
X38550Y281525D01*
X38545Y281470D01*
X38541Y281405D01*
X38536Y281331D01*
X38531Y281252D01*
Y281164D01*
X38527Y281072D01*
Y279334D01*
X40815D01*
Y281063D01*
X40810Y281118D01*
X40806Y281183D01*
X40797Y281262D01*
X40787Y281345D01*
X40778Y281437D01*
X40741Y281627D01*
X40718Y281724D01*
X40686Y281821D01*
X40653Y281913D01*
X40612Y282001D01*
X40566Y282080D01*
X40510Y282149D01*
X40505Y282154D01*
X40496Y282163D01*
X40478Y282181D01*
X40455Y282205D01*
X40422Y282228D01*
X40385Y282260D01*
X40339Y282292D01*
X40288Y282325D01*
X40228Y282357D01*
X40168Y282385D01*
X40094Y282417D01*
X40020Y282440D01*
X39937Y282463D01*
X39844Y282482D01*
X39752Y282491D01*
X39650Y282496D01*
D02*
G37*
%LPD*%
D11*
X171108Y92032D02*
Y203032D01*
Y92032D02*
X218608D01*
Y203032D01*
X171108D02*
X218608D01*
X368207Y133785D02*
Y244785D01*
Y133785D02*
X415707D01*
Y244785D01*
X368207D02*
X415707D01*
X12352Y225488D02*
X76203D01*
Y331488D01*
X12352D02*
X76203D01*
X12352Y225488D02*
Y331488D01*
M02*
