G04*
G04 #@! TF.GenerationSoftware,Altium Limited,Altium Designer,22.7.1 (60)*
G04*
G04 Layer_Color=16711935*
%FSLAX44Y44*%
%MOMM*%
G71*
G04*
G04 #@! TF.SameCoordinates,D299D1DB-FC93-4E7D-A29F-8AC0059F7039*
G04*
G04*
G04 #@! TF.FilePolarity,Positive*
G04*
G01*
G75*
%ADD50C,0.5080*%
%ADD51C,0.1000*%
%ADD52C,0.0254*%
D50*
X87510Y493250D02*
G03*
X87510Y493250I-3810J0D01*
G01*
D51*
X151089Y116375D02*
Y162725D01*
X127489Y116375D02*
X151089D01*
X127489D02*
Y162725D01*
X151089D01*
X143890Y341721D02*
Y443321D01*
X118490Y341721D02*
Y443321D01*
X143890D01*
X118490Y341721D02*
X143890D01*
X9046Y89872D02*
Y189872D01*
X91046D01*
Y89872D02*
Y189872D01*
X9046Y89872D02*
X91046D01*
X379791Y93871D02*
X479791D01*
Y11870D02*
Y93871D01*
X379791Y11870D02*
X479791D01*
X379791D02*
Y93871D01*
X273159Y13532D02*
X349359D01*
X273159Y38432D02*
X349359D01*
Y13532D02*
Y38432D01*
X273159Y13532D02*
Y38432D01*
X178655Y13137D02*
X254855D01*
X178655Y38037D02*
X254855D01*
Y13137D02*
Y38037D01*
X178655Y13137D02*
Y38037D01*
X84150Y13137D02*
X160350D01*
X84150Y38037D02*
X160350D01*
Y13137D02*
Y38037D01*
X84150Y13137D02*
Y38037D01*
X80312Y343275D02*
Y444875D01*
X54912Y343275D02*
Y444875D01*
X80312D01*
X54912Y343275D02*
X80312D01*
X37288Y344123D02*
Y445723D01*
X11888Y344123D02*
Y445723D01*
X37288D01*
X11888Y344123D02*
X37288D01*
D52*
X69730Y499981D02*
X580270D01*
Y550019D01*
X69730D02*
X580270D01*
X69730Y499981D02*
Y550019D01*
M02*
