G04*
G04 #@! TF.GenerationSoftware,Altium Limited,Altium Designer,22.7.1 (60)*
G04*
G04 Layer_Physical_Order=2*
G04 Layer_Color=16711680*
%FSLAX44Y44*%
%MOMM*%
G71*
G04*
G04 #@! TF.SameCoordinates,D299D1DB-FC93-4E7D-A29F-8AC0059F7039*
G04*
G04*
G04 #@! TF.FilePolarity,Positive*
G04*
G01*
G75*
%ADD11C,0.2000*%
%ADD19C,1.8500*%
%ADD20R,1.8500X1.8500*%
%ADD24C,1.5240*%
%ADD25C,1.6500*%
%ADD27C,1.2500*%
%ADD28C,1.5700*%
%ADD29R,1.5700X1.5700*%
%ADD35C,0.7000*%
%ADD38R,1.6500X1.6500*%
%ADD39C,1.6000*%
%ADD40R,1.6000X1.6000*%
%ADD41C,1.4000*%
%ADD42C,1.5500*%
%ADD43R,1.6000X1.6000*%
%ADD44R,1.5500X1.5500*%
%ADD45C,5.0000*%
%ADD46C,0.5080*%
%ADD47C,1.2700*%
%ADD48C,0.8000*%
G36*
X844902Y5098D02*
X5098D01*
Y554902D01*
X844902D01*
Y5098D01*
D02*
G37*
%LPC*%
G36*
X110271Y546590D02*
X107930D01*
X105669Y545984D01*
X103642Y544814D01*
X101986Y543159D01*
X101937Y543074D01*
X90863D01*
X90814Y543159D01*
X89159Y544814D01*
X87132Y545984D01*
X84871Y546590D01*
X82530D01*
X80269Y545984D01*
X78242Y544814D01*
X76586Y543159D01*
X75416Y541132D01*
X74810Y538871D01*
Y536530D01*
X74988Y535866D01*
X61583Y522462D01*
X60529Y520884D01*
X60159Y519023D01*
X60159Y519022D01*
Y482675D01*
X60159Y482675D01*
X60529Y480813D01*
X61583Y479236D01*
X76084Y464735D01*
X76084Y464735D01*
X77662Y463681D01*
X79523Y463311D01*
X91939D01*
X92975Y460811D01*
X73609Y441445D01*
X58342D01*
Y434490D01*
X47273D01*
X47103Y434660D01*
X46352Y435162D01*
X45466Y435338D01*
X33858D01*
Y442293D01*
X15318D01*
Y423753D01*
X33858D01*
Y430709D01*
X44507D01*
X44677Y430539D01*
X45428Y430037D01*
X46314Y429861D01*
X58342D01*
Y422905D01*
X76882D01*
Y438172D01*
X98720Y460010D01*
X99222Y460761D01*
X99398Y461646D01*
Y463311D01*
X267181D01*
X268138Y461001D01*
X240072Y432935D01*
X140459D01*
Y439891D01*
X121919D01*
Y421351D01*
X137186D01*
X169389Y389148D01*
Y335854D01*
X168676Y335257D01*
X166889Y334576D01*
X165579Y335332D01*
X163475Y335896D01*
X161298D01*
X159195Y335332D01*
X157309Y334244D01*
X155769Y332704D01*
X154680Y330818D01*
X154117Y328715D01*
Y326537D01*
X154680Y324434D01*
X155135Y323647D01*
X134538Y303050D01*
X82301D01*
X81415Y302874D01*
X80664Y302373D01*
X51954Y273662D01*
X50873Y274287D01*
X48553Y274908D01*
X46152D01*
X43833Y274287D01*
X41753Y273086D01*
X40055Y271388D01*
X38854Y269308D01*
X38233Y266989D01*
Y264587D01*
X38854Y262268D01*
X40055Y260188D01*
X41753Y258490D01*
X43833Y257290D01*
X46152Y256668D01*
X48553D01*
X50873Y257290D01*
X52952Y258490D01*
X54651Y260188D01*
X55851Y262268D01*
X56473Y264587D01*
Y266989D01*
X55851Y269308D01*
X55227Y270389D01*
X83259Y298421D01*
X135497D01*
X136383Y298598D01*
X137133Y299099D01*
X158408Y320374D01*
X159195Y319920D01*
X161298Y319356D01*
X163475D01*
X165579Y319920D01*
X166889Y320676D01*
X168676Y319995D01*
X169389Y319398D01*
Y261702D01*
X166366Y258678D01*
X165579Y259132D01*
X163475Y259696D01*
X161298D01*
X159195Y259132D01*
X157309Y258044D01*
X155769Y256504D01*
X154680Y254618D01*
X154445Y253740D01*
X58390D01*
X57505Y253564D01*
X56754Y253063D01*
X51954Y248263D01*
X50873Y248887D01*
X48553Y249508D01*
X46152D01*
X43833Y248887D01*
X41753Y247686D01*
X40055Y245988D01*
X38854Y243908D01*
X38233Y241589D01*
Y239188D01*
X38854Y236868D01*
X40055Y234788D01*
X41753Y233090D01*
X43833Y231890D01*
X46152Y231268D01*
X48553D01*
X50873Y231890D01*
X52952Y233090D01*
X54651Y234788D01*
X55851Y236868D01*
X56473Y239188D01*
Y241589D01*
X55851Y243908D01*
X55227Y244989D01*
X59349Y249111D01*
X154445D01*
X154680Y248234D01*
X155769Y246348D01*
X157309Y244808D01*
X159195Y243720D01*
X161298Y243156D01*
X163475D01*
X165579Y243720D01*
X166366Y244174D01*
X222891Y187648D01*
X223642Y187147D01*
X224528Y186970D01*
X374636D01*
X375104Y185224D01*
X376489Y182825D01*
X378448Y180867D01*
X380846Y179482D01*
X383522Y178765D01*
X386292D01*
X388968Y179482D01*
X391367Y180867D01*
X393325Y182825D01*
X394710Y185224D01*
X395427Y187900D01*
Y190670D01*
X394710Y193345D01*
X393325Y195744D01*
X391367Y197703D01*
X388968Y199088D01*
X386292Y199805D01*
X383522D01*
X380846Y199088D01*
X378448Y197703D01*
X376489Y195744D01*
X375104Y193345D01*
X374636Y191599D01*
X225487D01*
X169639Y247447D01*
X170093Y248234D01*
X170657Y250337D01*
Y252515D01*
X170093Y254618D01*
X169639Y255405D01*
X173341Y259107D01*
X173842Y259858D01*
X174018Y260743D01*
Y390106D01*
X173842Y390992D01*
X173341Y391743D01*
X140459Y424624D01*
Y428307D01*
X241031D01*
X241917Y428483D01*
X242667Y428984D01*
X275081Y461398D01*
X275643Y461074D01*
X277581Y460554D01*
X279587D01*
X281525Y461074D01*
X283263Y462077D01*
X284682Y463495D01*
X285685Y465233D01*
X286204Y467171D01*
Y469178D01*
X285685Y471115D01*
X284682Y472853D01*
X283263Y474272D01*
X281525Y475275D01*
X279587Y475794D01*
X277581D01*
X275643Y475275D01*
X273905Y474272D01*
X272671Y473038D01*
X81537D01*
X69886Y484689D01*
Y517008D01*
X81866Y528988D01*
X82530Y528810D01*
X84871D01*
X87132Y529416D01*
X89159Y530586D01*
X90814Y532242D01*
X90863Y532327D01*
X101937D01*
X101986Y532242D01*
X103642Y530586D01*
X105669Y529416D01*
X107930Y528810D01*
X110271D01*
X112531Y529416D01*
X114559Y530586D01*
X116214Y532242D01*
X117384Y534269D01*
X117990Y536530D01*
Y538871D01*
X117384Y541132D01*
X116214Y543159D01*
X114559Y544814D01*
X112531Y545984D01*
X110271Y546590D01*
D02*
G37*
G36*
X567471D02*
X565130D01*
X562869Y545984D01*
X560841Y544814D01*
X559186Y543159D01*
X558016Y541132D01*
X557410Y538871D01*
Y536530D01*
X558016Y534269D01*
X559186Y532242D01*
X560841Y530586D01*
X562869Y529416D01*
X565130Y528810D01*
X567471D01*
X569731Y529416D01*
X571759Y530586D01*
X573414Y532242D01*
X574584Y534269D01*
X575190Y536530D01*
Y538871D01*
X574584Y541132D01*
X573414Y543159D01*
X571759Y544814D01*
X569731Y545984D01*
X567471Y546590D01*
D02*
G37*
G36*
X542071D02*
X539730D01*
X537469Y545984D01*
X535442Y544814D01*
X533786Y543159D01*
X532616Y541132D01*
X532010Y538871D01*
Y536530D01*
X532616Y534269D01*
X533786Y532242D01*
X535442Y530586D01*
X537469Y529416D01*
X539730Y528810D01*
X542071D01*
X544332Y529416D01*
X546359Y530586D01*
X548014Y532242D01*
X549184Y534269D01*
X549790Y536530D01*
Y538871D01*
X549184Y541132D01*
X548014Y543159D01*
X546359Y544814D01*
X544332Y545984D01*
X542071Y546590D01*
D02*
G37*
G36*
X516670D02*
X514330D01*
X512069Y545984D01*
X510042Y544814D01*
X508386Y543159D01*
X507216Y541132D01*
X506610Y538871D01*
Y536530D01*
X507216Y534269D01*
X508386Y532242D01*
X510042Y530586D01*
X512069Y529416D01*
X514330Y528810D01*
X516670D01*
X518932Y529416D01*
X520959Y530586D01*
X522614Y532242D01*
X523784Y534269D01*
X524390Y536530D01*
Y538871D01*
X523784Y541132D01*
X522614Y543159D01*
X520959Y544814D01*
X518932Y545984D01*
X516670Y546590D01*
D02*
G37*
G36*
X465871D02*
X463530D01*
X461269Y545984D01*
X459241Y544814D01*
X457586Y543159D01*
X456416Y541132D01*
X455810Y538871D01*
Y536530D01*
X456416Y534269D01*
X456994Y533267D01*
X450127Y526401D01*
X449626Y525650D01*
X449449Y524764D01*
Y517501D01*
X446949Y516831D01*
X446414Y517759D01*
X444759Y519414D01*
X442732Y520584D01*
X440471Y521190D01*
X438130D01*
X435869Y520584D01*
X433842Y519414D01*
X432186Y517759D01*
X431016Y515732D01*
X430410Y513471D01*
Y511130D01*
X431016Y508869D01*
X432186Y506842D01*
X433842Y505186D01*
X435869Y504016D01*
X438130Y503410D01*
X440365D01*
X440598Y503157D01*
X441621Y501130D01*
X435311Y494821D01*
X229388D01*
X228472Y495736D01*
X227072Y496316D01*
X225556D01*
X224156Y495736D01*
X223084Y494664D01*
X222504Y493264D01*
Y491748D01*
X223084Y490348D01*
X224156Y489276D01*
X225556Y488696D01*
X227072D01*
X228472Y489276D01*
X229388Y490191D01*
X436270D01*
X437156Y490368D01*
X437906Y490869D01*
X453400Y506363D01*
X453902Y507114D01*
X454078Y508000D01*
X456374Y508615D01*
X456578Y508587D01*
X457586Y506842D01*
X459241Y505186D01*
X461269Y504016D01*
X463530Y503410D01*
X465871D01*
X468131Y504016D01*
X470159Y505186D01*
X471814Y506842D01*
X472984Y508869D01*
X473590Y511130D01*
Y513471D01*
X472984Y515732D01*
X471814Y517759D01*
X470159Y519414D01*
X468131Y520584D01*
X465871Y521190D01*
X463530D01*
X461269Y520584D01*
X459241Y519414D01*
X457586Y517759D01*
X454439Y517308D01*
X454078Y517554D01*
Y523805D01*
X460267Y529994D01*
X461269Y529416D01*
X463530Y528810D01*
X465871D01*
X468131Y529416D01*
X470159Y530586D01*
X471814Y532242D01*
X472984Y534269D01*
X473590Y536530D01*
Y538871D01*
X472984Y541132D01*
X471814Y543159D01*
X470159Y544814D01*
X468131Y545984D01*
X465871Y546590D01*
D02*
G37*
G36*
X415070D02*
X412730D01*
X410469Y545984D01*
X408442Y544814D01*
X406786Y543159D01*
X405616Y541132D01*
X405010Y538871D01*
Y536530D01*
X405616Y534269D01*
X406786Y532242D01*
X408442Y530586D01*
X410469Y529416D01*
X412730Y528810D01*
X415070D01*
X417332Y529416D01*
X419359Y530586D01*
X421014Y532242D01*
X422184Y534269D01*
X422790Y536530D01*
Y538871D01*
X422184Y541132D01*
X421014Y543159D01*
X419359Y544814D01*
X417332Y545984D01*
X415070Y546590D01*
D02*
G37*
G36*
X389670D02*
X387330D01*
X385069Y545984D01*
X383041Y544814D01*
X381386Y543159D01*
X380216Y541132D01*
X379610Y538871D01*
Y536530D01*
X380216Y534269D01*
X381386Y532242D01*
X383041Y530586D01*
X385069Y529416D01*
X387330Y528810D01*
X389670D01*
X391931Y529416D01*
X393959Y530586D01*
X395614Y532242D01*
X396784Y534269D01*
X397390Y536530D01*
Y538871D01*
X396784Y541132D01*
X395614Y543159D01*
X393959Y544814D01*
X391931Y545984D01*
X389670Y546590D01*
D02*
G37*
G36*
X364271D02*
X361930D01*
X359669Y545984D01*
X357641Y544814D01*
X355986Y543159D01*
X354816Y541132D01*
X354210Y538871D01*
Y536530D01*
X354816Y534269D01*
X355986Y532242D01*
X357641Y530586D01*
X359669Y529416D01*
X361930Y528810D01*
X364271D01*
X366531Y529416D01*
X368559Y530586D01*
X370214Y532242D01*
X371384Y534269D01*
X371990Y536530D01*
Y538871D01*
X371384Y541132D01*
X370214Y543159D01*
X368559Y544814D01*
X366531Y545984D01*
X364271Y546590D01*
D02*
G37*
G36*
X338871D02*
X336530D01*
X334269Y545984D01*
X332242Y544814D01*
X330586Y543159D01*
X329416Y541132D01*
X328810Y538871D01*
Y536530D01*
X329416Y534269D01*
X330586Y532242D01*
X332242Y530586D01*
X334269Y529416D01*
X336530Y528810D01*
X338871D01*
X341132Y529416D01*
X343159Y530586D01*
X344814Y532242D01*
X345984Y534269D01*
X346590Y536530D01*
Y538871D01*
X345984Y541132D01*
X344814Y543159D01*
X343159Y544814D01*
X341132Y545984D01*
X338871Y546590D01*
D02*
G37*
G36*
X288071D02*
X285730D01*
X283469Y545984D01*
X281441Y544814D01*
X279786Y543159D01*
X278616Y541132D01*
X278010Y538871D01*
Y536530D01*
X278616Y534269D01*
X279786Y532242D01*
X281441Y530586D01*
X283469Y529416D01*
X285730Y528810D01*
X288071D01*
X290331Y529416D01*
X292359Y530586D01*
X294014Y532242D01*
X295184Y534269D01*
X295790Y536530D01*
Y538871D01*
X295184Y541132D01*
X294014Y543159D01*
X292359Y544814D01*
X290331Y545984D01*
X288071Y546590D01*
D02*
G37*
G36*
X262670D02*
X260330D01*
X258069Y545984D01*
X256042Y544814D01*
X254386Y543159D01*
X253216Y541132D01*
X252610Y538871D01*
Y536530D01*
X253216Y534269D01*
X254386Y532242D01*
X256042Y530586D01*
X258069Y529416D01*
X260330Y528810D01*
X262670D01*
X264932Y529416D01*
X266959Y530586D01*
X268614Y532242D01*
X269784Y534269D01*
X270390Y536530D01*
Y538871D01*
X269784Y541132D01*
X268614Y543159D01*
X266959Y544814D01*
X264932Y545984D01*
X262670Y546590D01*
D02*
G37*
G36*
X211870D02*
X209530D01*
X207269Y545984D01*
X205242Y544814D01*
X203586Y543159D01*
X202416Y541132D01*
X201810Y538871D01*
Y536530D01*
X202416Y534269D01*
X203586Y532242D01*
X205242Y530586D01*
X207269Y529416D01*
X209530Y528810D01*
X211870D01*
X214132Y529416D01*
X216159Y530586D01*
X217814Y532242D01*
X218984Y534269D01*
X219590Y536530D01*
Y538871D01*
X218984Y541132D01*
X217814Y543159D01*
X216159Y544814D01*
X214132Y545984D01*
X211870Y546590D01*
D02*
G37*
G36*
X186471D02*
X184130D01*
X181869Y545984D01*
X179841Y544814D01*
X178186Y543159D01*
X177016Y541132D01*
X176410Y538871D01*
Y536530D01*
X177016Y534269D01*
X178186Y532242D01*
X179841Y530586D01*
X181869Y529416D01*
X184130Y528810D01*
X186471D01*
X188731Y529416D01*
X190759Y530586D01*
X192414Y532242D01*
X193584Y534269D01*
X194190Y536530D01*
Y538871D01*
X193584Y541132D01*
X192414Y543159D01*
X190759Y544814D01*
X188731Y545984D01*
X186471Y546590D01*
D02*
G37*
G36*
X161070D02*
X158730D01*
X156469Y545984D01*
X154441Y544814D01*
X152786Y543159D01*
X151616Y541132D01*
X151010Y538871D01*
Y536530D01*
X151616Y534269D01*
X152786Y532242D01*
X154441Y530586D01*
X156469Y529416D01*
X158730Y528810D01*
X161070D01*
X163332Y529416D01*
X165359Y530586D01*
X167014Y532242D01*
X168184Y534269D01*
X168790Y536530D01*
Y538871D01*
X168184Y541132D01*
X167014Y543159D01*
X165359Y544814D01*
X163332Y545984D01*
X161070Y546590D01*
D02*
G37*
G36*
X542071Y521190D02*
X539730D01*
X537469Y520584D01*
X535442Y519414D01*
X533786Y517759D01*
X532616Y515732D01*
X532010Y513471D01*
Y511130D01*
X532616Y508869D01*
X533786Y506842D01*
X535442Y505186D01*
X537469Y504016D01*
X539730Y503410D01*
X542071D01*
X544332Y504016D01*
X546359Y505186D01*
X548014Y506842D01*
X549184Y508869D01*
X549790Y511130D01*
Y513471D01*
X549184Y515732D01*
X548014Y517759D01*
X546359Y519414D01*
X544332Y520584D01*
X542071Y521190D01*
D02*
G37*
G36*
X516670D02*
X514330D01*
X512069Y520584D01*
X510042Y519414D01*
X508386Y517759D01*
X507216Y515732D01*
X506610Y513471D01*
Y511130D01*
X507216Y508869D01*
X508386Y506842D01*
X510042Y505186D01*
X512069Y504016D01*
X514330Y503410D01*
X516670D01*
X518932Y504016D01*
X520959Y505186D01*
X522614Y506842D01*
X523784Y508869D01*
X524390Y511130D01*
Y513471D01*
X523784Y515732D01*
X522614Y517759D01*
X520959Y519414D01*
X518932Y520584D01*
X516670Y521190D01*
D02*
G37*
G36*
X491270D02*
X488930D01*
X486669Y520584D01*
X484641Y519414D01*
X482986Y517759D01*
X481816Y515732D01*
X481210Y513471D01*
Y511130D01*
X481816Y508869D01*
X482986Y506842D01*
X484641Y505186D01*
X486669Y504016D01*
X488930Y503410D01*
X491270D01*
X493531Y504016D01*
X495559Y505186D01*
X497214Y506842D01*
X498384Y508869D01*
X498990Y511130D01*
Y513471D01*
X498384Y515732D01*
X497214Y517759D01*
X495559Y519414D01*
X493531Y520584D01*
X491270Y521190D01*
D02*
G37*
G36*
X415070D02*
X412730D01*
X410469Y520584D01*
X408442Y519414D01*
X406786Y517759D01*
X405616Y515732D01*
X405010Y513471D01*
Y511130D01*
X405616Y508869D01*
X406786Y506842D01*
X408442Y505186D01*
X410469Y504016D01*
X412730Y503410D01*
X415070D01*
X417332Y504016D01*
X419359Y505186D01*
X421014Y506842D01*
X422184Y508869D01*
X422790Y511130D01*
Y513471D01*
X422184Y515732D01*
X421014Y517759D01*
X419359Y519414D01*
X417332Y520584D01*
X415070Y521190D01*
D02*
G37*
G36*
X364271D02*
X361930D01*
X359669Y520584D01*
X357641Y519414D01*
X355986Y517759D01*
X354816Y515732D01*
X354210Y513471D01*
Y511130D01*
X354816Y508869D01*
X355986Y506842D01*
X357641Y505186D01*
X359669Y504016D01*
X361930Y503410D01*
X364271D01*
X366531Y504016D01*
X368559Y505186D01*
X370214Y506842D01*
X371384Y508869D01*
X371990Y511130D01*
Y513471D01*
X371384Y515732D01*
X370214Y517759D01*
X368559Y519414D01*
X366531Y520584D01*
X364271Y521190D01*
D02*
G37*
G36*
X338871D02*
X336530D01*
X334269Y520584D01*
X332242Y519414D01*
X330586Y517759D01*
X329416Y515732D01*
X328810Y513471D01*
Y511130D01*
X329416Y508869D01*
X330586Y506842D01*
X332242Y505186D01*
X334269Y504016D01*
X336530Y503410D01*
X338871D01*
X341132Y504016D01*
X343159Y505186D01*
X344814Y506842D01*
X345984Y508869D01*
X346590Y511130D01*
Y513471D01*
X345984Y515732D01*
X344814Y517759D01*
X343159Y519414D01*
X341132Y520584D01*
X338871Y521190D01*
D02*
G37*
G36*
X313470D02*
X311130D01*
X308869Y520584D01*
X306842Y519414D01*
X305186Y517759D01*
X304016Y515732D01*
X303410Y513471D01*
Y511130D01*
X304016Y508869D01*
X305186Y506842D01*
X306842Y505186D01*
X308869Y504016D01*
X311130Y503410D01*
X313470D01*
X315732Y504016D01*
X317759Y505186D01*
X319414Y506842D01*
X320584Y508869D01*
X321190Y511130D01*
Y513471D01*
X320584Y515732D01*
X319414Y517759D01*
X317759Y519414D01*
X315732Y520584D01*
X313470Y521190D01*
D02*
G37*
G36*
X288071D02*
X285730D01*
X283469Y520584D01*
X281441Y519414D01*
X279786Y517759D01*
X278616Y515732D01*
X278010Y513471D01*
Y511130D01*
X278616Y508869D01*
X279786Y506842D01*
X281441Y505186D01*
X283469Y504016D01*
X285730Y503410D01*
X288071D01*
X290331Y504016D01*
X292359Y505186D01*
X294014Y506842D01*
X295184Y508869D01*
X295790Y511130D01*
Y513471D01*
X295184Y515732D01*
X294014Y517759D01*
X292359Y519414D01*
X290331Y520584D01*
X288071Y521190D01*
D02*
G37*
G36*
X262670D02*
X260330D01*
X258069Y520584D01*
X256042Y519414D01*
X254386Y517759D01*
X253216Y515732D01*
X252610Y513471D01*
Y511130D01*
X253216Y508869D01*
X254386Y506842D01*
X256042Y505186D01*
X258069Y504016D01*
X260330Y503410D01*
X262670D01*
X264932Y504016D01*
X266959Y505186D01*
X268614Y506842D01*
X269784Y508869D01*
X270390Y511130D01*
Y513471D01*
X269784Y515732D01*
X268614Y517759D01*
X266959Y519414D01*
X264932Y520584D01*
X262670Y521190D01*
D02*
G37*
G36*
X237271D02*
X234930D01*
X232669Y520584D01*
X230641Y519414D01*
X228986Y517759D01*
X227816Y515732D01*
X227210Y513471D01*
Y511130D01*
X227816Y508869D01*
X228986Y506842D01*
X230641Y505186D01*
X232669Y504016D01*
X234930Y503410D01*
X237271D01*
X239531Y504016D01*
X241559Y505186D01*
X243214Y506842D01*
X244384Y508869D01*
X244990Y511130D01*
Y513471D01*
X244384Y515732D01*
X243214Y517759D01*
X241559Y519414D01*
X239531Y520584D01*
X237271Y521190D01*
D02*
G37*
G36*
X211870D02*
X209530D01*
X207269Y520584D01*
X205242Y519414D01*
X203586Y517759D01*
X202416Y515732D01*
X201810Y513471D01*
Y511130D01*
X202416Y508869D01*
X203586Y506842D01*
X205242Y505186D01*
X207269Y504016D01*
X209530Y503410D01*
X211870D01*
X214132Y504016D01*
X216159Y505186D01*
X217814Y506842D01*
X218984Y508869D01*
X219590Y511130D01*
Y513471D01*
X218984Y515732D01*
X217814Y517759D01*
X216159Y519414D01*
X214132Y520584D01*
X211870Y521190D01*
D02*
G37*
G36*
X161070D02*
X158730D01*
X156469Y520584D01*
X154441Y519414D01*
X152786Y517759D01*
X151616Y515732D01*
X151010Y513471D01*
Y511130D01*
X151616Y508869D01*
X152786Y506842D01*
X154441Y505186D01*
X156469Y504016D01*
X158730Y503410D01*
X161070D01*
X163332Y504016D01*
X165359Y505186D01*
X167014Y506842D01*
X168184Y508869D01*
X168790Y511130D01*
Y513471D01*
X168184Y515732D01*
X167014Y517759D01*
X165359Y519414D01*
X163332Y520584D01*
X161070Y521190D01*
D02*
G37*
G36*
X135670D02*
X133330D01*
X131069Y520584D01*
X129042Y519414D01*
X127386Y517759D01*
X126216Y515732D01*
X125610Y513471D01*
Y511130D01*
X126216Y508869D01*
X127386Y506842D01*
X129042Y505186D01*
X131069Y504016D01*
X133330Y503410D01*
X135670D01*
X137931Y504016D01*
X139959Y505186D01*
X141614Y506842D01*
X142784Y508869D01*
X143390Y511130D01*
Y513471D01*
X142784Y515732D01*
X141614Y517759D01*
X139959Y519414D01*
X137931Y520584D01*
X135670Y521190D01*
D02*
G37*
G36*
X110271D02*
X107930D01*
X105669Y520584D01*
X103642Y519414D01*
X101986Y517759D01*
X100816Y515732D01*
X100210Y513471D01*
Y511130D01*
X100816Y508869D01*
X101986Y506842D01*
X103642Y505186D01*
X105669Y504016D01*
X107930Y503410D01*
X110271D01*
X112531Y504016D01*
X114559Y505186D01*
X116214Y506842D01*
X117384Y508869D01*
X117990Y511130D01*
Y513471D01*
X117384Y515732D01*
X116214Y517759D01*
X114559Y519414D01*
X112531Y520584D01*
X110271Y521190D01*
D02*
G37*
G36*
X84871D02*
X82530D01*
X80269Y520584D01*
X78242Y519414D01*
X76586Y517759D01*
X75416Y515732D01*
X74810Y513471D01*
Y511130D01*
X75416Y508869D01*
X76586Y506842D01*
X78242Y505186D01*
X80269Y504016D01*
X82530Y503410D01*
X84871D01*
X87132Y504016D01*
X89159Y505186D01*
X90814Y506842D01*
X91984Y508869D01*
X92590Y511130D01*
Y513471D01*
X91984Y515732D01*
X90814Y517759D01*
X89159Y519414D01*
X87132Y520584D01*
X84871Y521190D01*
D02*
G37*
G36*
X25808Y416893D02*
X23367D01*
X21010Y416261D01*
X18896Y415041D01*
X17170Y413315D01*
X15949Y411201D01*
X15318Y408844D01*
Y406403D01*
X15949Y404045D01*
X17170Y401931D01*
X18896Y400205D01*
X21010Y398985D01*
X23367Y398353D01*
X25808D01*
X28166Y398985D01*
X30280Y400205D01*
X32006Y401931D01*
X33226Y404045D01*
X33565Y405309D01*
X44507D01*
X44677Y405139D01*
X45428Y404637D01*
X46314Y404461D01*
X58635D01*
X58974Y403197D01*
X60194Y401083D01*
X61920Y399358D01*
X64034Y398137D01*
X66392Y397505D01*
X68833D01*
X71190Y398137D01*
X73304Y399358D01*
X75030Y401083D01*
X76251Y403197D01*
X76589Y404461D01*
X97593D01*
X98470Y403584D01*
X99221Y403083D01*
X100106Y402906D01*
X122213D01*
X122551Y401643D01*
X123772Y399529D01*
X125498Y397803D01*
X127611Y396583D01*
X129969Y395951D01*
X132410D01*
X134768Y396583D01*
X136881Y397803D01*
X138607Y399529D01*
X139828Y401643D01*
X140459Y404001D01*
Y406441D01*
X139828Y408799D01*
X138607Y410913D01*
X136881Y412639D01*
X134768Y413859D01*
X132410Y414491D01*
X129969D01*
X127611Y413859D01*
X125498Y412639D01*
X123772Y410913D01*
X122551Y408799D01*
X122213Y407535D01*
X101065D01*
X100189Y408412D01*
X99438Y408914D01*
X98552Y409090D01*
X76589D01*
X76251Y410354D01*
X75030Y412467D01*
X73304Y414193D01*
X71190Y415414D01*
X68833Y416045D01*
X66392D01*
X64034Y415414D01*
X61920Y414193D01*
X60194Y412467D01*
X58974Y410354D01*
X58635Y409090D01*
X47273D01*
X47103Y409260D01*
X46352Y409762D01*
X45466Y409938D01*
X33565D01*
X33226Y411201D01*
X32006Y413315D01*
X30280Y415041D01*
X28166Y416261D01*
X25808Y416893D01*
D02*
G37*
G36*
Y391493D02*
X23367D01*
X21010Y390862D01*
X18896Y389641D01*
X17170Y387915D01*
X15949Y385801D01*
X15318Y383444D01*
Y381003D01*
X15949Y378645D01*
X17170Y376531D01*
X18896Y374805D01*
X21010Y373585D01*
X23367Y372953D01*
X25808D01*
X28166Y373585D01*
X30280Y374805D01*
X32006Y376531D01*
X33226Y378645D01*
X33565Y379909D01*
X44507D01*
X44677Y379739D01*
X45428Y379237D01*
X46314Y379061D01*
X58635D01*
X58974Y377797D01*
X60194Y375684D01*
X61920Y373958D01*
X64034Y372737D01*
X66392Y372105D01*
X68833D01*
X71190Y372737D01*
X73304Y373958D01*
X75030Y375684D01*
X76251Y377797D01*
X76589Y379061D01*
X97593D01*
X98470Y378184D01*
X99221Y377683D01*
X100106Y377506D01*
X122213D01*
X122551Y376243D01*
X123772Y374129D01*
X125498Y372403D01*
X127611Y371183D01*
X129969Y370551D01*
X132410D01*
X134768Y371183D01*
X136881Y372403D01*
X138607Y374129D01*
X139828Y376243D01*
X140459Y378601D01*
Y381041D01*
X139828Y383399D01*
X138607Y385513D01*
X136881Y387239D01*
X134768Y388459D01*
X132410Y389091D01*
X129969D01*
X127611Y388459D01*
X125498Y387239D01*
X123772Y385513D01*
X122551Y383399D01*
X122213Y382135D01*
X101065D01*
X100189Y383012D01*
X99438Y383514D01*
X98552Y383690D01*
X76589D01*
X76251Y384953D01*
X75030Y387067D01*
X73304Y388793D01*
X71190Y390014D01*
X68833Y390645D01*
X66392D01*
X64034Y390014D01*
X61920Y388793D01*
X60194Y387067D01*
X58974Y384953D01*
X58635Y383690D01*
X47273D01*
X47103Y383860D01*
X46352Y384362D01*
X45466Y384538D01*
X33565D01*
X33226Y385801D01*
X32006Y387915D01*
X30280Y389641D01*
X28166Y390862D01*
X25808Y391493D01*
D02*
G37*
G36*
X69942Y273308D02*
X67962D01*
X66050Y272796D01*
X64335Y271806D01*
X62935Y270406D01*
X61945Y268691D01*
X61432Y266778D01*
Y264798D01*
X61945Y262885D01*
X62935Y261171D01*
X64335Y259771D01*
X66050Y258781D01*
X67962Y258268D01*
X69942D01*
X71855Y258781D01*
X73570Y259771D01*
X74970Y261171D01*
X75960Y262885D01*
X76472Y264798D01*
Y266778D01*
X75960Y268691D01*
X74970Y270406D01*
X73570Y271806D01*
X71855Y272796D01*
X69942Y273308D01*
D02*
G37*
G36*
X343003Y235348D02*
X340826D01*
X338722Y234784D01*
X336837Y233696D01*
X335297Y232156D01*
X334208Y230270D01*
X333644Y228167D01*
Y225989D01*
X334208Y223886D01*
X335297Y222000D01*
X336837Y220460D01*
X338722Y219372D01*
X340826Y218808D01*
X343003D01*
X345107Y219372D01*
X345893Y219826D01*
X352671Y213048D01*
X353422Y212547D01*
X354308Y212370D01*
X374387D01*
Y204165D01*
X395427D01*
Y225205D01*
X374387D01*
Y216999D01*
X355266D01*
X349167Y223099D01*
X349621Y223886D01*
X350185Y225989D01*
Y228167D01*
X349621Y230270D01*
X348532Y232156D01*
X346992Y233696D01*
X345107Y234784D01*
X343003Y235348D01*
D02*
G37*
G36*
X198328Y183452D02*
X177288D01*
Y162412D01*
X198328D01*
Y183452D01*
D02*
G37*
G36*
X386292Y174405D02*
X383522D01*
X380846Y173688D01*
X378448Y172303D01*
X376489Y170344D01*
X375104Y167945D01*
X374387Y165270D01*
Y162500D01*
X375104Y159824D01*
X376489Y157425D01*
X378448Y155467D01*
X380846Y154082D01*
X383522Y153365D01*
X386292D01*
X388968Y154082D01*
X391367Y155467D01*
X393325Y157425D01*
X394710Y159824D01*
X395178Y161570D01*
X407981D01*
X408613Y160939D01*
X409364Y160437D01*
X410250Y160261D01*
X426352D01*
X426587Y159383D01*
X427676Y157497D01*
X429215Y155958D01*
X431101Y154869D01*
X433204Y154305D01*
X435382D01*
X437485Y154869D01*
X439371Y155958D01*
X440911Y157497D01*
X442000Y159383D01*
X442563Y161486D01*
Y163664D01*
X442000Y165767D01*
X440911Y167653D01*
X439371Y169193D01*
X437485Y170282D01*
X435382Y170845D01*
X433204D01*
X431101Y170282D01*
X429215Y169193D01*
X427676Y167653D01*
X426587Y165767D01*
X426352Y164890D01*
X411208D01*
X410577Y165521D01*
X409826Y166023D01*
X408940Y166199D01*
X395178D01*
X394710Y167945D01*
X393325Y170344D01*
X391367Y172303D01*
X388968Y173688D01*
X386292Y174405D01*
D02*
G37*
G36*
X148809Y194070D02*
X129769D01*
Y186864D01*
X69724D01*
X68838Y186688D01*
X68087Y186186D01*
X54757Y172856D01*
X53624Y173510D01*
X51266Y174142D01*
X48826D01*
X46468Y173510D01*
X44354Y172290D01*
X42628Y170564D01*
X41408Y168450D01*
X40776Y166092D01*
Y163652D01*
X41408Y161294D01*
X42628Y159180D01*
X44354Y157454D01*
X46468Y156234D01*
X48826Y155602D01*
X51266D01*
X53624Y156234D01*
X55738Y157454D01*
X57464Y159180D01*
X58684Y161294D01*
X59316Y163652D01*
Y166092D01*
X58684Y168450D01*
X58030Y169583D01*
X70683Y182235D01*
X129769D01*
Y175030D01*
X145536D01*
X174670Y145895D01*
X175421Y145393D01*
X176307Y145217D01*
X177537D01*
X178004Y143471D01*
X179389Y141072D01*
X181348Y139114D01*
X183747Y137729D01*
X186423Y137012D01*
X189193D01*
X191868Y137729D01*
X194267Y139114D01*
X196226Y141072D01*
X197611Y143471D01*
X198328Y146147D01*
Y148917D01*
X197611Y151592D01*
X196226Y153991D01*
X194267Y155950D01*
X191868Y157335D01*
X189193Y158052D01*
X186423D01*
X183747Y157335D01*
X181348Y155950D01*
X179389Y153991D01*
X178389Y152258D01*
X176307Y151646D01*
X175438Y151674D01*
X148809Y178303D01*
Y194070D01*
D02*
G37*
G36*
X343003Y159148D02*
X340826D01*
X338722Y158584D01*
X336837Y157496D01*
X335297Y155956D01*
X334208Y154070D01*
X333644Y151967D01*
Y149789D01*
X334208Y147686D01*
X335297Y145800D01*
X336837Y144260D01*
X338722Y143172D01*
X339600Y142936D01*
Y111225D01*
X316379Y88004D01*
X279821D01*
X279586Y88882D01*
X278497Y90768D01*
X276957Y92308D01*
X275072Y93396D01*
X272968Y93960D01*
X270791D01*
X268687Y93396D01*
X266802Y92308D01*
X265262Y90768D01*
X264173Y88882D01*
X263938Y88004D01*
X251458D01*
X250572Y87828D01*
X249821Y87326D01*
X195883Y33388D01*
X194837Y33992D01*
X192542Y34607D01*
X190168D01*
X187873Y33992D01*
X186827Y33388D01*
X182764Y37451D01*
X182014Y37952D01*
X181128Y38128D01*
X107077D01*
X106192Y37952D01*
X105441Y37451D01*
X101378Y33388D01*
X100332Y33992D01*
X98038Y34607D01*
X95663D01*
X93369Y33992D01*
X91312Y32805D01*
X89632Y31125D01*
X88445Y29069D01*
X87830Y26774D01*
Y24399D01*
X88445Y22105D01*
X89632Y20049D01*
X91312Y18369D01*
X93369Y17182D01*
X95663Y16567D01*
X98038D01*
X100332Y17182D01*
X102389Y18369D01*
X104068Y20049D01*
X105255Y22105D01*
X105870Y24399D01*
Y26774D01*
X105255Y29069D01*
X104651Y30115D01*
X108036Y33500D01*
X113871D01*
X114818Y31563D01*
X114960Y31000D01*
X113845Y29069D01*
X113230Y26774D01*
Y24399D01*
X113845Y22105D01*
X115032Y20049D01*
X116712Y18369D01*
X118769Y17182D01*
X121063Y16567D01*
X123438D01*
X125732Y17182D01*
X126778Y17786D01*
X130707Y13857D01*
X131457Y13356D01*
X132343Y13180D01*
X206662D01*
X207548Y13356D01*
X208299Y13857D01*
X212227Y17786D01*
X213273Y17182D01*
X215567Y16567D01*
X217943D01*
X220236Y17182D01*
X222293Y18369D01*
X223973Y20049D01*
X225160Y22105D01*
X225775Y24399D01*
Y26774D01*
X225160Y29069D01*
X224556Y30115D01*
X244705Y50264D01*
X283705D01*
X303458Y30510D01*
X302854Y29464D01*
X302239Y27170D01*
Y24795D01*
X302854Y22501D01*
X304041Y20444D01*
X305721Y18764D01*
X307778Y17577D01*
X310072Y16962D01*
X312447D01*
X314741Y17577D01*
X316798Y18764D01*
X318477Y20444D01*
X319664Y22501D01*
X320279Y24795D01*
Y27170D01*
X319664Y29464D01*
X318477Y31521D01*
X316798Y33200D01*
X314741Y34388D01*
X312447Y35002D01*
X310072D01*
X307778Y34388D01*
X306731Y33783D01*
X286300Y54215D01*
X285549Y54716D01*
X284663Y54893D01*
X243746D01*
X242860Y54716D01*
X242109Y54215D01*
X221283Y33388D01*
X220236Y33992D01*
X217943Y34607D01*
X215567D01*
X213273Y33992D01*
X211217Y32805D01*
X209537Y31125D01*
X208350Y29069D01*
X207735Y26774D01*
Y24399D01*
X208350Y22105D01*
X208954Y21059D01*
X205703Y17809D01*
X199868D01*
X199025Y19267D01*
X198723Y20308D01*
X199760Y22105D01*
X200375Y24399D01*
Y26774D01*
X199760Y29069D01*
X199156Y30115D01*
X252417Y83376D01*
X263938D01*
X264173Y82498D01*
X265262Y80612D01*
X266802Y79072D01*
X268687Y77983D01*
X270791Y77420D01*
X272968D01*
X275072Y77983D01*
X276957Y79072D01*
X278497Y80612D01*
X279586Y82498D01*
X279821Y83376D01*
X317338D01*
X318224Y83552D01*
X318974Y84053D01*
X343551Y108630D01*
X344053Y109381D01*
X344229Y110267D01*
Y142936D01*
X345107Y143172D01*
X346992Y144260D01*
X348532Y145800D01*
X349621Y147686D01*
X350185Y149789D01*
Y151967D01*
X349621Y154070D01*
X348532Y155956D01*
X346992Y157496D01*
X345107Y158584D01*
X343003Y159148D01*
D02*
G37*
G36*
X59316Y124142D02*
X40776D01*
Y105602D01*
X56043D01*
X68732Y92913D01*
X69482Y92412D01*
X70368Y92235D01*
X130053D01*
X130418Y90875D01*
X131671Y88705D01*
X133444Y86932D01*
X135615Y85679D01*
X138036Y85030D01*
X140542D01*
X142964Y85679D01*
X145134Y86932D01*
X146907Y88705D01*
X148160Y90875D01*
X148809Y93297D01*
Y95803D01*
X148160Y98224D01*
X146907Y100395D01*
X145134Y102168D01*
X142964Y103421D01*
X140542Y104070D01*
X138036D01*
X135615Y103421D01*
X133444Y102168D01*
X131671Y100395D01*
X130418Y98224D01*
X130053Y96864D01*
X71327D01*
X59316Y108875D01*
Y124142D01*
D02*
G37*
G36*
X349168Y93960D02*
X346991D01*
X344888Y93396D01*
X343002Y92308D01*
X341462Y90768D01*
X340373Y88882D01*
X339810Y86779D01*
Y84601D01*
X340373Y82498D01*
X341462Y80612D01*
X343002Y79072D01*
X344888Y77983D01*
X346991Y77420D01*
X349168D01*
X351272Y77983D01*
X353158Y79072D01*
X354697Y80612D01*
X355786Y82498D01*
X356350Y84601D01*
Y86779D01*
X355786Y88882D01*
X354697Y90768D01*
X353158Y92308D01*
X351272Y93396D01*
X349168Y93960D01*
D02*
G37*
G36*
X414061Y62141D02*
X395521D01*
Y43601D01*
X414061D01*
Y62141D01*
D02*
G37*
G36*
X287047Y35002D02*
X284672D01*
X282378Y34388D01*
X280321Y33200D01*
X278641Y31521D01*
X277454Y29464D01*
X276839Y27170D01*
Y24795D01*
X277454Y22501D01*
X278641Y20444D01*
X280321Y18764D01*
X282378Y17577D01*
X284672Y16962D01*
X287047D01*
X289341Y17577D01*
X291398Y18764D01*
X293077Y20444D01*
X294265Y22501D01*
X294879Y24795D01*
Y27170D01*
X294265Y29464D01*
X293077Y31521D01*
X291398Y33200D01*
X289341Y34388D01*
X287047Y35002D01*
D02*
G37*
%LPD*%
G36*
X183554Y30115D02*
X182950Y29069D01*
X182335Y26774D01*
Y24399D01*
X182950Y22105D01*
X183987Y20308D01*
X183685Y19267D01*
X182842Y17809D01*
X133302D01*
X130051Y21059D01*
X130655Y22105D01*
X131270Y24399D01*
Y26774D01*
X130655Y29069D01*
X129541Y31000D01*
X129682Y31563D01*
X130629Y33500D01*
X180169D01*
X183554Y30115D01*
D02*
G37*
D11*
X224528Y189285D02*
X384907D01*
X162387Y251426D02*
X224528Y189285D01*
X58390Y251426D02*
X162387D01*
X47353Y240388D02*
X58390Y251426D01*
X70368Y94550D02*
X139289D01*
X50046Y114872D02*
X70368Y94550D01*
X354308Y214685D02*
X384907D01*
X341914Y227078D02*
X354308Y214685D01*
X451764Y524764D02*
X464700Y537700D01*
X451764Y508000D02*
Y524764D01*
X436270Y492506D02*
X451764Y508000D01*
X226314Y492506D02*
X436270D01*
X69724Y184550D02*
X139289D01*
X50046Y164872D02*
X69724Y184550D01*
X341914Y110267D02*
Y150878D01*
X317338Y85690D02*
X341914Y110267D01*
X271880Y85690D02*
X317338D01*
X162387Y251426D02*
X171704Y260743D01*
Y390106D01*
X131189Y430621D02*
X171704Y390106D01*
X191355Y25587D02*
X251458Y85690D01*
X271880D01*
X67612Y432175D02*
X97083Y461646D01*
Y468034D01*
X176307Y147532D02*
X187808D01*
X139289Y184550D02*
X176307Y147532D01*
X135497Y300736D02*
X162387Y327626D01*
X82301Y300736D02*
X135497D01*
X47353Y265788D02*
X82301Y300736D01*
X131189Y430621D02*
X241031D01*
X278584Y468174D01*
X216755Y25587D02*
X243746Y52578D01*
X284663D01*
X311259Y25982D01*
X181128Y35814D02*
X191355Y25587D01*
X107077Y35814D02*
X181128D01*
X96850Y25587D02*
X107077Y35814D01*
X206662Y15494D02*
X216755Y25587D01*
X132343Y15494D02*
X206662D01*
X122250Y25587D02*
X132343Y15494D01*
X46314Y432175D02*
X67612D01*
X45466Y433023D02*
X46314Y432175D01*
X24588Y433023D02*
X45466D01*
X100106Y405221D02*
X131189D01*
X98552Y406775D02*
X100106Y405221D01*
X67612Y406775D02*
X98552D01*
X46314D02*
X67612D01*
X45466Y407623D02*
X46314Y406775D01*
X24588Y407623D02*
X45466D01*
X410250Y162575D02*
X434293D01*
X408940Y163885D02*
X410250Y162575D01*
X384907Y163885D02*
X408940D01*
X100106Y379821D02*
X131189D01*
X98552Y381375D02*
X100106Y379821D01*
X67612Y381375D02*
X98552D01*
X46314D02*
X67612D01*
X45466Y382223D02*
X46314Y381375D01*
X24588Y382223D02*
X45466D01*
X96943Y468174D02*
X97083Y468034D01*
D19*
X187808Y122132D02*
D03*
Y147532D02*
D03*
X384907Y163885D02*
D03*
Y189285D02*
D03*
D20*
X187808Y172932D02*
D03*
X384907Y214685D02*
D03*
D24*
X159900Y512300D02*
D03*
X134500D02*
D03*
X464700Y537700D02*
D03*
X83700Y512300D02*
D03*
Y537700D02*
D03*
X109100Y512300D02*
D03*
Y537700D02*
D03*
X134500D02*
D03*
X159900D02*
D03*
X185300Y512300D02*
D03*
Y537700D02*
D03*
X210700Y512300D02*
D03*
Y537700D02*
D03*
X236100Y512300D02*
D03*
Y537700D02*
D03*
X261500Y512300D02*
D03*
Y537700D02*
D03*
X286900Y512300D02*
D03*
Y537700D02*
D03*
X312300Y512300D02*
D03*
Y537700D02*
D03*
X337700Y512300D02*
D03*
Y537700D02*
D03*
X363100Y512300D02*
D03*
Y537700D02*
D03*
X388500Y512300D02*
D03*
Y537700D02*
D03*
X413900Y512300D02*
D03*
Y537700D02*
D03*
X439300Y512300D02*
D03*
Y537700D02*
D03*
X464700Y512300D02*
D03*
X490100D02*
D03*
Y537700D02*
D03*
X515500Y512300D02*
D03*
Y537700D02*
D03*
X540900Y512300D02*
D03*
Y537700D02*
D03*
X566300Y512300D02*
D03*
Y537700D02*
D03*
D25*
X139289Y94550D02*
D03*
D27*
X68952Y265788D02*
D03*
D28*
X47353Y240388D02*
D03*
Y265788D02*
D03*
Y291188D02*
D03*
D29*
Y316588D02*
D03*
D35*
X96943Y468174D02*
X278584D01*
X79523D02*
X96943D01*
X65023Y482675D02*
Y519023D01*
Y482675D02*
X79523Y468174D01*
X65023Y519023D02*
X83700Y537700D01*
D38*
X139289Y184550D02*
D03*
D39*
X131189Y354421D02*
D03*
Y379821D02*
D03*
Y405221D02*
D03*
X24588Y382223D02*
D03*
X67612Y381375D02*
D03*
X50046Y164872D02*
D03*
X454791Y52871D02*
D03*
X67612Y355975D02*
D03*
Y406775D02*
D03*
X24588Y356823D02*
D03*
Y407623D02*
D03*
D40*
X131189Y430621D02*
D03*
X50046Y114872D02*
D03*
X67612Y432175D02*
D03*
X24588Y433023D02*
D03*
D41*
X341914Y227078D02*
D03*
Y150878D02*
D03*
X510493Y162575D02*
D03*
X434293D02*
D03*
X348080Y85690D02*
D03*
X162387Y327626D02*
D03*
Y251426D02*
D03*
X271880Y85690D02*
D03*
D42*
X122250Y25587D02*
D03*
X216755D02*
D03*
X311259Y25982D02*
D03*
X285859D02*
D03*
X191355Y25587D02*
D03*
X96850D02*
D03*
D43*
X404791Y52871D02*
D03*
D44*
X336659Y25982D02*
D03*
X242155Y25587D02*
D03*
X147650D02*
D03*
D45*
X35000Y525000D02*
D03*
X615000Y35000D02*
D03*
X35000D02*
D03*
X615000Y525000D02*
D03*
D46*
X226314Y492506D02*
D03*
D47*
X711192Y543524D02*
D03*
X651978Y543070D02*
D03*
X829254Y542492D02*
D03*
X278584Y468174D02*
D03*
D48*
X83700Y537700D02*
X109100D01*
M02*
