M48
;Layer_Color=9474304
;FILE_FORMAT=4:4
METRIC,LZ
;TYPE=PLATED
T1F00S00C0.3810
T2F00S00C0.7112
T3F00S00C0.8000
T4F00S00C1.1000
%
T01
X00182118Y00039018
X00236728Y00066802
X00278892Y00058518
X00285242Y0004318
X00293116Y00028702
Y00019558
T02
X0017272Y0007239
X0023368Y00406908
X00325374Y00429768
X00072644Y00385064
X00063754Y00255778
T03
X00115265Y00078791
X00097587Y00096469
X00365455Y00093421
X00347777Y00075743
X00418405Y00169536
X00424875Y00193684
X00405284Y0031785
X00392784Y00339501
X00327975Y00407362
X00306324Y00419862
X00164653Y00414582
X00143002Y00402082
X00070258Y00333405
X00057758Y00311754
X00044009Y00200796
X00050479Y00176648
T04
X00185928Y-00011176
X00211328
X00236728
X00262128
X00287528
M30
