G04*
G04 #@! TF.GenerationSoftware,Altium Limited,Altium Designer,22.7.1 (60)*
G04*
G04 Layer_Color=16711935*
%FSLAX44Y44*%
%MOMM*%
G71*
G04*
G04 #@! TF.SameCoordinates,34583956-BA44-4E5B-BA21-D6171543F883*
G04*
G04*
G04 #@! TF.FilePolarity,Negative*
G04*
G01*
G75*
%ADD24C,1.7500*%
%ADD25R,1.7500X1.7500*%
%ADD26C,1.3500*%
%ADD27C,1.4200*%
%ADD28C,0.9120*%
D24*
X236728Y-11176D02*
D03*
X211328D02*
D03*
X262128D02*
D03*
X287528D02*
D03*
D25*
X185928D02*
D03*
D26*
X115265Y78791D02*
D03*
X97587Y96469D02*
D03*
X418405Y169536D02*
D03*
X424875Y193684D02*
D03*
X306324Y419862D02*
D03*
X327975Y407362D02*
D03*
X143002Y402082D02*
D03*
X70258Y333405D02*
D03*
X57758Y311754D02*
D03*
X164653Y414582D02*
D03*
X392784Y339501D02*
D03*
X405284Y317850D02*
D03*
X365455Y93421D02*
D03*
X347777Y75743D02*
D03*
X44009Y200796D02*
D03*
X50479Y176648D02*
D03*
D27*
X325374Y429768D02*
D03*
X72644Y385064D02*
D03*
X172720Y72390D02*
D03*
X233680Y406908D02*
D03*
X63754Y255778D02*
D03*
D28*
X293116Y19558D02*
D03*
X278892Y58518D02*
D03*
X285242Y43180D02*
D03*
X293116Y28702D02*
D03*
X182118Y39018D02*
D03*
X236728Y66802D02*
D03*
M02*
