G04*
G04 #@! TF.GenerationSoftware,Altium Limited,Altium Designer,22.7.1 (60)*
G04*
G04 Layer_Color=32768*
%FSLAX44Y44*%
%MOMM*%
G71*
G04*
G04 #@! TF.SameCoordinates,34583956-BA44-4E5B-BA21-D6171543F883*
G04*
G04*
G04 #@! TF.FilePolarity,Positive*
G04*
G01*
G75*
%ADD36C,0.0010*%
%ADD37C,0.1000*%
%ADD38C,0.0500*%
D36*
X169926Y-44196D02*
X300482D01*
D37*
X241300Y-39036D02*
Y-29036D01*
X236300Y-34036D02*
X246300D01*
X227300Y-26536D02*
X255300D01*
X227300Y-41536D02*
X255300D01*
X227300D02*
Y-26536D01*
X255300Y-41536D02*
Y-26536D01*
X276098Y-38782D02*
Y-28782D01*
X271098Y-33782D02*
X281098D01*
X262098Y-26282D02*
X290098D01*
X262098Y-41282D02*
X290098D01*
X262098D02*
Y-26282D01*
X290098Y-41282D02*
Y-26282D01*
X390418Y116098D02*
X397490Y123170D01*
X390418D02*
X397490Y116098D01*
X389358Y134837D02*
X409157Y115038D01*
X378751Y124230D02*
X398550Y104431D01*
X378751Y124230D02*
X389358Y134837D01*
X398550Y104431D02*
X409157Y115038D01*
X429032Y266018D02*
Y276018D01*
X424032Y271018D02*
X434032D01*
X415032Y278518D02*
X443032D01*
X415032Y263518D02*
X443032D01*
X415032D02*
Y278518D01*
X443032Y263518D02*
Y278518D01*
X358668Y383012D02*
X365740Y375940D01*
X358668D02*
X365740Y383012D01*
X347001Y374880D02*
X366800Y394679D01*
X357608Y364273D02*
X377407Y384072D01*
X347001Y374880D02*
X357608Y364273D01*
X366800Y394679D02*
X377407Y384072D01*
X263478Y430048D02*
X273478D01*
X268478Y425048D02*
Y435048D01*
X260978Y416048D02*
Y444048D01*
X275978Y416048D02*
Y444048D01*
X260978Y416048D02*
X275978D01*
X260978Y444048D02*
X275978D01*
X197692Y429032D02*
X207692D01*
X202692Y424032D02*
Y434032D01*
X195192Y415032D02*
Y443032D01*
X210192Y415032D02*
Y443032D01*
X195192Y415032D02*
X210192D01*
X195192Y443032D02*
X210192D01*
X97556Y373654D02*
X104628Y380726D01*
X97556D02*
X104628Y373654D01*
X85889Y381786D02*
X105688Y361987D01*
X96496Y392393D02*
X116295Y372594D01*
X105688Y361987D02*
X116295Y372594D01*
X85889Y381786D02*
X96496Y392393D01*
X36550Y268304D02*
Y278304D01*
X31550Y273304D02*
X41550D01*
X22550Y265804D02*
X50550D01*
X22550Y280804D02*
X50550D01*
Y265804D02*
Y280804D01*
X22550Y265804D02*
Y280804D01*
X59964Y136378D02*
X67036Y129306D01*
X59964D02*
X67036Y136378D01*
X58904Y117639D02*
X78703Y137438D01*
X48297Y128246D02*
X68096Y148045D01*
X78703Y137438D01*
X48297Y128246D02*
X58904Y117639D01*
X205486Y-38782D02*
Y-28782D01*
X200486Y-33782D02*
X210486D01*
X191486Y-41282D02*
X219486D01*
X191486Y-26282D02*
X219486D01*
Y-41282D02*
Y-26282D01*
X191486Y-41282D02*
Y-26282D01*
X235458Y43768D02*
Y53768D01*
X230458Y48768D02*
X240458D01*
D38*
X199958Y14768D02*
X270958D01*
X199958Y82768D02*
X270958D01*
Y14768D02*
Y82768D01*
X199958Y14768D02*
Y82768D01*
X231728Y-11176D02*
X241728D01*
X236728Y-16176D02*
Y-6176D01*
X169728Y4274D02*
X303728D01*
Y-26626D02*
Y4274D01*
X169728Y-26626D02*
X303728D01*
X169728D02*
Y4274D01*
M02*
