G04*
G04 #@! TF.GenerationSoftware,Altium Limited,Altium Designer,22.7.1 (60)*
G04*
G04 Layer_Color=8388736*
%FSLAX44Y44*%
%MOMM*%
G71*
G04*
G04 #@! TF.SameCoordinates,34583956-BA44-4E5B-BA21-D6171543F883*
G04*
G04*
G04 #@! TF.FilePolarity,Negative*
G04*
G01*
G75*
%ADD19R,1.1500X1.4500*%
G04:AMPARAMS|DCode=20|XSize=1.45mm|YSize=1.15mm|CornerRadius=0mm|HoleSize=0mm|Usage=FLASHONLY|Rotation=225.000|XOffset=0mm|YOffset=0mm|HoleType=Round|Shape=Rectangle|*
%AMROTATEDRECTD20*
4,1,4,0.1061,0.9192,0.9192,0.1061,-0.1061,-0.9192,-0.9192,-0.1061,0.1061,0.9192,0.0*
%
%ADD20ROTATEDRECTD20*%

G04:AMPARAMS|DCode=21|XSize=1.45mm|YSize=1.15mm|CornerRadius=0mm|HoleSize=0mm|Usage=FLASHONLY|Rotation=315.000|XOffset=0mm|YOffset=0mm|HoleType=Round|Shape=Rectangle|*
%AMROTATEDRECTD21*
4,1,4,-0.9192,0.1061,-0.1061,0.9192,0.9192,-0.1061,0.1061,-0.9192,-0.9192,0.1061,0.0*
%
%ADD21ROTATEDRECTD21*%

%ADD22R,1.4500X1.1500*%
G04:AMPARAMS|DCode=23|XSize=0.55mm|YSize=1.35mm|CornerRadius=0.125mm|HoleSize=0mm|Usage=FLASHONLY|Rotation=90.000|XOffset=0mm|YOffset=0mm|HoleType=Round|Shape=RoundedRectangle|*
%AMROUNDEDRECTD23*
21,1,0.5500,1.1000,0,0,90.0*
21,1,0.3000,1.3500,0,0,90.0*
1,1,0.2500,0.5500,0.1500*
1,1,0.2500,0.5500,-0.1500*
1,1,0.2500,-0.5500,-0.1500*
1,1,0.2500,-0.5500,0.1500*
%
%ADD23ROUNDEDRECTD23*%
%ADD24C,1.7500*%
%ADD25R,1.7500X1.7500*%
%ADD26C,1.3500*%
%ADD27C,1.4200*%
%ADD28C,0.9120*%
D19*
X233300Y-34036D02*
D03*
X249300D02*
D03*
X268098Y-33782D02*
D03*
X284098D02*
D03*
X421032Y271018D02*
D03*
X437032D02*
D03*
X44550Y273304D02*
D03*
X28550D02*
D03*
X213486Y-33782D02*
D03*
X197486D02*
D03*
D20*
X388297Y125291D02*
D03*
X399611Y113977D02*
D03*
X106749Y371533D02*
D03*
X95435Y382847D02*
D03*
D21*
X356547Y373819D02*
D03*
X367861Y385133D02*
D03*
X69157Y138499D02*
D03*
X57843Y127185D02*
D03*
D22*
X268478Y422048D02*
D03*
Y438048D02*
D03*
X202692Y421032D02*
D03*
Y437032D02*
D03*
D23*
X263958Y19518D02*
D03*
Y26018D02*
D03*
Y32518D02*
D03*
Y39018D02*
D03*
Y45518D02*
D03*
Y52018D02*
D03*
Y58518D02*
D03*
Y65018D02*
D03*
Y71518D02*
D03*
Y78018D02*
D03*
X206958Y19518D02*
D03*
Y26018D02*
D03*
Y32518D02*
D03*
Y39018D02*
D03*
Y45518D02*
D03*
Y52018D02*
D03*
Y58518D02*
D03*
Y65018D02*
D03*
Y71518D02*
D03*
Y78018D02*
D03*
D24*
X236728Y-11176D02*
D03*
X211328D02*
D03*
X262128D02*
D03*
X287528D02*
D03*
D25*
X185928D02*
D03*
D26*
X115265Y78791D02*
D03*
X97587Y96469D02*
D03*
X418405Y169536D02*
D03*
X424875Y193684D02*
D03*
X306324Y419862D02*
D03*
X327975Y407362D02*
D03*
X143002Y402082D02*
D03*
X70258Y333405D02*
D03*
X57758Y311754D02*
D03*
X164653Y414582D02*
D03*
X392784Y339501D02*
D03*
X405284Y317850D02*
D03*
X365455Y93421D02*
D03*
X347777Y75743D02*
D03*
X44009Y200796D02*
D03*
X50479Y176648D02*
D03*
D27*
X325374Y429768D02*
D03*
X72644Y385064D02*
D03*
X172720Y72390D02*
D03*
X233680Y406908D02*
D03*
X63754Y255778D02*
D03*
D28*
X293116Y19558D02*
D03*
X278892Y58518D02*
D03*
X285242Y43180D02*
D03*
X293116Y28702D02*
D03*
X182118Y39018D02*
D03*
X236728Y66802D02*
D03*
M02*
