G04*
G04 #@! TF.GenerationSoftware,Altium Limited,Altium Designer,22.7.1 (60)*
G04*
G04 Layer_Physical_Order=2*
G04 Layer_Color=16711680*
%FSLAX44Y44*%
%MOMM*%
G71*
G04*
G04 #@! TF.SameCoordinates,34583956-BA44-4E5B-BA21-D6171543F883*
G04*
G04*
G04 #@! TF.FilePolarity,Positive*
G04*
G01*
G75*
%ADD30C,0.2032*%
%ADD31C,1.6000*%
%ADD32R,1.6000X1.6000*%
%ADD33C,1.2000*%
%ADD34C,1.2700*%
%ADD35C,0.7620*%
G36*
X234950Y466065D02*
X242516Y466065D01*
X257615Y465076D01*
X272618Y463101D01*
X287459Y460149D01*
X302075Y456232D01*
X316404Y451368D01*
X330384Y445578D01*
X343955Y438885D01*
X357060Y431319D01*
X369642Y422912D01*
X381647Y413700D01*
X393023Y403723D01*
X403723Y393023D01*
X413701Y381647D01*
X422912Y369642D01*
X431319Y357060D01*
X438885Y343955D01*
X445578Y330384D01*
X451368Y316404D01*
X456232Y302075D01*
X460149Y287459D01*
X463101Y272618D01*
X465075Y257615D01*
X466065Y242516D01*
X466065Y234950D01*
X466065Y228414D01*
X465326Y215363D01*
X463851Y202375D01*
X461645Y189490D01*
X458713Y176751D01*
X455066Y164198D01*
X450716Y151872D01*
X445676Y139811D01*
X439963Y128054D01*
X433594Y116638D01*
X426590Y105601D01*
X418974Y94977D01*
X410769Y84801D01*
X402002Y75105D01*
X392702Y65919D01*
X382897Y57274D01*
X372619Y49197D01*
X361902Y41714D01*
X350778Y34848D01*
X339284Y28621D01*
X333371Y25838D01*
X332812Y25425D01*
X332239Y25031D01*
X332204Y24976D01*
X332151Y24938D01*
X331793Y24342D01*
X331415Y23759D01*
X331403Y23695D01*
X331370Y23639D01*
X331267Y22952D01*
X331141Y22268D01*
X331589Y-9373D01*
X299889Y-41073D01*
X172551Y-41073D01*
X144601Y-13123D01*
X144600Y19671D01*
X144460Y20377D01*
X144333Y21086D01*
X144312Y21119D01*
X144304Y21158D01*
X143905Y21756D01*
X143516Y22363D01*
X143484Y22385D01*
X143462Y22418D01*
X142864Y22818D01*
X142273Y23230D01*
X136141Y25914D01*
X124208Y31983D01*
X112647Y38733D01*
X101495Y46140D01*
X90791Y54180D01*
X80570Y62827D01*
X70867Y72051D01*
X61714Y81820D01*
X53142Y92103D01*
X45179Y102866D01*
X37852Y114070D01*
X31187Y125680D01*
X25204Y137657D01*
X19925Y149959D01*
X15366Y162547D01*
X11544Y175377D01*
X8470Y188407D01*
X6156Y201593D01*
X4609Y214891D01*
X3835Y228256D01*
X3835Y234950D01*
X3834Y242516D01*
X4824Y257616D01*
X6799Y272618D01*
X9751Y287459D01*
X13667Y302075D01*
X18531Y316404D01*
X24322Y330384D01*
X31015Y343956D01*
X38581Y357060D01*
X46987Y369642D01*
X56199Y381647D01*
X66176Y393024D01*
X76876Y403724D01*
X88253Y413701D01*
X100258Y422913D01*
X112840Y431319D01*
X125944Y438885D01*
X139516Y445578D01*
X153496Y451368D01*
X167825Y456232D01*
X182441Y460149D01*
X197282Y463101D01*
X212285Y465076D01*
X227384Y466065D01*
X234950Y466065D01*
D02*
G37*
%LPC*%
G36*
X236189Y460577D02*
X234219D01*
X233844Y460502D01*
X233461D01*
X231529Y460118D01*
X231176Y459971D01*
X230800Y459897D01*
X228981Y459143D01*
X228662Y458930D01*
X228309Y458784D01*
X226671Y457690D01*
X226401Y457419D01*
X226082Y457206D01*
X224690Y455813D01*
X224477Y455495D01*
X224207Y455225D01*
X223112Y453587D01*
X222966Y453233D01*
X222753Y452915D01*
X221999Y451096D01*
X221925Y450720D01*
X221778Y450367D01*
X221394Y448435D01*
Y448052D01*
X221319Y447677D01*
Y445707D01*
X221394Y445332D01*
Y444949D01*
X221778Y443017D01*
X221925Y442664D01*
X221999Y442289D01*
X222753Y440469D01*
X222966Y440150D01*
X223112Y439797D01*
X224207Y438159D01*
X224477Y437889D01*
X224690Y437570D01*
X226082Y436178D01*
X226401Y435965D01*
X226671Y435695D01*
X228309Y434600D01*
X228662Y434454D01*
X228981Y434241D01*
X230800Y433487D01*
X231176Y433413D01*
X231529Y433266D01*
X233461Y432882D01*
X233844D01*
X234219Y432807D01*
X236189D01*
X236564Y432882D01*
X236947D01*
X238879Y433266D01*
X239232Y433413D01*
X239608Y433487D01*
X241427Y434241D01*
X241745Y434454D01*
X242099Y434600D01*
X243737Y435695D01*
X244007Y435965D01*
X244326Y436178D01*
X245718Y437570D01*
X245931Y437889D01*
X246201Y438159D01*
X247296Y439797D01*
X247442Y440150D01*
X247655Y440469D01*
X248409Y442289D01*
X248483Y442664D01*
X248630Y443017D01*
X249014Y444949D01*
Y445332D01*
X249089Y445707D01*
Y447677D01*
X249014Y448052D01*
Y448435D01*
X248630Y450367D01*
X248483Y450720D01*
X248409Y451096D01*
X247655Y452915D01*
X247442Y453233D01*
X247296Y453587D01*
X246201Y455225D01*
X245931Y455495D01*
X245718Y455813D01*
X244326Y457206D01*
X244007Y457419D01*
X243737Y457690D01*
X242099Y458784D01*
X241745Y458930D01*
X241427Y459143D01*
X239608Y459897D01*
X239232Y459971D01*
X238879Y460118D01*
X236947Y460502D01*
X236564D01*
X236189Y460577D01*
D02*
G37*
G36*
X307314Y427386D02*
X305333D01*
X303420Y426873D01*
X301704Y425883D01*
X300303Y424482D01*
X299313Y422766D01*
X298800Y420853D01*
Y418871D01*
X299313Y416958D01*
X300303Y415242D01*
X301704Y413841D01*
X303420Y412851D01*
X305333Y412338D01*
X307314D01*
X309228Y412851D01*
X310944Y413841D01*
X312345Y415242D01*
X313335Y416958D01*
X313848Y418871D01*
Y420853D01*
X313335Y422766D01*
X312345Y424482D01*
X310944Y425883D01*
X309228Y426873D01*
X307314Y427386D01*
D02*
G37*
G36*
X165643Y422106D02*
X163662D01*
X161748Y421593D01*
X160033Y420602D01*
X158632Y419202D01*
X157641Y417486D01*
X157128Y415572D01*
Y413591D01*
X157641Y411678D01*
X158632Y409962D01*
X160033Y408561D01*
X161748Y407571D01*
X163662Y407058D01*
X165643D01*
X167557Y407571D01*
X169272Y408561D01*
X170673Y409962D01*
X171664Y411678D01*
X172176Y413591D01*
Y415572D01*
X171664Y417486D01*
X170673Y419202D01*
X169272Y420602D01*
X167557Y421593D01*
X165643Y422106D01*
D02*
G37*
G36*
X328965Y414886D02*
X326984D01*
X325071Y414373D01*
X323355Y413383D01*
X321954Y411982D01*
X320964Y410266D01*
X320451Y408353D01*
Y406372D01*
X320964Y404458D01*
X321954Y402742D01*
X323355Y401342D01*
X325071Y400351D01*
X326984Y399838D01*
X328965D01*
X330879Y400351D01*
X332595Y401342D01*
X333996Y402742D01*
X334986Y404458D01*
X335499Y406372D01*
Y408353D01*
X334986Y410266D01*
X333996Y411982D01*
X332595Y413383D01*
X330879Y414373D01*
X328965Y414886D01*
D02*
G37*
G36*
X143993Y409606D02*
X142011D01*
X140098Y409093D01*
X138382Y408103D01*
X136981Y406702D01*
X135991Y404986D01*
X135478Y403073D01*
Y401091D01*
X135991Y399178D01*
X136981Y397462D01*
X138382Y396061D01*
X140098Y395071D01*
X142011Y394558D01*
X143993D01*
X145906Y395071D01*
X147622Y396061D01*
X149023Y397462D01*
X150013Y399178D01*
X150526Y401091D01*
Y403073D01*
X150013Y404986D01*
X149023Y406702D01*
X147622Y408103D01*
X145906Y409093D01*
X143993Y409606D01*
D02*
G37*
G36*
X240844Y388835D02*
X229056D01*
X228905Y388805D01*
X228752Y388823D01*
X217001Y387898D01*
X216852Y387856D01*
X216698Y387862D01*
X205056Y386018D01*
X204911Y385965D01*
X204757Y385959D01*
X193296Y383207D01*
X193155Y383142D01*
X193002Y383124D01*
X181792Y379482D01*
X181657Y379406D01*
X181506Y379376D01*
X170616Y374865D01*
X170488Y374780D01*
X170339Y374738D01*
X159837Y369387D01*
X159715Y369291D01*
X159571Y369238D01*
X149520Y363079D01*
X149407Y362974D01*
X149267Y362909D01*
X139731Y355981D01*
X139626Y355868D01*
X139491Y355792D01*
X130528Y348137D01*
X130433Y348016D01*
X130304Y347930D01*
X121970Y339595D01*
X121884Y339467D01*
X121763Y339371D01*
X114108Y330409D01*
X114032Y330274D01*
X113919Y330169D01*
X106991Y320633D01*
X106926Y320493D01*
X106821Y320379D01*
X100662Y310329D01*
X100609Y310185D01*
X100513Y310063D01*
X95162Y299561D01*
X95120Y299412D01*
X95035Y299284D01*
X90524Y288394D01*
X90494Y288243D01*
X90418Y288108D01*
X86776Y276898D01*
X86758Y276744D01*
X86693Y276604D01*
X83941Y265143D01*
X83935Y264989D01*
X83882Y264844D01*
X82038Y253202D01*
X82044Y253048D01*
X82002Y252899D01*
X81077Y241148D01*
X81096Y240995D01*
X81065Y240844D01*
Y234950D01*
X81065Y229056D01*
X81095Y228905D01*
X81077Y228752D01*
X82002Y217001D01*
X82044Y216852D01*
X82038Y216698D01*
X83882Y205056D01*
X83935Y204911D01*
X83941Y204757D01*
X86693Y193296D01*
X86758Y193155D01*
X86776Y193002D01*
X90418Y181792D01*
X90494Y181657D01*
X90524Y181506D01*
X95035Y170616D01*
X95120Y170488D01*
X95162Y170339D01*
X100513Y159837D01*
X100609Y159715D01*
X100662Y159571D01*
X106821Y149520D01*
X106926Y149407D01*
X106991Y149267D01*
X113919Y139731D01*
X114032Y139626D01*
X114108Y139491D01*
X121763Y130528D01*
X121884Y130433D01*
X121970Y130304D01*
X130304Y121970D01*
X130433Y121884D01*
X130528Y121763D01*
X139491Y114108D01*
X139626Y114032D01*
X139731Y113919D01*
X149267Y106991D01*
X149407Y106926D01*
X149520Y106821D01*
X159571Y100662D01*
X159715Y100609D01*
X159837Y100513D01*
X170339Y95162D01*
X170488Y95120D01*
X170616Y95035D01*
X181506Y90524D01*
X181657Y90494D01*
X181792Y90418D01*
X193002Y86776D01*
X193155Y86758D01*
X193296Y86693D01*
X204757Y83941D01*
X204911Y83935D01*
X205056Y83882D01*
X216698Y82038D01*
X216852Y82044D01*
X217001Y82002D01*
X228752Y81077D01*
X228905Y81096D01*
X229056Y81065D01*
X234950D01*
X240844Y81065D01*
X240995Y81095D01*
X241148Y81077D01*
X252899Y82002D01*
X253048Y82044D01*
X253202Y82038D01*
X264844Y83882D01*
X264989Y83935D01*
X265143Y83941D01*
X276604Y86693D01*
X276744Y86758D01*
X276898Y86776D01*
X288108Y90418D01*
X288243Y90494D01*
X288394Y90524D01*
X299284Y95035D01*
X299412Y95120D01*
X299561Y95162D01*
X310063Y100513D01*
X310185Y100609D01*
X310329Y100662D01*
X320379Y106821D01*
X320493Y106926D01*
X320633Y106991D01*
X330169Y113919D01*
X330274Y114032D01*
X330409Y114108D01*
X339371Y121763D01*
X339467Y121884D01*
X339595Y121970D01*
X347930Y130304D01*
X348016Y130433D01*
X348137Y130528D01*
X355792Y139491D01*
X355868Y139626D01*
X355981Y139731D01*
X362909Y149267D01*
X362974Y149407D01*
X363079Y149520D01*
X369238Y159571D01*
X369291Y159715D01*
X369387Y159837D01*
X374738Y170339D01*
X374780Y170488D01*
X374865Y170616D01*
X379376Y181506D01*
X379406Y181657D01*
X379482Y181792D01*
X383124Y193002D01*
X383142Y193155D01*
X383207Y193296D01*
X385959Y204757D01*
X385965Y204911D01*
X386018Y205056D01*
X387862Y216698D01*
X387856Y216852D01*
X387898Y217001D01*
X388823Y228752D01*
X388805Y228905D01*
X388835Y229056D01*
Y240844D01*
X388805Y240995D01*
X388823Y241148D01*
X387898Y252899D01*
X387856Y253048D01*
X387862Y253202D01*
X386018Y264844D01*
X385965Y264989D01*
X385959Y265143D01*
X383207Y276604D01*
X383142Y276744D01*
X383124Y276898D01*
X379482Y288108D01*
X379406Y288243D01*
X379376Y288394D01*
X374865Y299284D01*
X374780Y299412D01*
X374738Y299561D01*
X369387Y310063D01*
X369291Y310185D01*
X369238Y310329D01*
X363079Y320379D01*
X362974Y320493D01*
X362909Y320633D01*
X355981Y330169D01*
X355868Y330274D01*
X355792Y330409D01*
X348137Y339371D01*
X348016Y339467D01*
X347930Y339595D01*
X339595Y347930D01*
X339467Y348016D01*
X339371Y348137D01*
X330409Y355792D01*
X330274Y355868D01*
X330169Y355981D01*
X320633Y362909D01*
X320493Y362974D01*
X320379Y363079D01*
X310329Y369238D01*
X310185Y369291D01*
X310063Y369387D01*
X299561Y374738D01*
X299412Y374780D01*
X299284Y374865D01*
X288394Y379376D01*
X288243Y379406D01*
X288108Y379482D01*
X276898Y383124D01*
X276744Y383142D01*
X276604Y383207D01*
X265143Y385959D01*
X264989Y385965D01*
X264844Y386018D01*
X253202Y387862D01*
X253048Y387856D01*
X252899Y387898D01*
X241148Y388823D01*
X240995Y388805D01*
X240844Y388835D01*
D02*
G37*
G36*
X393775Y347025D02*
X391794D01*
X389880Y346513D01*
X388164Y345522D01*
X386763Y344121D01*
X385773Y342406D01*
X385260Y340492D01*
Y338511D01*
X385773Y336597D01*
X386763Y334882D01*
X388164Y333481D01*
X389880Y332490D01*
X391794Y331978D01*
X393775D01*
X395688Y332490D01*
X397404Y333481D01*
X398805Y334882D01*
X399795Y336597D01*
X400308Y338511D01*
Y340492D01*
X399795Y342406D01*
X398805Y344121D01*
X397404Y345522D01*
X395688Y346513D01*
X393775Y347025D01*
D02*
G37*
G36*
X71248Y340929D02*
X69267D01*
X67354Y340417D01*
X65638Y339426D01*
X64237Y338025D01*
X63247Y336310D01*
X62734Y334396D01*
Y332415D01*
X63247Y330501D01*
X64237Y328786D01*
X65638Y327385D01*
X67354Y326394D01*
X69267Y325882D01*
X71248D01*
X73162Y326394D01*
X74878Y327385D01*
X76279Y328786D01*
X77269Y330501D01*
X77782Y332415D01*
Y334396D01*
X77269Y336310D01*
X76279Y338025D01*
X74878Y339426D01*
X73162Y340417D01*
X71248Y340929D01*
D02*
G37*
G36*
X58749Y319279D02*
X56768D01*
X54854Y318766D01*
X53138Y317775D01*
X51737Y316374D01*
X50747Y314659D01*
X50234Y312745D01*
Y310764D01*
X50747Y308850D01*
X51737Y307135D01*
X53138Y305734D01*
X54854Y304743D01*
X56768Y304230D01*
X58749D01*
X60662Y304743D01*
X62378Y305734D01*
X63779Y307135D01*
X64769Y308850D01*
X65282Y310764D01*
Y312745D01*
X64769Y314659D01*
X63779Y316374D01*
X62378Y317775D01*
X60662Y318766D01*
X58749Y319279D01*
D02*
G37*
G36*
X446153Y249851D02*
X444183D01*
X443808Y249776D01*
X443425D01*
X441493Y249392D01*
X441140Y249245D01*
X440765Y249171D01*
X438945Y248417D01*
X438627Y248204D01*
X438273Y248058D01*
X436635Y246964D01*
X436365Y246693D01*
X436046Y246480D01*
X434654Y245088D01*
X434441Y244769D01*
X434170Y244499D01*
X433076Y242861D01*
X432930Y242507D01*
X432717Y242189D01*
X431963Y240369D01*
X431889Y239994D01*
X431742Y239641D01*
X431358Y237709D01*
Y237326D01*
X431283Y236951D01*
Y234981D01*
X431358Y234606D01*
Y234223D01*
X431742Y232291D01*
X431889Y231938D01*
X431963Y231562D01*
X432717Y229743D01*
X432930Y229424D01*
X433076Y229071D01*
X434170Y227433D01*
X434441Y227163D01*
X434654Y226845D01*
X436046Y225452D01*
X436365Y225239D01*
X436635Y224968D01*
X438273Y223874D01*
X438627Y223728D01*
X438945Y223515D01*
X440765Y222761D01*
X441140Y222687D01*
X441493Y222540D01*
X443425Y222156D01*
X443808D01*
X444183Y222081D01*
X446153D01*
X446528Y222156D01*
X446911D01*
X448843Y222540D01*
X449196Y222687D01*
X449571Y222761D01*
X451391Y223515D01*
X451709Y223728D01*
X452063Y223874D01*
X453701Y224968D01*
X453971Y225239D01*
X454290Y225452D01*
X455682Y226845D01*
X455895Y227163D01*
X456166Y227433D01*
X457260Y229071D01*
X457406Y229424D01*
X457619Y229743D01*
X458373Y231562D01*
X458447Y231938D01*
X458594Y232291D01*
X458978Y234223D01*
Y234606D01*
X459053Y234981D01*
Y236951D01*
X458978Y237326D01*
Y237709D01*
X458594Y239641D01*
X458447Y239994D01*
X458373Y240369D01*
X457619Y242189D01*
X457406Y242507D01*
X457260Y242861D01*
X456166Y244499D01*
X455895Y244769D01*
X455682Y245088D01*
X454290Y246480D01*
X453971Y246693D01*
X453701Y246964D01*
X452063Y248058D01*
X451709Y248204D01*
X451391Y248417D01*
X449571Y249171D01*
X449196Y249245D01*
X448843Y249392D01*
X446911Y249776D01*
X446528D01*
X446153Y249851D01*
D02*
G37*
G36*
X25463Y249089D02*
X23493D01*
X23118Y249014D01*
X22735D01*
X20803Y248630D01*
X20450Y248483D01*
X20075Y248409D01*
X18255Y247655D01*
X17937Y247442D01*
X17583Y247296D01*
X15945Y246201D01*
X15675Y245931D01*
X15357Y245718D01*
X13964Y244326D01*
X13751Y244007D01*
X13480Y243737D01*
X12386Y242099D01*
X12240Y241745D01*
X12027Y241427D01*
X11273Y239608D01*
X11199Y239232D01*
X11052Y238879D01*
X10668Y236947D01*
Y236564D01*
X10593Y236189D01*
Y234219D01*
X10668Y233844D01*
Y233461D01*
X11052Y231529D01*
X11199Y231176D01*
X11273Y230800D01*
X12027Y228981D01*
X12240Y228662D01*
X12386Y228309D01*
X13480Y226671D01*
X13751Y226401D01*
X13964Y226082D01*
X15357Y224690D01*
X15675Y224477D01*
X15945Y224207D01*
X17583Y223112D01*
X17937Y222966D01*
X18255Y222753D01*
X20075Y221999D01*
X20450Y221925D01*
X20803Y221778D01*
X22735Y221394D01*
X23118D01*
X23493Y221319D01*
X25463D01*
X25838Y221394D01*
X26221D01*
X28153Y221778D01*
X28506Y221925D01*
X28881Y221999D01*
X30701Y222753D01*
X31019Y222966D01*
X31373Y223112D01*
X33011Y224207D01*
X33281Y224477D01*
X33600Y224690D01*
X34992Y226082D01*
X35205Y226401D01*
X35475Y226671D01*
X36570Y228309D01*
X36716Y228662D01*
X36929Y228981D01*
X37683Y230800D01*
X37757Y231176D01*
X37904Y231529D01*
X38288Y233461D01*
Y233844D01*
X38363Y234219D01*
Y236189D01*
X38288Y236564D01*
Y236947D01*
X37904Y238879D01*
X37757Y239232D01*
X37683Y239608D01*
X36929Y241427D01*
X36716Y241745D01*
X36570Y242099D01*
X35475Y243737D01*
X35205Y244007D01*
X34992Y244326D01*
X33600Y245718D01*
X33281Y245931D01*
X33011Y246201D01*
X31373Y247296D01*
X31019Y247442D01*
X30701Y247655D01*
X28881Y248409D01*
X28506Y248483D01*
X28153Y248630D01*
X26221Y249014D01*
X25838D01*
X25463Y249089D01*
D02*
G37*
G36*
X45000Y208320D02*
X43018D01*
X41105Y207807D01*
X39389Y206817D01*
X37988Y205416D01*
X36998Y203700D01*
X36485Y201787D01*
Y199806D01*
X36998Y197892D01*
X37988Y196176D01*
X39389Y194776D01*
X41105Y193785D01*
X43018Y193272D01*
X45000D01*
X46913Y193785D01*
X48629Y194776D01*
X50030Y196176D01*
X51020Y197892D01*
X51533Y199806D01*
Y201787D01*
X51020Y203700D01*
X50030Y205416D01*
X48629Y206817D01*
X46913Y207807D01*
X45000Y208320D01*
D02*
G37*
G36*
X425866Y201208D02*
X423884D01*
X421971Y200695D01*
X420255Y199705D01*
X418854Y198304D01*
X417864Y196588D01*
X417351Y194675D01*
Y192694D01*
X417864Y190780D01*
X418854Y189064D01*
X420255Y187663D01*
X421971Y186673D01*
X423884Y186160D01*
X425866D01*
X427779Y186673D01*
X429495Y187663D01*
X430896Y189064D01*
X431886Y190780D01*
X432399Y192694D01*
Y194675D01*
X431886Y196588D01*
X430896Y198304D01*
X429495Y199705D01*
X427779Y200695D01*
X425866Y201208D01*
D02*
G37*
G36*
X419395Y177060D02*
X417414D01*
X415500Y176548D01*
X413785Y175557D01*
X412384Y174156D01*
X411393Y172440D01*
X410881Y170527D01*
Y168546D01*
X411393Y166632D01*
X412384Y164916D01*
X413785Y163516D01*
X415500Y162525D01*
X417414Y162012D01*
X419395D01*
X421309Y162525D01*
X423024Y163516D01*
X424425Y164916D01*
X425416Y166632D01*
X425928Y168546D01*
Y170527D01*
X425416Y172440D01*
X424425Y174156D01*
X423024Y175557D01*
X421309Y176548D01*
X419395Y177060D01*
D02*
G37*
G36*
X98578Y103993D02*
X96597D01*
X94683Y103480D01*
X92968Y102489D01*
X91567Y101088D01*
X90576Y99373D01*
X90063Y97459D01*
Y95478D01*
X90576Y93565D01*
X91567Y91849D01*
X92968Y90448D01*
X94683Y89458D01*
X96597Y88945D01*
X98578D01*
X100491Y89458D01*
X102207Y90448D01*
X103608Y91849D01*
X104599Y93565D01*
X105111Y95478D01*
Y97459D01*
X104599Y99373D01*
X103608Y101088D01*
X102207Y102489D01*
X100491Y103480D01*
X98578Y103993D01*
D02*
G37*
G36*
X366445Y100945D02*
X364464D01*
X362551Y100432D01*
X360835Y99441D01*
X359434Y98041D01*
X358443Y96325D01*
X357931Y94411D01*
Y92430D01*
X358443Y90517D01*
X359434Y88801D01*
X360835Y87400D01*
X362551Y86410D01*
X364464Y85897D01*
X366445D01*
X368359Y86410D01*
X370075Y87400D01*
X371475Y88801D01*
X372466Y90517D01*
X372979Y92430D01*
Y94411D01*
X372466Y96325D01*
X371475Y98041D01*
X370075Y99441D01*
X368359Y100432D01*
X366445Y100945D01*
D02*
G37*
G36*
X116256Y86315D02*
X114275D01*
X112361Y85802D01*
X110645Y84811D01*
X109244Y83411D01*
X108254Y81695D01*
X107741Y79781D01*
Y77800D01*
X108254Y75887D01*
X109244Y74171D01*
X110645Y72770D01*
X112361Y71780D01*
X114275Y71267D01*
X116256D01*
X118169Y71780D01*
X119885Y72770D01*
X121286Y74171D01*
X122276Y75887D01*
X122789Y77800D01*
Y79781D01*
X122276Y81695D01*
X121286Y83411D01*
X119885Y84811D01*
X118169Y85802D01*
X116256Y86315D01*
D02*
G37*
G36*
X348768Y83267D02*
X346787D01*
X344873Y82754D01*
X343158Y81764D01*
X341757Y80363D01*
X340766Y78647D01*
X340253Y76734D01*
Y74753D01*
X340766Y72839D01*
X341757Y71123D01*
X343158Y69723D01*
X344873Y68732D01*
X346787Y68219D01*
X348768D01*
X350681Y68732D01*
X352397Y69723D01*
X353798Y71123D01*
X354789Y72839D01*
X355301Y74753D01*
Y76734D01*
X354789Y78647D01*
X353798Y80363D01*
X352397Y81764D01*
X350681Y82754D01*
X348768Y83267D01*
D02*
G37*
G36*
X406274Y325374D02*
X404293D01*
X402380Y324862D01*
X400664Y323871D01*
X399263Y322470D01*
X398273Y320755D01*
X397760Y318841D01*
Y316860D01*
X398273Y314946D01*
X399263Y313231D01*
X400664Y311830D01*
X402380Y310839D01*
X402694Y310755D01*
Y164295D01*
X286735Y48335D01*
X286303Y48514D01*
X284181D01*
X282752Y47922D01*
X281482Y48622D01*
Y53817D01*
X281914Y53996D01*
X283414Y55497D01*
X284226Y57457D01*
Y59579D01*
X283414Y61540D01*
X281914Y63040D01*
X279953Y63852D01*
X277831D01*
X275870Y63040D01*
X274370Y61540D01*
X273558Y59579D01*
Y57457D01*
X274370Y55497D01*
X275870Y53996D01*
X276302Y53817D01*
Y39751D01*
X276499Y38760D01*
X277061Y37920D01*
X280744Y34237D01*
X281584Y33675D01*
X282575Y33478D01*
X288553D01*
X289079Y32208D01*
X288594Y31723D01*
X287782Y29763D01*
Y27641D01*
X287961Y27209D01*
X260297Y-455D01*
X259735Y-1295D01*
X259596Y-1994D01*
X258452Y-2301D01*
X256280Y-3555D01*
X254507Y-5328D01*
X253253Y-7500D01*
X252604Y-9922D01*
Y-12430D01*
X253253Y-14852D01*
X254507Y-17024D01*
X256280Y-18797D01*
X256412Y-18873D01*
X256072Y-20143D01*
X242784D01*
X242444Y-18873D01*
X242576Y-18797D01*
X244349Y-17024D01*
X245603Y-14852D01*
X246252Y-12430D01*
Y-9922D01*
X245603Y-7500D01*
X244349Y-5328D01*
X242576Y-3555D01*
X240404Y-2301D01*
X239318Y-2010D01*
Y62101D01*
X239750Y62280D01*
X241250Y63780D01*
X242062Y65741D01*
Y67863D01*
X241250Y69823D01*
X239750Y71324D01*
X237789Y72136D01*
X235667D01*
X233706Y71324D01*
X232206Y69823D01*
X231394Y67863D01*
Y65741D01*
X232206Y63780D01*
X233706Y62280D01*
X234138Y62101D01*
Y-2010D01*
X233052Y-2301D01*
X230880Y-3555D01*
X229107Y-5328D01*
X227853Y-7500D01*
X227204Y-9922D01*
Y-12430D01*
X227853Y-14852D01*
X229107Y-17024D01*
X230880Y-18797D01*
X231012Y-18873D01*
X230672Y-20143D01*
X223958D01*
X219641Y-15826D01*
X220203Y-14852D01*
X220852Y-12430D01*
Y-9922D01*
X220203Y-7500D01*
X218949Y-5328D01*
X217176Y-3555D01*
X215004Y-2301D01*
X212582Y-1652D01*
X210074D01*
X207652Y-2301D01*
X205480Y-3555D01*
X203707Y-5328D01*
X202453Y-7500D01*
X201804Y-9922D01*
Y-12430D01*
X202453Y-14852D01*
X203707Y-17024D01*
X205480Y-18797D01*
X207652Y-20051D01*
X210074Y-20700D01*
X212582D01*
X215004Y-20051D01*
X215978Y-19489D01*
X221054Y-24564D01*
X221894Y-25126D01*
X222885Y-25323D01*
X295783D01*
X296774Y-25126D01*
X297614Y-24564D01*
X301297Y-20881D01*
X301859Y-20041D01*
X302056Y-19050D01*
Y31877D01*
X301859Y32868D01*
X301297Y33708D01*
X297106Y37899D01*
X296266Y38461D01*
X295275Y38658D01*
X290059D01*
X289533Y39928D01*
X289764Y40159D01*
X290576Y42119D01*
Y44241D01*
X290397Y44673D01*
X407115Y161391D01*
X407677Y162231D01*
X407874Y163222D01*
Y310755D01*
X408188Y310839D01*
X409904Y311830D01*
X411305Y313231D01*
X412295Y314946D01*
X412808Y316860D01*
Y318841D01*
X412295Y320755D01*
X411305Y322470D01*
X409904Y323871D01*
X408188Y324862D01*
X406274Y325374D01*
D02*
G37*
G36*
X51470Y184172D02*
X49489D01*
X47575Y183659D01*
X45860Y182668D01*
X44459Y181268D01*
X43468Y179552D01*
X42955Y177638D01*
Y175657D01*
X43468Y173744D01*
X44459Y172028D01*
X45860Y170627D01*
X47575Y169637D01*
X49489Y169124D01*
X51470D01*
X53384Y169637D01*
X53665Y169799D01*
X60656Y162809D01*
Y157890D01*
X60853Y156899D01*
X61415Y156059D01*
X176963Y40511D01*
X176784Y40079D01*
Y37957D01*
X177596Y35996D01*
X179097Y34496D01*
X181057Y33684D01*
X183179D01*
X185140Y34496D01*
X186640Y35996D01*
X187452Y37957D01*
Y40079D01*
X186640Y42039D01*
X185140Y43540D01*
X183179Y44352D01*
X181057D01*
X180625Y44173D01*
X65836Y158963D01*
Y163881D01*
X65639Y164872D01*
X65077Y165713D01*
X57328Y173462D01*
X57491Y173744D01*
X58003Y175657D01*
Y177638D01*
X57491Y179552D01*
X56500Y181268D01*
X55099Y182668D01*
X53384Y183659D01*
X51470Y184172D01*
D02*
G37*
%LPD*%
G36*
X286964Y17091D02*
X286968Y17072D01*
X285697Y15801D01*
X285135Y14961D01*
X284938Y13970D01*
Y-2010D01*
X283852Y-2301D01*
X281680Y-3555D01*
X279907Y-5328D01*
X278653Y-7500D01*
X278004Y-9922D01*
Y-12430D01*
X278653Y-14852D01*
X279907Y-17024D01*
X281680Y-18797D01*
X281812Y-18873D01*
X281472Y-20143D01*
X268184D01*
X267844Y-18873D01*
X267976Y-18797D01*
X269749Y-17024D01*
X271003Y-14852D01*
X271652Y-12430D01*
Y-9922D01*
X271003Y-7500D01*
X269749Y-5328D01*
X267976Y-3555D01*
X266925Y-2948D01*
X266716Y-1361D01*
X285565Y17489D01*
X286964Y17091D01*
D02*
G37*
D30*
X285242Y43180D02*
X405284Y163222D01*
Y317850D01*
X287528Y-11176D02*
Y13970D01*
X293116Y19558D01*
X211328Y-11176D02*
X222885Y-22733D01*
X295783D01*
X299466Y-19050D01*
Y31877D01*
X295275Y36068D02*
X299466Y31877D01*
X282575Y36068D02*
X295275D01*
X278892Y39751D02*
X282575Y36068D01*
X278892Y39751D02*
Y58518D01*
X262128Y-2286D02*
X293116Y28702D01*
X262128Y-11176D02*
Y-2286D01*
X63246Y157890D02*
X182118Y39018D01*
X63246Y157890D02*
Y163881D01*
X50479Y176648D02*
X63246Y163881D01*
X236728Y-11176D02*
Y66802D01*
D31*
Y-11176D02*
D03*
X211328D02*
D03*
X262128D02*
D03*
X287528D02*
D03*
D32*
X185928D02*
D03*
D33*
X115265Y78791D02*
D03*
X97587Y96469D02*
D03*
X418405Y169536D02*
D03*
X424875Y193684D02*
D03*
X306324Y419862D02*
D03*
X327975Y407362D02*
D03*
X143002Y402082D02*
D03*
X70258Y333405D02*
D03*
X57758Y311754D02*
D03*
X164653Y414582D02*
D03*
X392784Y339501D02*
D03*
X405284Y317850D02*
D03*
X365455Y93421D02*
D03*
X347777Y75743D02*
D03*
X44009Y200796D02*
D03*
X50479Y176648D02*
D03*
D34*
X325374Y429768D02*
D03*
X72644Y385064D02*
D03*
X172720Y72390D02*
D03*
X233680Y406908D02*
D03*
X63754Y255778D02*
D03*
D35*
X293116Y19558D02*
D03*
X278892Y58518D02*
D03*
X285242Y43180D02*
D03*
X293116Y28702D02*
D03*
X182118Y39018D02*
D03*
X236728Y66802D02*
D03*
M02*
