G04*
G04 #@! TF.GenerationSoftware,Altium Limited,Altium Designer,22.7.1 (60)*
G04*
G04 Layer_Physical_Order=1*
G04 Layer_Color=255*
%FSLAX44Y44*%
%MOMM*%
G71*
G04*
G04 #@! TF.SameCoordinates,34583956-BA44-4E5B-BA21-D6171543F883*
G04*
G04*
G04 #@! TF.FilePolarity,Positive*
G04*
G01*
G75*
%ADD14R,1.0000X1.3000*%
G04:AMPARAMS|DCode=15|XSize=1.3mm|YSize=1mm|CornerRadius=0mm|HoleSize=0mm|Usage=FLASHONLY|Rotation=225.000|XOffset=0mm|YOffset=0mm|HoleType=Round|Shape=Rectangle|*
%AMROTATEDRECTD15*
4,1,4,0.1061,0.8132,0.8132,0.1061,-0.1061,-0.8132,-0.8132,-0.1061,0.1061,0.8132,0.0*
%
%ADD15ROTATEDRECTD15*%

G04:AMPARAMS|DCode=16|XSize=1.3mm|YSize=1mm|CornerRadius=0mm|HoleSize=0mm|Usage=FLASHONLY|Rotation=315.000|XOffset=0mm|YOffset=0mm|HoleType=Round|Shape=Rectangle|*
%AMROTATEDRECTD16*
4,1,4,-0.8132,0.1061,-0.1061,0.8132,0.8132,-0.1061,0.1061,-0.8132,-0.8132,0.1061,0.0*
%
%ADD16ROTATEDRECTD16*%

%ADD17R,1.3000X1.0000*%
G04:AMPARAMS|DCode=18|XSize=0.4mm|YSize=1.2mm|CornerRadius=0.05mm|HoleSize=0mm|Usage=FLASHONLY|Rotation=90.000|XOffset=0mm|YOffset=0mm|HoleType=Round|Shape=RoundedRectangle|*
%AMROUNDEDRECTD18*
21,1,0.4000,1.1000,0,0,90.0*
21,1,0.3000,1.2000,0,0,90.0*
1,1,0.1000,0.5500,0.1500*
1,1,0.1000,0.5500,-0.1500*
1,1,0.1000,-0.5500,-0.1500*
1,1,0.1000,-0.5500,0.1500*
%
%ADD18ROUNDEDRECTD18*%
%ADD29C,0.2032*%
%ADD30C,0.2032*%
%ADD31C,1.6000*%
%ADD32R,1.6000X1.6000*%
%ADD33C,1.2000*%
%ADD34C,1.2700*%
%ADD35C,0.7620*%
G36*
X331994Y371988D02*
X332834Y371426D01*
X333825Y371229D01*
X349910D01*
X353957Y367182D01*
Y338716D01*
X349957Y337241D01*
X348137Y339371D01*
X348016Y339467D01*
X347930Y339595D01*
X339595Y347930D01*
X339467Y348016D01*
X339371Y348137D01*
X330409Y355792D01*
X330274Y355868D01*
X330169Y355981D01*
X320633Y362909D01*
X320493Y362974D01*
X320379Y363079D01*
X310329Y369238D01*
X310185Y369291D01*
X310063Y369387D01*
X299561Y374738D01*
X299412Y374780D01*
X299284Y374865D01*
X288394Y379376D01*
X288243Y379406D01*
X288108Y379482D01*
X276898Y383124D01*
X276744Y383142D01*
X276604Y383207D01*
X265143Y385959D01*
X264989Y385965D01*
X264844Y386018D01*
X253202Y387862D01*
X253048Y387856D01*
X252899Y387898D01*
X241148Y388823D01*
X240995Y388805D01*
X240844Y388835D01*
X229056D01*
X228905Y388805D01*
X228752Y388823D01*
X217001Y387898D01*
X216852Y387856D01*
X216698Y387862D01*
X205056Y386018D01*
X204911Y385965D01*
X204757Y385959D01*
X193296Y383207D01*
X193155Y383142D01*
X193002Y383124D01*
X181792Y379482D01*
X181657Y379406D01*
X181506Y379376D01*
X170616Y374865D01*
X170488Y374780D01*
X170339Y374738D01*
X159837Y369387D01*
X159715Y369291D01*
X159571Y369238D01*
X149520Y363079D01*
X149407Y362974D01*
X149267Y362909D01*
X139731Y355981D01*
X139626Y355868D01*
X139491Y355792D01*
X130528Y348137D01*
X130433Y348016D01*
X130304Y347930D01*
X121970Y339595D01*
X121884Y339467D01*
X121763Y339371D01*
X114108Y330409D01*
X114032Y330274D01*
X113919Y330169D01*
X106991Y320633D01*
X106926Y320493D01*
X106821Y320379D01*
X100662Y310329D01*
X100609Y310185D01*
X100513Y310063D01*
X95162Y299561D01*
X95120Y299412D01*
X95035Y299284D01*
X90524Y288394D01*
X90494Y288243D01*
X90418Y288108D01*
X86776Y276898D01*
X86346Y276730D01*
X82346Y279460D01*
Y309315D01*
X144833Y371803D01*
X145395Y372643D01*
X145592Y373634D01*
Y394986D01*
X145906Y395071D01*
X147622Y396061D01*
X149023Y397462D01*
X150013Y399178D01*
X150345Y400418D01*
X151375Y401644D01*
X153887Y403278D01*
X154284Y403302D01*
X186028D01*
X187019Y403499D01*
X187859Y404061D01*
X198307Y414508D01*
X210716D01*
Y419458D01*
X260454D01*
Y415524D01*
X276502D01*
Y419458D01*
X284523D01*
X331994Y371988D01*
D02*
G37*
G36*
X136085Y405150D02*
X135991Y404986D01*
X135478Y403073D01*
Y401091D01*
X135991Y399178D01*
X136981Y397462D01*
X138382Y396061D01*
X140098Y395071D01*
X140412Y394986D01*
Y374707D01*
X77964Y312258D01*
X77761Y312261D01*
X73964Y313231D01*
Y317697D01*
X108580Y352314D01*
X109142Y353154D01*
X109339Y354145D01*
Y364896D01*
X117036Y372594D01*
X109339Y380291D01*
Y384060D01*
X132885Y407606D01*
X136085Y405150D01*
D02*
G37*
G36*
X68784Y308379D02*
Y301401D01*
X48711Y281328D01*
X38026D01*
Y281328D01*
X35074D01*
Y281328D01*
X22026D01*
Y281328D01*
X18592Y282694D01*
Y294202D01*
X20250Y295860D01*
X44454D01*
X45445Y296057D01*
X46285Y296619D01*
X54572Y304906D01*
X54854Y304743D01*
X56768Y304230D01*
X58749D01*
X60662Y304743D01*
X62378Y305734D01*
X63779Y307135D01*
X64769Y308850D01*
X64784Y308906D01*
X68784Y308379D01*
D02*
G37*
G36*
X365271Y365063D02*
Y364425D01*
X365468Y363433D01*
X366030Y362593D01*
X385936Y342687D01*
X385773Y342406D01*
X385260Y340492D01*
Y338511D01*
X385773Y336597D01*
X386763Y334882D01*
X388164Y333481D01*
X389880Y332490D01*
X391794Y331978D01*
X393775D01*
X395688Y332490D01*
X397404Y333481D01*
X398805Y334882D01*
X399621Y336296D01*
X400047Y336645D01*
X404156Y337417D01*
X442164Y299409D01*
Y279042D01*
X430508D01*
Y279042D01*
X427556D01*
Y279042D01*
X417298D01*
X417048Y279092D01*
X416621D01*
X359137Y336576D01*
Y364713D01*
X361565Y366678D01*
X365271Y365063D01*
D02*
G37*
G36*
X234950Y466065D02*
X242516Y466065D01*
X257615Y465076D01*
X272618Y463101D01*
X287459Y460149D01*
X302075Y456232D01*
X316404Y451368D01*
X330384Y445578D01*
X343955Y438885D01*
X357060Y431319D01*
X369642Y422912D01*
X381647Y413700D01*
X393023Y403723D01*
X403723Y393023D01*
X413701Y381647D01*
X422912Y369642D01*
X431319Y357060D01*
X438885Y343955D01*
X445578Y330384D01*
X451368Y316404D01*
X456232Y302075D01*
X460149Y287459D01*
X463101Y272618D01*
X465075Y257615D01*
X466065Y242516D01*
X466065Y234950D01*
X466065Y228414D01*
X465326Y215363D01*
X463851Y202375D01*
X461645Y189490D01*
X458713Y176751D01*
X455066Y164198D01*
X450716Y151872D01*
X445676Y139811D01*
X439963Y128054D01*
X433594Y116638D01*
X426590Y105601D01*
X418974Y94977D01*
X410769Y84801D01*
X402002Y75105D01*
X392702Y65919D01*
X382897Y57274D01*
X372619Y49197D01*
X361902Y41714D01*
X350778Y34848D01*
X339284Y28621D01*
X336970Y27532D01*
X332279Y29745D01*
X332125Y30351D01*
X332266Y30788D01*
X349608Y48131D01*
X350170Y48971D01*
X350367Y49962D01*
Y68648D01*
X350681Y68732D01*
X352397Y69723D01*
X353798Y71123D01*
X354295Y71984D01*
X357215Y72916D01*
X358965Y72971D01*
X365187Y66749D01*
X366027Y66187D01*
X367018Y65990D01*
X377952D01*
X378943Y66187D01*
X379783Y66749D01*
X420236Y107201D01*
X420797Y108041D01*
X420994Y109032D01*
Y162441D01*
X421309Y162525D01*
X423024Y163516D01*
X424425Y164916D01*
X425416Y166632D01*
X425928Y168546D01*
Y170527D01*
X425416Y172440D01*
X424425Y174156D01*
X424037Y174545D01*
X425468Y178545D01*
X428149D01*
X429141Y178742D01*
X429981Y179303D01*
X435409Y184732D01*
X435971Y185572D01*
X436168Y186563D01*
Y214376D01*
X435971Y215367D01*
X435409Y216207D01*
X431850Y219767D01*
Y223992D01*
X435850Y225648D01*
X436046Y225452D01*
X436365Y225239D01*
X436635Y224968D01*
X438273Y223874D01*
X438627Y223728D01*
X438945Y223515D01*
X440765Y222761D01*
X441140Y222687D01*
X441493Y222540D01*
X443425Y222156D01*
X443808D01*
X444183Y222081D01*
X446153D01*
X446528Y222156D01*
X446911D01*
X448843Y222540D01*
X449196Y222687D01*
X449571Y222761D01*
X451391Y223515D01*
X451709Y223728D01*
X452063Y223874D01*
X453701Y224968D01*
X453971Y225239D01*
X454290Y225452D01*
X455682Y226845D01*
X455895Y227163D01*
X456166Y227433D01*
X457260Y229071D01*
X457406Y229424D01*
X457619Y229743D01*
X458373Y231562D01*
X458447Y231938D01*
X458594Y232291D01*
X458978Y234223D01*
Y234606D01*
X459053Y234981D01*
Y236951D01*
X458978Y237326D01*
Y237709D01*
X458594Y239641D01*
X458447Y239994D01*
X458373Y240369D01*
X457619Y242189D01*
X457406Y242507D01*
X457260Y242861D01*
X456166Y244499D01*
X455895Y244769D01*
X455682Y245088D01*
X454290Y246480D01*
X453971Y246693D01*
X453701Y246964D01*
X452063Y248058D01*
X451709Y248204D01*
X451391Y248417D01*
X449571Y249171D01*
X449196Y249245D01*
X448843Y249392D01*
X446911Y249776D01*
X446528D01*
X446153Y249851D01*
X444183D01*
X443808Y249776D01*
X443425D01*
X441493Y249392D01*
X441140Y249245D01*
X440765Y249171D01*
X440386Y249457D01*
X440020Y254747D01*
X446585Y261313D01*
X447147Y262153D01*
X447344Y263144D01*
Y300482D01*
X447147Y301473D01*
X446585Y302313D01*
X385876Y363023D01*
Y388874D01*
X385679Y389865D01*
X385117Y390705D01*
X366629Y409193D01*
X365789Y409755D01*
X364798Y409952D01*
X335070D01*
X334986Y410266D01*
X333996Y411982D01*
X332595Y413383D01*
X330879Y414373D01*
X328965Y414886D01*
X326984D01*
X325071Y414373D01*
X323355Y413383D01*
X321954Y411982D01*
X320964Y410266D01*
X320451Y408353D01*
Y406372D01*
X320964Y404458D01*
X321954Y402742D01*
X323355Y401342D01*
X325071Y400351D01*
X326984Y399838D01*
X328965D01*
X330879Y400351D01*
X332595Y401342D01*
X333996Y402742D01*
X334986Y404458D01*
X335070Y404772D01*
X363725D01*
X378073Y390424D01*
X377970Y389907D01*
X373630Y388590D01*
X366800Y395420D01*
X357574Y386194D01*
X357574D01*
X355486Y384106D01*
X347789Y376409D01*
X334898D01*
X302105Y409202D01*
X304366Y412597D01*
X305333Y412338D01*
X307314D01*
X309228Y412851D01*
X310944Y413841D01*
X312345Y415242D01*
X313335Y416958D01*
X313848Y418871D01*
Y420853D01*
X313335Y422766D01*
X312345Y424482D01*
X310944Y425883D01*
X309228Y426873D01*
X307314Y427386D01*
X305333D01*
X303420Y426873D01*
X303138Y426711D01*
X289969Y439879D01*
X289129Y440440D01*
X288138Y440638D01*
X276502D01*
Y444572D01*
X260454D01*
Y432572D01*
X260454Y431524D01*
Y428572D01*
X257765Y424638D01*
X213328D01*
X210716Y427556D01*
Y430508D01*
X210716D01*
Y443556D01*
X194668D01*
Y439622D01*
X187103D01*
X186111Y439425D01*
X185271Y438863D01*
X167838Y421430D01*
X167557Y421593D01*
X165643Y422106D01*
X163662D01*
X161748Y421593D01*
X160033Y420602D01*
X158632Y419202D01*
X157641Y417486D01*
X157128Y415572D01*
Y413591D01*
X153708Y411256D01*
X152475Y411003D01*
X145722Y417756D01*
X144882Y418318D01*
X143891Y418515D01*
X137541D01*
X136550Y418318D01*
X135710Y417756D01*
X104918Y386964D01*
X101132Y388498D01*
X96496Y393134D01*
X85148Y381786D01*
X92846Y374089D01*
Y359656D01*
X73444Y340254D01*
X73162Y340417D01*
X71248Y340929D01*
X69267D01*
X67354Y340417D01*
X65638Y339426D01*
X64237Y338025D01*
X63247Y336310D01*
X62734Y334396D01*
Y332415D01*
X63247Y330501D01*
X64237Y328786D01*
X65638Y327385D01*
X67354Y326394D01*
X69267Y325882D01*
X70823Y321881D01*
X69543Y320601D01*
X68981Y319761D01*
X68784Y318770D01*
Y315130D01*
X64784Y314603D01*
X64769Y314659D01*
X63779Y316374D01*
X62378Y317775D01*
X60662Y318766D01*
X58749Y319279D01*
X56768D01*
X54854Y318766D01*
X53138Y317775D01*
X51737Y316374D01*
X50747Y314659D01*
X50234Y312745D01*
Y310764D01*
X50747Y308850D01*
X50910Y308568D01*
X43381Y301040D01*
X19177D01*
X18186Y300843D01*
X17346Y300281D01*
X17321Y300257D01*
X13667Y302075D01*
X18531Y316404D01*
X24322Y330384D01*
X31015Y343956D01*
X38581Y357060D01*
X46987Y369642D01*
X56199Y381647D01*
X66176Y393024D01*
X76876Y403724D01*
X88253Y413701D01*
X100258Y422913D01*
X112840Y431319D01*
X125944Y438885D01*
X139516Y445578D01*
X153496Y451368D01*
X167825Y456232D01*
X182441Y460149D01*
X197282Y463101D01*
X212285Y465076D01*
X227384Y466065D01*
X234950Y466065D01*
D02*
G37*
G36*
X413717Y274671D02*
X414508Y274142D01*
Y262994D01*
X418442D01*
Y225609D01*
X387697Y194864D01*
X384071Y196894D01*
X385959Y204757D01*
X385965Y204911D01*
X386018Y205056D01*
X387862Y216698D01*
X387856Y216852D01*
X387898Y217001D01*
X388823Y228752D01*
X388805Y228905D01*
X388835Y229056D01*
Y240844D01*
X388805Y240995D01*
X388823Y241148D01*
X387898Y252899D01*
X387856Y253048D01*
X387862Y253202D01*
X386018Y264844D01*
X385965Y264989D01*
X385959Y265143D01*
X383207Y276604D01*
X383142Y276744D01*
X383124Y276898D01*
X379482Y288108D01*
X379406Y288243D01*
X379376Y288394D01*
X374865Y299284D01*
X374780Y299412D01*
X374738Y299561D01*
X369387Y310063D01*
X369291Y310185D01*
X369238Y310329D01*
X364231Y318500D01*
X367394Y320993D01*
X413717Y274671D01*
D02*
G37*
G36*
X66567Y209778D02*
Y147257D01*
X58870Y139560D01*
Y139560D01*
X56783Y137472D01*
X47556Y128246D01*
X43910Y127393D01*
X25996Y145307D01*
Y210020D01*
X25798Y211011D01*
X25237Y211851D01*
X19901Y217187D01*
X20038Y217941D01*
X21562Y219892D01*
X23493Y221319D01*
X25463D01*
X25838Y221394D01*
X26221D01*
X28153Y221778D01*
X28506Y221925D01*
X28881Y221999D01*
X30701Y222753D01*
X31019Y222966D01*
X31373Y223112D01*
X33011Y224207D01*
X33281Y224477D01*
X33600Y224690D01*
X37542Y222976D01*
Y206971D01*
X37739Y205979D01*
X38065Y205492D01*
X37988Y205416D01*
X36998Y203700D01*
X36485Y201787D01*
Y199806D01*
X36998Y197892D01*
X37988Y196176D01*
X39389Y194776D01*
X41105Y193785D01*
X43018Y193272D01*
X45000D01*
X46913Y193785D01*
X48629Y194776D01*
X50030Y196176D01*
X51020Y197892D01*
X51533Y199806D01*
Y201787D01*
X51020Y203700D01*
X50030Y205416D01*
X48629Y206817D01*
X46913Y207807D01*
X45000Y208320D01*
X43018D01*
X42722Y208548D01*
Y228398D01*
X46417Y229928D01*
X66567Y209778D01*
D02*
G37*
G36*
X422285Y216901D02*
Y200780D01*
X421971Y200695D01*
X420255Y199705D01*
X418854Y198304D01*
X417864Y196588D01*
X417351Y194675D01*
Y192694D01*
X417864Y190780D01*
X418854Y189064D01*
X420194Y187724D01*
X420188Y187440D01*
X419078Y183724D01*
X416648Y183724D01*
X416648Y183724D01*
X416254Y183646D01*
X416254Y183646D01*
X415658Y183527D01*
X415657Y183527D01*
X415657Y183527D01*
X415319Y183301D01*
X415318Y183301D01*
X414817Y182966D01*
X414194Y182399D01*
X414194Y182399D01*
X414194Y182399D01*
X414194Y182398D01*
X412876Y180693D01*
X411563Y178455D01*
X411516Y178435D01*
X411486Y178363D01*
X410502Y177439D01*
X408726Y175124D01*
X407610Y172429D01*
X407229Y169536D01*
X407610Y166644D01*
X408726Y163949D01*
X409398Y163073D01*
Y120764D01*
X405703Y119233D01*
X400672Y124264D01*
X400672D01*
X398584Y126352D01*
X390887Y134049D01*
Y190728D01*
X418590Y218431D01*
X422285Y216901D01*
D02*
G37*
G36*
X20816Y208947D02*
Y159245D01*
X16816Y158543D01*
X15366Y162547D01*
X11544Y175377D01*
X8470Y188407D01*
X6156Y201593D01*
X4609Y214891D01*
X4326Y219781D01*
X8231Y221533D01*
X20816Y208947D01*
D02*
G37*
G36*
X73369Y298455D02*
X77166Y297485D01*
Y147838D01*
X73166Y145844D01*
X71747Y146914D01*
Y210851D01*
X71550Y211842D01*
X70988Y212682D01*
X47140Y236531D01*
Y265280D01*
X51074D01*
Y276366D01*
X73166Y298458D01*
X73369Y298455D01*
D02*
G37*
G36*
X382646Y119594D02*
X384180Y115809D01*
X368641Y100269D01*
X368359Y100432D01*
X366445Y100945D01*
X364464D01*
X362551Y100432D01*
X360835Y99441D01*
X359434Y98041D01*
X358443Y96325D01*
X357931Y94411D01*
Y92430D01*
X354326Y90429D01*
X339725D01*
X338734Y90232D01*
X337894Y89670D01*
X315161Y66937D01*
X314599Y66097D01*
X314402Y65106D01*
Y26433D01*
X303767Y15798D01*
X301661D01*
X299544Y17578D01*
X299319Y22098D01*
X301297Y24077D01*
X301859Y24917D01*
X302056Y25908D01*
Y73827D01*
X305816Y75428D01*
X313436D01*
X314427Y75626D01*
X315267Y76187D01*
X361782Y122701D01*
X379539D01*
X382646Y119594D01*
D02*
G37*
G36*
X385707Y188007D02*
Y131928D01*
X381660Y127881D01*
X360709D01*
X359718Y127684D01*
X358878Y127122D01*
X312363Y80608D01*
X273501D01*
X272777Y81660D01*
X274516Y86192D01*
X276604Y86693D01*
X276744Y86758D01*
X276898Y86776D01*
X288108Y90418D01*
X288243Y90494D01*
X288394Y90524D01*
X299284Y95035D01*
X299412Y95120D01*
X299561Y95162D01*
X310063Y100513D01*
X310185Y100609D01*
X310329Y100662D01*
X320379Y106821D01*
X320493Y106926D01*
X320633Y106991D01*
X330169Y113919D01*
X330274Y114032D01*
X330409Y114108D01*
X339371Y121763D01*
X339467Y121884D01*
X339595Y121970D01*
X347930Y130304D01*
X348016Y130433D01*
X348137Y130528D01*
X355792Y139491D01*
X355868Y139626D01*
X355981Y139731D01*
X362909Y149267D01*
X362974Y149407D01*
X363079Y149520D01*
X369238Y159571D01*
X369291Y159715D01*
X369387Y159837D01*
X374738Y170339D01*
X374780Y170488D01*
X374865Y170616D01*
X379376Y181506D01*
X379406Y181657D01*
X379482Y181792D01*
X381707Y188641D01*
X385707Y188007D01*
D02*
G37*
G36*
X86776Y193002D02*
X90418Y181792D01*
X90494Y181657D01*
X90524Y181506D01*
X95035Y170616D01*
X95120Y170488D01*
X95162Y170339D01*
X100513Y159837D01*
X100609Y159715D01*
X100662Y159571D01*
X106821Y149520D01*
X106926Y149407D01*
X106991Y149267D01*
X113919Y139731D01*
X114032Y139626D01*
X114108Y139491D01*
X121763Y130528D01*
X121884Y130433D01*
X121970Y130304D01*
X130304Y121970D01*
X130433Y121884D01*
X130528Y121763D01*
X139491Y114108D01*
X139626Y114032D01*
X139731Y113919D01*
X149267Y106991D01*
X149407Y106926D01*
X149520Y106821D01*
X159571Y100662D01*
X159715Y100609D01*
X159837Y100513D01*
X170339Y95162D01*
X170488Y95120D01*
X170616Y95035D01*
X181506Y90524D01*
X181657Y90494D01*
X181792Y90418D01*
X193002Y86776D01*
X193155Y86758D01*
X193296Y86693D01*
X199627Y85173D01*
X200036Y83701D01*
X199999Y80977D01*
X199552Y80308D01*
X199394Y79518D01*
Y76518D01*
X199552Y75728D01*
X199999Y75059D01*
X200669Y74612D01*
X201458Y74454D01*
X212458D01*
X213248Y74612D01*
X213917Y75059D01*
X214365Y75728D01*
X214522Y76518D01*
Y78333D01*
X215568Y80113D01*
X216611Y81107D01*
X217535Y81809D01*
X217808Y81939D01*
X228752Y81077D01*
X228905Y81096D01*
X229056Y81065D01*
X234950D01*
X240844Y81065D01*
X240995Y81095D01*
X241148Y81077D01*
X251982Y81930D01*
X254743Y79239D01*
X255025Y78772D01*
X254673Y75223D01*
X253330Y74213D01*
X253106Y74107D01*
X241444D01*
X240453Y73910D01*
X239613Y73349D01*
X238221Y71957D01*
X237789Y72136D01*
X235667D01*
X233706Y71324D01*
X232206Y69823D01*
X231394Y67863D01*
Y65741D01*
X232206Y63780D01*
X233706Y62280D01*
X235667Y61468D01*
X237789D01*
X239750Y62280D01*
X241250Y63780D01*
X242062Y65741D01*
Y67863D01*
X245758Y68928D01*
X253106D01*
X253329Y68823D01*
X256394Y66518D01*
Y63518D01*
X256551Y62728D01*
X256999Y62059D01*
Y61477D01*
X256551Y60808D01*
X256394Y60018D01*
Y57018D01*
X256551Y56228D01*
X256999Y55559D01*
X257668Y55111D01*
X258458Y54954D01*
X269458D01*
X270247Y55111D01*
X270496Y55277D01*
X272382Y55384D01*
X274767Y55100D01*
X275870Y53996D01*
X277831Y53184D01*
X279953D01*
X281914Y53996D01*
X283414Y55497D01*
X284226Y57457D01*
Y58372D01*
X287860Y60320D01*
X290526Y57633D01*
Y50765D01*
X290401Y50595D01*
X286526Y48422D01*
X286303Y48514D01*
X284181D01*
X282220Y47702D01*
X280720Y46202D01*
X279908Y44241D01*
Y42119D01*
X280720Y40159D01*
X282220Y38658D01*
X282652Y38479D01*
Y32823D01*
X278438Y28608D01*
X271164D01*
X270917Y28977D01*
X270247Y29425D01*
X269458Y29582D01*
X258458D01*
X257860Y30073D01*
Y34964D01*
X258458Y35454D01*
X269458D01*
X270247Y35611D01*
X270917Y36059D01*
X271364Y36728D01*
X271521Y37518D01*
Y40518D01*
X271364Y41308D01*
X270917Y41977D01*
Y42559D01*
X271364Y43228D01*
X271521Y44018D01*
Y47018D01*
X271364Y47807D01*
X270917Y48477D01*
X270247Y48924D01*
X269458Y49082D01*
X258458D01*
X257668Y48924D01*
X256999Y48477D01*
X256752Y48108D01*
X255957D01*
X254966Y47910D01*
X254126Y47349D01*
X249883Y43106D01*
X249321Y42266D01*
X249124Y41275D01*
Y9525D01*
X249321Y8534D01*
X249883Y7694D01*
X248899Y3348D01*
X247650Y2464D01*
X223440D01*
X222449Y2267D01*
X221609Y1705D01*
X220419Y515D01*
X219857Y-325D01*
X219795Y-640D01*
X219435Y-1040D01*
X218142Y-1834D01*
X215660Y-2680D01*
X215004Y-2301D01*
X212582Y-1652D01*
X210074D01*
X207652Y-2301D01*
X205480Y-3555D01*
X203707Y-5328D01*
X202453Y-7500D01*
X201804Y-9922D01*
Y-12430D01*
X202453Y-14852D01*
X203015Y-15826D01*
X195655Y-23187D01*
X195093Y-24027D01*
X194896Y-25018D01*
Y-25758D01*
X190962D01*
Y-41073D01*
X172551D01*
X144601Y-13123D01*
X144600Y14151D01*
X148296Y15682D01*
X154125Y9853D01*
X154965Y9291D01*
X155956Y9094D01*
X211455D01*
X212446Y9291D01*
X213286Y9853D01*
X217477Y14044D01*
X218039Y14884D01*
X218236Y15875D01*
Y25764D01*
X218144Y26223D01*
X218067Y26685D01*
X218046Y26718D01*
X218039Y26755D01*
X217778Y27144D01*
X217530Y27541D01*
X217499Y27564D01*
X217477Y27596D01*
X217088Y27856D01*
X216707Y28127D01*
X216669Y28135D01*
X216637Y28157D01*
X216178Y28248D01*
X215722Y28353D01*
X214307Y28394D01*
X213917Y28977D01*
X213248Y29425D01*
X212458Y29582D01*
X201458D01*
X200669Y29425D01*
X199999Y28977D01*
X199552Y28308D01*
X199394Y27518D01*
Y24518D01*
X196330Y22213D01*
X196106Y22108D01*
X161144D01*
X118256Y64996D01*
X119590Y69319D01*
X120838Y69555D01*
X146707Y43687D01*
X147547Y43125D01*
X148538Y42928D01*
X173635D01*
X176784Y40079D01*
Y37957D01*
X177596Y35996D01*
X179097Y34496D01*
X181057Y33684D01*
X183179D01*
X185140Y34496D01*
X186640Y35996D01*
X186819Y36428D01*
X199752D01*
X199999Y36059D01*
X200669Y35611D01*
X201458Y35454D01*
X212458D01*
X213248Y35611D01*
X213917Y36059D01*
X214365Y36728D01*
X214522Y37518D01*
Y40518D01*
X214365Y41308D01*
X213917Y41977D01*
Y42559D01*
X214365Y43228D01*
X214522Y44018D01*
Y47018D01*
X214365Y47807D01*
X213917Y48477D01*
X213248Y48924D01*
X212458Y49082D01*
X201458D01*
X200669Y48924D01*
X199999Y48477D01*
X199752Y48108D01*
X149611D01*
X122114Y75605D01*
X122276Y75887D01*
X122789Y77800D01*
Y79781D01*
X122276Y81695D01*
X121286Y83411D01*
X119885Y84811D01*
X118169Y85802D01*
X116256Y86315D01*
X114275D01*
X113016Y85977D01*
X110854Y87013D01*
X109016Y88489D01*
Y102362D01*
X108819Y103353D01*
X108257Y104193D01*
X82346Y130105D01*
Y136020D01*
X82419Y136386D01*
Y138490D01*
X82346Y138857D01*
Y190440D01*
X86346Y193170D01*
X86776Y193002D01*
D02*
G37*
G36*
X90739Y99655D02*
X90576Y99373D01*
X90063Y97459D01*
Y95478D01*
X90576Y93565D01*
X91567Y91849D01*
X92968Y90448D01*
X94683Y89458D01*
X96597Y88945D01*
X98578D01*
X99836Y89282D01*
X101999Y88246D01*
X103836Y86770D01*
Y73163D01*
X103846Y73113D01*
X100512Y70790D01*
X58050Y113252D01*
X58904Y116898D01*
X66200Y124194D01*
X90739Y99655D01*
D02*
G37*
G36*
X338340Y72916D02*
X341260Y71984D01*
X341757Y71123D01*
X343158Y69723D01*
X344873Y68732D01*
X345187Y68648D01*
Y51035D01*
X327138Y32985D01*
X323138Y34642D01*
Y59519D01*
X336590Y72971D01*
X338340Y72916D01*
D02*
G37*
G36*
X130921Y33056D02*
X128542Y29779D01*
X124208Y31983D01*
X112647Y38733D01*
X101495Y46140D01*
X90791Y54180D01*
X80570Y62827D01*
X70867Y72051D01*
X61714Y81820D01*
X53142Y92103D01*
X45179Y102866D01*
X37852Y114070D01*
X31187Y125680D01*
X29736Y128585D01*
X33024Y130954D01*
X130921Y33056D01*
D02*
G37*
G36*
X328475Y3602D02*
X331426Y2114D01*
X331589Y-9373D01*
X299889Y-41073D01*
X290622D01*
Y-25758D01*
X290118D01*
Y-20342D01*
X291204Y-20051D01*
X293376Y-18797D01*
X295149Y-17024D01*
X296403Y-14852D01*
X297052Y-12430D01*
Y-9922D01*
X296403Y-7500D01*
X295149Y-5328D01*
X293376Y-3555D01*
X291204Y-2301D01*
X288782Y-1652D01*
X286274D01*
X284523Y-2121D01*
X282753Y-813D01*
X282705Y-748D01*
X284723Y3252D01*
X325835D01*
X326826Y3449D01*
X327402Y3834D01*
X328475Y3602D01*
D02*
G37*
%LPC*%
G36*
X406274Y325374D02*
X404293D01*
X402380Y324862D01*
X400664Y323871D01*
X399263Y322470D01*
X398273Y320755D01*
X397760Y318841D01*
Y316860D01*
X398273Y314946D01*
X399263Y313231D01*
X400664Y311830D01*
X402380Y310839D01*
X404293Y310326D01*
X406274D01*
X408188Y310839D01*
X409904Y311830D01*
X411305Y313231D01*
X412295Y314946D01*
X412808Y316860D01*
Y318841D01*
X412295Y320755D01*
X411305Y322470D01*
X409904Y323871D01*
X408188Y324862D01*
X406274Y325374D01*
D02*
G37*
G36*
X236189Y460577D02*
X234219D01*
X233844Y460502D01*
X233461D01*
X231529Y460118D01*
X231176Y459971D01*
X230800Y459897D01*
X228981Y459143D01*
X228662Y458930D01*
X228309Y458784D01*
X226671Y457690D01*
X226401Y457419D01*
X226082Y457206D01*
X224690Y455813D01*
X224477Y455495D01*
X224207Y455225D01*
X223112Y453587D01*
X222966Y453233D01*
X222753Y452915D01*
X221999Y451096D01*
X221925Y450720D01*
X221778Y450367D01*
X221394Y448435D01*
Y448052D01*
X221319Y447677D01*
Y445707D01*
X221394Y445332D01*
Y444949D01*
X221778Y443017D01*
X221925Y442664D01*
X221999Y442289D01*
X222753Y440469D01*
X222966Y440150D01*
X223112Y439797D01*
X224207Y438159D01*
X224477Y437889D01*
X224690Y437570D01*
X226082Y436178D01*
X226401Y435965D01*
X226671Y435695D01*
X228309Y434600D01*
X228662Y434454D01*
X228981Y434241D01*
X230800Y433487D01*
X231176Y433413D01*
X231529Y433266D01*
X233461Y432882D01*
X233844D01*
X234219Y432807D01*
X236189D01*
X236564Y432882D01*
X236947D01*
X238879Y433266D01*
X239232Y433413D01*
X239608Y433487D01*
X241427Y434241D01*
X241745Y434454D01*
X242099Y434600D01*
X243737Y435695D01*
X244007Y435965D01*
X244326Y436178D01*
X245718Y437570D01*
X245931Y437889D01*
X246201Y438159D01*
X247296Y439797D01*
X247442Y440150D01*
X247655Y440469D01*
X248409Y442289D01*
X248483Y442664D01*
X248630Y443017D01*
X249014Y444949D01*
Y445332D01*
X249089Y445707D01*
Y447677D01*
X249014Y448052D01*
Y448435D01*
X248630Y450367D01*
X248483Y450720D01*
X248409Y451096D01*
X247655Y452915D01*
X247442Y453233D01*
X247296Y453587D01*
X246201Y455225D01*
X245931Y455495D01*
X245718Y455813D01*
X244326Y457206D01*
X244007Y457419D01*
X243737Y457690D01*
X242099Y458784D01*
X241745Y458930D01*
X241427Y459143D01*
X239608Y459897D01*
X239232Y459971D01*
X238879Y460118D01*
X236947Y460502D01*
X236564D01*
X236189Y460577D01*
D02*
G37*
G36*
X51470Y184172D02*
X49489D01*
X47575Y183659D01*
X45860Y182668D01*
X44459Y181268D01*
X43468Y179552D01*
X42955Y177638D01*
Y175657D01*
X43468Y173744D01*
X44459Y172028D01*
X45860Y170627D01*
X47575Y169637D01*
X49489Y169124D01*
X51470D01*
X53384Y169637D01*
X55099Y170627D01*
X56500Y172028D01*
X57491Y173744D01*
X58003Y175657D01*
Y177638D01*
X57491Y179552D01*
X56500Y181268D01*
X55099Y182668D01*
X53384Y183659D01*
X51470Y184172D01*
D02*
G37*
%LPD*%
D14*
X233300Y-34036D02*
D03*
X249300D02*
D03*
X268098Y-33782D02*
D03*
X284098D02*
D03*
X421032Y271018D02*
D03*
X437032D02*
D03*
X44550Y273304D02*
D03*
X28550D02*
D03*
X213486Y-33782D02*
D03*
X197486D02*
D03*
D15*
X388297Y125291D02*
D03*
X399611Y113977D02*
D03*
X106749Y371533D02*
D03*
X95435Y382847D02*
D03*
D16*
X356547Y373819D02*
D03*
X367861Y385133D02*
D03*
X69157Y138499D02*
D03*
X57843Y127185D02*
D03*
D17*
X268478Y422048D02*
D03*
Y438048D02*
D03*
X202692Y421032D02*
D03*
Y437032D02*
D03*
D18*
X263958Y19518D02*
D03*
Y26018D02*
D03*
Y32518D02*
D03*
Y39018D02*
D03*
Y45518D02*
D03*
Y52018D02*
D03*
Y58518D02*
D03*
Y65018D02*
D03*
Y71518D02*
D03*
Y78018D02*
D03*
X206958Y19518D02*
D03*
Y26018D02*
D03*
Y32518D02*
D03*
Y39018D02*
D03*
Y45518D02*
D03*
Y52018D02*
D03*
Y58518D02*
D03*
Y65018D02*
D03*
Y71518D02*
D03*
Y78018D02*
D03*
D29*
X416053Y180539D02*
D03*
D30*
X415970Y180456D02*
G03*
X413825Y177051I14314J-11395D01*
G01*
X413242Y176339D02*
G03*
X413825Y177051I-1240J1610D01*
G01*
X413242Y176339D02*
G03*
X411988Y163901I5163J-6803D01*
G01*
X70258Y333405D02*
X95435Y358583D01*
Y382847D01*
X106749Y354145D02*
Y371533D01*
X71374Y300328D02*
Y318770D01*
X106749Y354145D01*
X143002Y373634D02*
Y402082D01*
X79756Y138563D02*
Y310388D01*
X143002Y373634D01*
X424875Y193684D02*
Y249644D01*
X388297Y191801D02*
X421032Y224536D01*
X437032Y261801D02*
Y271018D01*
X429260Y218694D02*
Y247650D01*
X444754Y263144D01*
X424875Y249644D02*
X437032Y261801D01*
X444754Y263144D02*
Y300482D01*
X421032Y224536D02*
Y272518D01*
X429260Y218694D02*
X433578Y214376D01*
X115265Y78791D02*
X148538Y45518D01*
X206958D01*
X79756Y136313D02*
X79829Y136386D01*
X79756Y129032D02*
X106426Y102362D01*
X79756Y129032D02*
Y136313D01*
X79829Y136386D02*
Y138490D01*
X79756Y138563D02*
X79829Y138490D01*
X106426Y73163D02*
X160072Y19518D01*
X106426Y73163D02*
Y102362D01*
X160072Y19518D02*
X206958D01*
X23406Y144234D02*
Y210020D01*
X8128Y225298D02*
X23406Y210020D01*
Y144234D02*
X155956Y11684D01*
X211455D01*
X285596Y422048D02*
X333825Y373819D01*
X268478Y422048D02*
X285596D01*
X333825Y373819D02*
X356547D01*
X203708Y422048D02*
X268478D01*
X383286Y361950D02*
Y388874D01*
X327975Y407362D02*
X364798D01*
X383286Y388874D01*
X202692Y421032D02*
X203708Y422048D01*
X217828Y-28298D02*
X222250Y-23876D01*
Y-1316D01*
X213486Y-32282D02*
X217470Y-28298D01*
X217828D01*
X233300Y-34036D02*
X236728Y-30608D01*
Y-11176D01*
X262128D02*
X264668Y-13716D01*
Y-30352D02*
X268098Y-33782D01*
X264668Y-30352D02*
Y-13716D01*
X287528Y-30352D02*
Y-11176D01*
X284098Y-33782D02*
X287528Y-30352D01*
X213486Y-33782D02*
Y-32282D01*
X223440Y-126D02*
X247650D01*
X222250Y-1316D02*
X223440Y-126D01*
X247650D02*
X250000Y-2475D01*
X415548Y276502D02*
X417048D01*
X356547Y335503D02*
Y373819D01*
X417048Y276502D02*
X421032Y272518D01*
X356547Y335503D02*
X415548Y276502D01*
X44550Y273504D02*
X71374Y300328D01*
X44550Y273304D02*
Y273504D01*
X8128Y267208D02*
X16002Y275082D01*
X8128Y225298D02*
Y267208D01*
X40132Y206971D02*
X44009Y203093D01*
Y200796D02*
Y203093D01*
X28550Y264566D02*
X40132Y252984D01*
Y206971D02*
Y252984D01*
X327025Y7032D02*
Y29210D01*
X325835Y5842D02*
X327025Y7032D01*
X255397Y5842D02*
X325835D01*
X327025Y29210D02*
X347777Y49962D01*
X411988Y110236D02*
Y163901D01*
X416053Y180539D02*
X416648Y181134D01*
X428149D02*
X433578Y186563D01*
X416648Y181134D02*
X428149D01*
X415970Y180456D02*
X416053Y180539D01*
X433578Y186563D02*
Y214376D01*
X386035Y84283D02*
X411988Y110236D01*
X377952Y68580D02*
X418405Y109032D01*
Y169536D01*
X295275Y78018D02*
X313436D01*
X250000Y-2475D02*
X252475Y0D01*
X360709Y125291D02*
X388297D01*
X313436Y78018D02*
X360709Y125291D01*
X249300Y-34036D02*
X250000Y-2475D01*
X293116Y19558D02*
X299466Y25908D01*
Y73827D01*
X295275Y78018D02*
X299466Y73827D01*
X263958Y78018D02*
X295275D01*
X44454Y298450D02*
X57758Y311754D01*
X19177Y298450D02*
X44454D01*
X16002Y295275D02*
X19177Y298450D01*
X16002Y275082D02*
Y295275D01*
X211455Y11684D02*
X215646Y15875D01*
Y25764D01*
X206958Y26018D02*
X215646Y25764D01*
X255524Y39018D02*
X263958D01*
X255270Y38764D02*
X255524Y39018D01*
X255270Y12700D02*
Y38764D01*
Y12700D02*
X258318Y9652D01*
X314325D01*
X320548Y15875D01*
Y60592D01*
X344240Y84283D01*
X351315D01*
X367018Y68580D01*
X377952D01*
X197486Y-33782D02*
Y-25018D01*
X211328Y-11176D01*
X383286Y361950D02*
X444754Y300482D01*
X361602Y84283D02*
X386035D01*
X358046Y87839D02*
X361602Y84283D01*
X339725Y87839D02*
X358046D01*
X316992Y65106D02*
X339725Y87839D01*
X316992Y25360D02*
Y65106D01*
X304840Y13208D02*
X316992Y25360D01*
X286766Y13208D02*
X304840D01*
X280456Y19518D02*
X286766Y13208D01*
X263958Y19518D02*
X280456D01*
X347777Y49962D02*
Y75743D01*
X251714Y9525D02*
X255397Y5842D01*
X251714Y9525D02*
Y41275D01*
X255957Y45518D01*
X263958D01*
Y58518D02*
X278892D01*
X285242Y31750D02*
Y43180D01*
X279510Y26018D02*
X285242Y31750D01*
X263958Y26018D02*
X279510D01*
X263958Y65018D02*
X286899D01*
X293116Y58801D01*
Y28702D02*
Y58801D01*
X182118Y39018D02*
X206958D01*
X241444Y71518D02*
X263958D01*
X236728Y66802D02*
X241444Y71518D01*
X252475Y0D02*
X276352D01*
X287528Y-11176D01*
X386011Y113977D02*
X399611D01*
X365455Y93421D02*
X386011Y113977D01*
X57843Y127185D02*
X66871D01*
X97587Y96469D01*
X187103Y437032D02*
X202692D01*
X164653Y414582D02*
X187103Y437032D01*
X367861Y364425D02*
X392784Y339501D01*
X367861Y364425D02*
Y385133D01*
X201168Y421032D02*
X202692D01*
X186028Y405892D02*
X201168Y421032D01*
X153924Y405892D02*
X186028D01*
X143891Y415925D02*
X153924Y405892D01*
X137541Y415925D02*
X143891D01*
X106749Y385133D02*
X137541Y415925D01*
X106749Y371533D02*
Y385133D01*
X268478Y438048D02*
X288138D01*
X306324Y419862D01*
X388297Y125291D02*
Y191801D01*
X28550Y264566D02*
Y273304D01*
X44550Y235458D02*
Y273304D01*
Y235458D02*
X69157Y210851D01*
Y138499D02*
Y210851D01*
D31*
X236728Y-11176D02*
D03*
X211328D02*
D03*
X262128D02*
D03*
X287528D02*
D03*
D32*
X185928D02*
D03*
D33*
X115265Y78791D02*
D03*
X97587Y96469D02*
D03*
X418405Y169536D02*
D03*
X424875Y193684D02*
D03*
X306324Y419862D02*
D03*
X327975Y407362D02*
D03*
X143002Y402082D02*
D03*
X70258Y333405D02*
D03*
X57758Y311754D02*
D03*
X164653Y414582D02*
D03*
X392784Y339501D02*
D03*
X405284Y317850D02*
D03*
X365455Y93421D02*
D03*
X347777Y75743D02*
D03*
X44009Y200796D02*
D03*
X50479Y176648D02*
D03*
D34*
X325374Y429768D02*
D03*
X72644Y385064D02*
D03*
X172720Y72390D02*
D03*
X233680Y406908D02*
D03*
X63754Y255778D02*
D03*
D35*
X293116Y19558D02*
D03*
X278892Y58518D02*
D03*
X285242Y43180D02*
D03*
X293116Y28702D02*
D03*
X182118Y39018D02*
D03*
X236728Y66802D02*
D03*
M02*
